<?xml version="1.0" standalone="no"?>
<!DOCTYPE svg PUBLIC "-//W3C//DTD SVG 1.1//EN" "http://www.w3.org/Graphics/SVG/1.1/DTD/svg11.dtd" >
<svg xmlns="http://www.w3.org/2000/svg" xmlns:xlink="http://www.w3.org/1999/xlink" version="1.1">
<metadata>
Created by FontForge 20170731 at Thu Oct 20 13:37:49 2016
 By ,,,
Copyright (c) 2016 by Botio Nnikoltchev. All rights reserved.
</metadata>
<defs>
<font id="Quasimoda-BoldItalic" horiz-adv-x="391" >
  <font-face 
    font-family="Quasimoda Bold"
    font-weight="700"
    font-style="italic"
    font-stretch="normal"
    units-per-em="1000"
    panose-1="0 0 8 0 0 0 0 0 0 0"
    ascent="800"
    descent="-200"
    x-height="449"
    cap-height="708"
    bbox="-610 -279 1275 1128"
    underline-thickness="50"
    underline-position="-200"
    slope="-8"
    unicode-range="U+000D-FB02"
  />
<missing-glyph horiz-adv-x="656" 
d="M556 743v-743h-456v743h456zM498 690h-340v-637h340v637zM234 482l-38 8q9 51 44.5 80.5t87.5 29.5q55 0 89.5 -31t34.5 -81q0 -37 -13.5 -63t-46.5 -53q-30 -25 -38.5 -40.5t-9.5 -44.5l-1 -33h-47l-1 34q-1 60 52 106q32 27 42.5 46t10.5 46q0 30 -20.5 50t-53.5 20
q-68 0 -82 -70zM323 123q-16 0 -27 10.5t-11 26.5t11 27t27 11q15 0 26 -11t11 -27t-11 -26.5t-26 -10.5z" />
    <glyph glyph-name="fi" unicode="fi" horiz-adv-x="601" 
d="M354 622q-20 10 -41 10q-29 0 -44 -20.5t-22 -70.5l-13 -92h98l-15 -101h-97l-79 -566h-131l79 566h-82l15 101h81l13 91q16 111 58 158t124 47q46 0 86 -14l-21 -105zM498 565q-35 0 -58.5 21.5t-23.5 54.5t23 54.5t59 21.5q35 0 58 -22t23 -54q0 -33 -23 -54.5
t-58 -21.5zM343 0l62 449h131l-62 -449h-131z" />
    <glyph glyph-name="fl" unicode="fl" horiz-adv-x="606" 
d="M354 622q-20 10 -41 10q-29 0 -44 -20.5t-22 -70.5l-13 -92h98l-15 -101h-97l-79 -566h-131l79 566h-82l15 101h81l13 91q16 111 58 158t124 47q46 0 86 -14l-21 -105zM348 0l103 733h131l-103 -733h-131z" />
    <glyph glyph-name=".notdef" horiz-adv-x="656" 
d="M556 743v-743h-456v743h456zM498 690h-340v-637h340v637zM234 482l-38 8q9 51 44.5 80.5t87.5 29.5q55 0 89.5 -31t34.5 -81q0 -37 -13.5 -63t-46.5 -53q-30 -25 -38.5 -40.5t-9.5 -44.5l-1 -33h-47l-1 34q-1 60 52 106q32 27 42.5 46t10.5 46q0 30 -20.5 50t-53.5 20
q-68 0 -82 -70zM323 123q-16 0 -27 10.5t-11 26.5t11 27t27 11q15 0 26 -11t11 -27t-11 -26.5t-26 -10.5z" />
    <glyph glyph-name=".null" horiz-adv-x="0" 
 />
    <glyph glyph-name="nonmarkingreturn" horiz-adv-x="333" 
 />
    <glyph glyph-name="CR" unicode="&#xd;" horiz-adv-x="285" 
 />
    <glyph glyph-name="space" unicode=" " horiz-adv-x="285" 
 />
    <glyph glyph-name="exclam" unicode="!" horiz-adv-x="340" 
d="M80 221l62 487h138l-75 -487h-125zM121 -11q-35 0 -58.5 23.5t-23.5 56.5q0 34 24 57.5t58 23.5q36 0 59.5 -23.5t23.5 -57.5q0 -33 -23.5 -56.5t-59.5 -23.5z" />
    <glyph glyph-name="quotedbl" unicode="&#x22;" horiz-adv-x="387" 
d="M60 425l39 283h103l-40 -283h-102zM236 425l40 283h102l-39 -283h-103z" />
    <glyph glyph-name="numbersign" unicode="#" horiz-adv-x="676" 
d="M633 426h-101l-40 -144h110l-13 -98h-125l-52 -184h-107l52 184h-154l-52 -184h-107l52 184h-88l14 98h102l40 144h-112l14 98h126l52 184h107l-52 -184h154l52 184h107l-52 -184h86zM385 282l40 144h-154l-40 -144h154z" />
    <glyph glyph-name="dollar" unicode="$" horiz-adv-x="700" 
d="M412 418q91 -43 129 -88t38 -108q0 -91 -63 -157.5t-165 -80.5l-10 -72h-90l10 71q-144 15 -204 146l106 66l18 -5q34 -77 97 -88l30 214q-89 39 -128.5 84t-39.5 109q0 88 61.5 148t163.5 69l10 71h90l-11 -75q117 -20 164 -118l-104 -66l-17 5q-23 43 -60 57zM283 526
q0 -33 45 -63l20 141q-30 -8 -47.5 -29t-17.5 -49zM369 111q30 13 47.5 37.5t17.5 53.5q0 39 -43 68z" />
    <glyph glyph-name="percent" unicode="%" horiz-adv-x="948" 
d="M241 358q-70 0 -116 44t-46 112q0 85 61.5 146.5t146.5 61.5q71 0 117 -44.5t46 -111.5q0 -84 -62 -146t-147 -62zM152 0l522 708h105l-522 -708h-105zM251 449q42 0 72.5 31t30.5 74q0 34 -21.5 56t-55.5 22q-42 0 -72.5 -31.5t-30.5 -74.5q0 -34 21.5 -55.5t55.5 -21.5
zM645 -14q-71 0 -117 44t-46 111q0 85 62 146.5t147 61.5q70 0 116 -44t46 -111q0 -84 -61.5 -146t-146.5 -62zM655 76q42 0 72.5 31.5t30.5 74.5q0 34 -21.5 55.5t-55.5 21.5q-43 0 -73 -31t-30 -74q0 -34 21.5 -56t55.5 -22z" />
    <glyph glyph-name="ampersand" unicode="&#x26;" horiz-adv-x="726" 
d="M683 383q-54 -149 -129 -242l123 -141h-163l-51 60q-101 -79 -232 -79q-98 0 -157 49.5t-59 131.5q0 143 165 223q-61 69 -61 142q0 88 64.5 144t165.5 56q82 0 131.5 -39t49.5 -104q0 -136 -169 -221l116 -135q43 62 71 149l9 6h126zM338 630q-39 0 -65.5 -26t-26.5 -64
q0 -51 50 -104q111 54 111 131q0 28 -19 45.5t-50 17.5zM255 91q70 0 134 54l-141 164q-98 -49 -98 -128q0 -41 29 -65.5t76 -24.5z" />
    <glyph glyph-name="quotesingle" unicode="'" horiz-adv-x="213" 
d="M55 425l40 283h103l-40 -283h-103z" />
    <glyph glyph-name="parenleft" unicode="(" horiz-adv-x="332" 
d="M126 -169q-49 80 -72.5 183t-17.5 210q7 138 64.5 277t151.5 246l86 -50q-87 -102 -137 -223.5t-57 -246.5q-11 -195 78 -351z" />
    <glyph glyph-name="parenright" unicode=")" horiz-adv-x="332" 
d="M215 749q49 -80 72.5 -183t17.5 -210q-7 -138 -64.5 -277t-151.5 -246l-86 50q87 102 137 223.5t57 246.5q11 195 -78 351z" />
    <glyph glyph-name="asterisk" unicode="*" horiz-adv-x="450" 
d="M305 323l-17 3l-62 130l-99 -103l-16 1l-46 47l1 16l100 89l-121 56l-4 16l31 58l15 4l117 -66l18 129l12 7l65 -10l10 -11l-25 -127l132 25l14 -8l11 -65l-8 -14l-134 -14l67 -118l-4 -15z" />
    <glyph glyph-name="plus" unicode="+" horiz-adv-x="700" 
d="M602 349v-91h-221v-221h-90v221h-221v91h221v220h90v-220h221z" />
    <glyph glyph-name="comma" unicode="," horiz-adv-x="305" 
d="M32 -166l-84 33l139 282l12 6l108 -44z" />
    <glyph glyph-name="hyphen" unicode="-" horiz-adv-x="320" 
d="M6 177l12 87h228l-12 -87h-228z" />
    <glyph glyph-name="period" unicode="." horiz-adv-x="297" 
d="M100 -11q-35 0 -58.5 23.5t-23.5 56.5q0 34 23.5 57.5t58.5 23.5q36 0 59.5 -23.5t23.5 -57.5q0 -33 -23.5 -56.5t-59.5 -23.5z" />
    <glyph glyph-name="slash" unicode="/" horiz-adv-x="414" 
d="M456 708l-379 -707h-120l380 707h119z" />
    <glyph glyph-name="zero" unicode="0" horiz-adv-x="642" 
d="M265 -19q-109 0 -169 73.5t-60 207.5q0 198 91 331.5t235 133.5q109 0 168.5 -73.5t59.5 -205.5q0 -199 -91 -333t-234 -134zM276 109q74 0 122 101t48 236q0 74 -24.5 113.5t-70.5 39.5q-74 0 -122.5 -100t-48.5 -234q0 -76 24.5 -116t71.5 -40z" />
    <glyph glyph-name="one" unicode="1" horiz-adv-x="376" 
d="M99 0l62 446q6 46 24 102l-3 1q-25 -18 -67 -40l-86 -44l-11 5l29 139l252 114h41l-101 -723h-140z" />
    <glyph glyph-name="two" unicode="2" horiz-adv-x="552" 
d="M-48 0l2 20l239 227q103 94 148.5 159.5t45.5 120.5q0 35 -21.5 54.5t-59.5 19.5q-99 0 -137 -118l-19 -7l-118 19q71 232 298 232q92 0 147 -48.5t55 -128.5q0 -162 -197 -336l-52 -46q-13 -12 -68 -53l-2 -2q60 9 111 9h145l-17 -122h-500z" />
    <glyph glyph-name="three" unicode="3" horiz-adv-x="565" 
d="M234 -19q-119 0 -181 56t-60 160l126 20l16 -10q-1 -51 26 -78.5t76 -27.5q55 0 90.5 37t35.5 96q0 85 -109 85h-26l13 95h18q64 0 101 32.5t37 89.5q0 34 -22 53t-60 19q-44 0 -77 -25t-48 -69l-19 -7l-114 22q32 95 105.5 146.5t175.5 51.5q93 0 147.5 -44.5
t54.5 -120.5q0 -69 -40 -121.5t-108 -72.5q52 -11 82 -49.5t30 -96.5q0 -103 -77.5 -172t-192.5 -69z" />
    <glyph glyph-name="four" unicode="4" horiz-adv-x="592" 
d="M297 0l19 142h-346l11 81l423 494h131l-64 -455h82l-18 -120h-81l-19 -142h-138zM151 262h185l15 115q13 91 34 168l-2 -3q-31 -49 -67 -92z" />
    <glyph glyph-name="five" unicode="5" horiz-adv-x="570" 
d="M227 -19q-115 0 -176.5 52t-60.5 148l127 23l16 -8q0 -95 102 -95q59 0 99.5 44t40.5 110q0 49 -30.5 76t-83.5 27q-98 0 -180 -54l-29 10l81 394h395l-17 -118h-275l-31 -148q56 19 114 19q91 0 145 -51t54 -137q0 -126 -83 -209t-208 -83z" />
    <glyph glyph-name="six" unicode="6" horiz-adv-x="594" 
d="M239 -19q-107 0 -168 56.5t-61 154.5q0 81 43 159.5t153 198.5l178 196l96 -62l3 -17l-103 -114q-71 -75 -135 -124h1q55 29 112 29q82 0 129.5 -50t47.5 -136q0 -126 -84 -208.5t-212 -82.5zM253 105q59 0 99 43.5t40 107.5q0 46 -26.5 72t-72.5 26q-61 0 -100.5 -42.5
t-39.5 -107.5q0 -46 27 -72.5t73 -26.5z" />
    <glyph glyph-name="seven" unicode="7" horiz-adv-x="506" 
d="M354 584h-309l18 124h512l-2 -19l-434 -703l-26 -6l-105 43z" />
    <glyph glyph-name="eight" unicode="8" horiz-adv-x="562" 
d="M222 -19q-111 0 -171.5 47t-60.5 129q0 78 45.5 136.5t123.5 81.5q-94 35 -94 132q0 96 72 158t187 62q96 0 151.5 -43.5t55.5 -114.5q0 -66 -37.5 -118t-101.5 -75q117 -37 117 -151q0 -111 -81 -177.5t-206 -66.5zM285 429q48 0 76.5 30t28.5 81q0 37 -22 58t-61 21
q-49 0 -77.5 -31t-28.5 -80q0 -37 22 -58t62 -21zM239 91q57 0 93 37t36 98q0 46 -27.5 71.5t-75.5 25.5q-57 0 -93.5 -38t-36.5 -99q0 -45 27.5 -70t76.5 -25z" />
    <glyph glyph-name="nine" unicode="9" horiz-adv-x="596" 
d="M199 -37l-97 62l-3 17l103 113q84 88 135 124l-2 2q-62 -31 -109 -31q-81 0 -129.5 50.5t-48.5 135.5q0 129 84 210.5t217 81.5q106 0 166 -55.5t60 -152.5q0 -81 -43 -159.5t-154 -201.5zM293 354q59 0 98 43t39 108q0 46 -26.5 72.5t-71.5 26.5q-60 0 -100 -43
t-40 -108q0 -47 26.5 -73t74.5 -26z" />
    <glyph glyph-name="colon" unicode=":" horiz-adv-x="335" 
d="M164 308q-35 0 -58 23.5t-23 56.5q0 34 23 56.5t58 22.5t58 -22.5t23 -56.5q0 -33 -23 -56.5t-58 -23.5zM119 -11q-35 0 -58 23.5t-23 57.5q0 33 23.5 55.5t57.5 22.5t57.5 -22.5t23.5 -55.5q0 -34 -23 -57.5t-58 -23.5z" />
    <glyph glyph-name="semicolon" unicode=";" horiz-adv-x="369" 
d="M221 308q-35 0 -58.5 23.5t-23.5 56.5q0 34 23.5 56.5t58.5 22.5t58 -22.5t23 -56.5q0 -33 -23 -56.5t-58 -23.5zM69 -166l-84 33l139 282l12 6l108 -44z" />
    <glyph glyph-name="less" unicode="&#x3c;" horiz-adv-x="700" 
d="M591 570v-97l-388 -169l388 -169v-98l-520 227v79z" />
    <glyph glyph-name="equal" unicode="=" horiz-adv-x="700" 
d="M68 356v90h546v-90h-546zM68 161v91h546v-91h-546z" />
    <glyph glyph-name="greater" unicode="&#x3e;" horiz-adv-x="700" 
d="M92 570l520 -227v-79l-520 -227v97l389 170l-389 169v97z" />
    <glyph glyph-name="question" unicode="?" horiz-adv-x="550" 
d="M172 221l5 42q6 48 31 85t77 76q48 33 68.5 60.5t20.5 63.5q0 30 -20 48t-54 18q-89 0 -117 -93l-18 -6l-108 19q26 91 94.5 142t164.5 51q89 0 142 -43.5t53 -115.5q0 -67 -32.5 -117.5t-99.5 -94.5q-40 -27 -55.5 -47.5t-20.5 -53.5l-6 -34h-125zM218 -11
q-35 0 -58.5 23.5t-23.5 56.5q0 34 23.5 57.5t58.5 23.5q36 0 59.5 -23.5t23.5 -57.5q0 -33 -23.5 -56.5t-59.5 -23.5z" />
    <glyph glyph-name="at" unicode="@" horiz-adv-x="896" 
d="M436 -173q-187 0 -300.5 109.5t-113.5 291.5q0 175 119.5 292t298.5 117q170 0 276.5 -96.5t106.5 -251.5q0 -114 -61.5 -185.5t-159.5 -71.5q-43 0 -70.5 20t-30.5 53q-18 -32 -53 -52.5t-73 -20.5q-66 0 -106 47t-40 123q0 98 57.5 164.5t141.5 66.5q35 0 63.5 -17
t39.5 -45l9 40h90l-33 -158q-16 -85 -16 -94q0 -43 46 -43q42 0 71 47.5t29 115.5q0 128 -76 200.5t-211 72.5q-142 0 -231.5 -91t-89.5 -234q0 -145 88 -230t236 -85q106 0 201 44l8 -2l33 -73q-95 -54 -249 -54zM396 116q44 0 75.5 43t31.5 106q0 41 -18.5 63t-52.5 22
q-41 0 -71.5 -44t-30.5 -106q0 -38 18 -61t48 -23z" />
    <glyph glyph-name="A" unicode="A" horiz-adv-x="708" 
d="M500 0l-35 151h-291l-77 -151h-161l387 708h147l184 -708h-154zM228 259h213l-39 168q-14 65 -23 142h-3q-27 -71 -62 -141z" />
    <glyph glyph-name="B" unicode="B" horiz-adv-x="613" 
d="M18 0l100 708h207q231 0 231 -156q0 -64 -36.5 -112t-99.5 -66v-2q59 -14 92 -52.5t33 -93.5q0 -109 -80 -167.5t-228 -58.5h-219zM214 415h74q64 0 99 29t35 82q0 73 -115 73h-67zM171 112h71q166 0 169 119q2 43 -30.5 64t-99.5 21h-82z" />
    <glyph glyph-name="C" unicode="C" horiz-adv-x="780" 
d="M361 -19q-143 0 -234 87.5t-91 228.5q0 179 123 304.5t297 125.5q107 0 183.5 -46.5t114.5 -137.5l-111 -63l-17 5q-49 112 -175 112q-110 0 -187.5 -84.5t-77.5 -201.5q0 -89 54 -144.5t139 -55.5q130 0 213 115l18 2l94 -66q-131 -181 -343 -181z" />
    <glyph glyph-name="D" unicode="D" horiz-adv-x="737" 
d="M18 0l99 708h209q171 0 264.5 -76.5t94.5 -217.5q0 -186 -123 -300t-328 -114h-216zM173 124h66q146 0 224.5 73.5t77.5 207.5q0 179 -234 179h-69z" />
    <glyph glyph-name="E" unicode="E" horiz-adv-x="574" 
d="M118 708h422l2 -120h-304l-24 -169h276l-16 -116h-276l-25 -183h303l-30 -120h-428z" />
    <glyph glyph-name="F" unicode="F" horiz-adv-x="547" 
d="M118 708h408l2 -120h-290l-25 -177h265l-16 -115h-264l-42 -296h-138z" />
    <glyph glyph-name="G" unicode="G" horiz-adv-x="825" 
d="M341 -19q-137 0 -221 86.5t-84 227.5q0 181 123.5 306.5t299.5 125.5q224 0 303 -180l-112 -63l-16 4q-54 109 -180 109q-112 0 -190.5 -84t-78.5 -204q0 -90 53 -146t138 -56t147.5 44.5t79.5 117.5v3h-172l16 107h300l-53 -379h-126l3 29q5 33 23 75l-2 1
q-42 -58 -107 -91t-144 -33z" />
    <glyph glyph-name="H" unicode="H" horiz-adv-x="734" 
d="M18 0l100 708h138l-41 -289h302l41 289h138l-100 -708h-138l42 296h-303l-41 -296h-138z" />
    <glyph glyph-name="I" unicode="I" horiz-adv-x="293" 
d="M118 708h138l-100 -708h-138z" />
    <glyph glyph-name="J" unicode="J" horiz-adv-x="515" 
d="M107 176q8 -70 72 -70q83 0 100 126l67 476h138l-67 -477q-16 -122 -80 -186t-167 -64q-82 0 -133 42.5t-59 113.5l113 44z" />
    <glyph glyph-name="K" unicode="K" horiz-adv-x="668" 
d="M703 708l-306 -292l224 -416h-158l-168 320l-108 -103l-31 -217h-138l100 708h138l-44 -311l317 311h174z" />
    <glyph glyph-name="L" unicode="L" horiz-adv-x="546" 
d="M118 708h138l-82 -583h316l-33 -125h-439z" />
    <glyph glyph-name="M" unicode="M" horiz-adv-x="904" 
d="M429 298h2l256 410h179l-100 -708h-135l76 532h-2l-294 -461h-18l-165 461h-2l-73 -532h-135l100 708h172z" />
    <glyph glyph-name="N" unicode="N" horiz-adv-x="773" 
d="M18 0l99 708h125l192 -296q40 -61 102 -165h3q7 91 20 181l39 280h138l-101 -717h-95l-221 329q-52 77 -101 162h-3q-5 -93 -19 -185l-41 -297h-137z" />
    <glyph glyph-name="O" unicode="O" horiz-adv-x="855" 
d="M371 -19q-148 0 -241.5 89t-93.5 231q0 177 126.5 301.5t305.5 124.5q149 0 241.5 -88.5t92.5 -230.5q0 -115 -58.5 -213.5t-157.5 -156t-215 -57.5zM382 110q111 0 192.5 84.5t81.5 201.5q0 90 -55.5 146t-144.5 56q-113 0 -193.5 -83.5t-80.5 -201.5q0 -90 56 -146.5
t144 -56.5z" />
    <glyph glyph-name="P" unicode="P" horiz-adv-x="595" 
d="M18 0l99 708h219q239 0 239 -183q0 -118 -75 -186.5t-205 -68.5h-100l-38 -270h-139zM211 382h74q75 0 114 33t39 95q0 43 -29.5 63.5t-91.5 20.5h-76z" />
    <glyph glyph-name="Q" unicode="Q" horiz-adv-x="854" 
d="M530 28q72 -18 178 -36l10 -13l-52 -105q-179 41 -347 110q-127 16 -205 102.5t-78 214.5q0 177 126.5 301.5t305.5 124.5q149 0 241.5 -88.5t92.5 -230.5q0 -129 -74 -229.5t-197 -144.5zM182 313q0 -90 56 -146.5t144 -56.5q111 0 192.5 84.5t81.5 201.5
q0 90 -55.5 146t-144.5 56q-113 0 -193.5 -83.5t-80.5 -201.5z" />
    <glyph glyph-name="R" unicode="R" horiz-adv-x="637" 
d="M418 303l164 -286l-9 -17h-139l-152 282h-85l-40 -282h-139l99 707h232q121 0 179.5 -50.5t49.5 -150.5q-5 -75 -46.5 -127.5t-113.5 -75.5zM241 593l-29 -202h81q70 0 106.5 25t41.5 79q7 52 -22 75t-98 23h-80z" />
    <glyph glyph-name="S" unicode="S" horiz-adv-x="583" 
d="M236 -19q-177 0 -245 148l106 66l18 -5q21 -48 51.5 -69.5t77.5 -21.5q53 0 88.5 30t35.5 73q0 32 -27.5 56.5t-98.5 57.5q-89 39 -128.5 84t-39.5 109q0 96 70.5 157t185.5 61q78 0 135.5 -31.5t86.5 -91.5l-104 -66l-17 5q-35 66 -112 66q-46 0 -74 -23t-28 -60
q0 -26 25 -47.5t100 -58.5q93 -44 132 -89.5t39 -108.5q0 -102 -78.5 -171.5t-198.5 -69.5z" />
    <glyph glyph-name="T" unicode="T" horiz-adv-x="617" 
d="M261 583h-229l18 125h597l-18 -125h-229l-82 -583h-139z" />
    <glyph glyph-name="U" unicode="U" horiz-adv-x="731" 
d="M312 -19q-300 0 -255 317l58 410h138l-57 -407q-15 -101 15.5 -146t109.5 -45q82 0 126 46.5t59 149.5l56 402h138l-58 -419q-21 -149 -105.5 -228.5t-224.5 -79.5z" />
    <glyph glyph-name="V" unicode="V" horiz-adv-x="698" 
d="M231 -9l-187 717h155l89 -395q17 -79 23 -132h5q21 54 59 131l199 396h161l-388 -717h-116z" />
    <glyph glyph-name="W" unicode="W" horiz-adv-x="981" 
d="M169 -9l-117 717h149l43 -355q7 -56 16 -155h3q30 72 68 156l159 350h78l61 -350q17 -106 23 -156h3q19 54 59 155l143 355h153l-318 -717h-114l-59 331q-18 101 -22 130h-3q-7 -17 -19 -43.5t-21.5 -47.5t-17.5 -39l-153 -331h-114z" />
    <glyph glyph-name="X" unicode="X" horiz-adv-x="667" 
d="M-62 0l298 373l-184 335h168l115 -238l182 238h167l-276 -338l200 -370h-166l-133 268l-202 -268h-169z" />
    <glyph glyph-name="Y" unicode="Y" horiz-adv-x="634" 
d="M188 0l40 285l-190 423h159l62 -168q6 -18 23.5 -66t25.5 -75h4l89 140l110 169h165l-310 -423l-40 -285h-138z" />
    <glyph glyph-name="Z" unicode="Z" horiz-adv-x="667" 
d="M433 584h-370l18 124h610l-3 -19l-477 -562h381l-18 -127h-619l3 19z" />
    <glyph glyph-name="bracketleft" unicode="[" horiz-adv-x="326" 
d="M-6 -161l126 898h202l-12 -89h-95l-101 -720h95l-13 -89h-202z" />
    <glyph glyph-name="backslash" unicode="\" horiz-adv-x="513" 
d="M43 708h118l280 -707h-119z" />
    <glyph glyph-name="bracketright" unicode="]" horiz-adv-x="325" 
d="M8 -161l13 89h95l100 720h-94l12 89h202l-126 -898h-202z" />
    <glyph glyph-name="asciicircum" unicode="^" horiz-adv-x="667" 
d="M56 272l226 436h103l226 -436h-137l-140 306l-140 -306h-138z" />
    <glyph glyph-name="underscore" unicode="_" horiz-adv-x="500" 
d="M440 -148h-500l10 75h500z" />
    <glyph glyph-name="grave" unicode="`" horiz-adv-x="330" 
d="M244 534l-146 176l5 8h124l117 -184h-100z" />
    <glyph glyph-name="a" unicode="a" horiz-adv-x="590" 
d="M176 -19q-76 0 -121.5 52.5t-45.5 143.5q0 118 67.5 204.5t165.5 86.5q46 0 84 -25t59 -70l11 76h129l-63 -449h-131l3 17q3 27 10 53q-32 -42 -77 -65.5t-91 -23.5zM229 92q57 0 97.5 45.5t40.5 112.5q0 48 -26.5 77.5t-67.5 29.5q-55 0 -93.5 -47t-38.5 -118
q0 -47 23.5 -73.5t64.5 -26.5z" />
    <glyph glyph-name="b" unicode="b" horiz-adv-x="585" 
d="M290 -19q-45 0 -86 25.5t-60 66.5l-10 -73h-126l103 733h131l-31 -213q-13 -98 -22 -145q71 93 173 93q74 0 119 -52.5t45 -141.5q0 -122 -69 -207.5t-167 -85.5zM261 92q56 0 94.5 47.5t38.5 117.5q0 47 -24 73.5t-65 26.5q-58 0 -99 -47t-41 -114q0 -47 26 -75.5
t70 -28.5z" />
    <glyph glyph-name="c" unicode="c" horiz-adv-x="528" 
d="M219 -19q-96 0 -152.5 55.5t-56.5 149.5q0 117 77.5 199.5t192.5 82.5q149 0 203 -125l-106 -55l-8 3q-33 68 -95 68q-57 0 -95 -48t-38 -115q0 -49 25.5 -77.5t66.5 -28.5q67 0 120 71l8 1l90 -58q-89 -123 -232 -123z" />
    <glyph glyph-name="d" unicode="d" horiz-adv-x="590" 
d="M175 -19q-76 0 -121 52t-45 144q0 118 67 204.5t164 86.5q47 0 86.5 -24.5t60.5 -68.5q6 66 17 146l30 212h131l-103 -733h-126l10 72q-30 -42 -76.5 -66.5t-94.5 -24.5zM228 92q58 0 99 45.5t41 112.5q0 48 -26.5 77.5t-69.5 29.5q-56 0 -93.5 -47t-37.5 -118
q0 -47 23 -73.5t64 -26.5z" />
    <glyph glyph-name="e" unicode="e" horiz-adv-x="552" 
d="M142 204q0 -3 -0.5 -9t-0.5 -9q-2 -51 24.5 -78.5t70.5 -27.5q65 0 112 63l9 2l98 -43q-79 -121 -230 -121q-98 0 -156.5 55.5t-58.5 149.5q0 119 77.5 200.5t191.5 81.5q97 0 153.5 -54t56.5 -148q0 -35 -8 -62h-339zM277 373q-85 0 -121 -100l205 -1q4 47 -18.5 74
t-65.5 27z" />
    <glyph glyph-name="f" unicode="f" horiz-adv-x="335" 
d="M354 622q-20 10 -41 10q-29 0 -44 -20.5t-22 -70.5l-13 -92h98l-15 -101h-97l-79 -566h-131l79 566h-82l15 101h81l13 91q16 111 58 158t124 47q46 0 86 -14l-21 -105z" />
    <glyph glyph-name="g" unicode="g" horiz-adv-x="593" 
d="M201 -230q-149 0 -218 112l88 55l7 -1q42 -65 123 -65q55 0 89.5 32.5t42.5 91.5q4 32 14 81q-32 -42 -78 -65.5t-93 -23.5q-76 0 -121.5 52t-45.5 142q0 117 67.5 202t166.5 85q46 0 85 -25t60 -70l11 76h128l-61 -444q-32 -235 -265 -235zM229 98q58 0 99.5 44.5
t41.5 108.5q0 47 -27 76.5t-71 29.5q-56 0 -93.5 -46t-37.5 -116q0 -45 23.5 -71t64.5 -26z" />
    <glyph glyph-name="h" unicode="h" horiz-adv-x="578" 
d="M8 0l103 733h131l-30 -214q-3 -17 -7.5 -46.5t-8 -53.5t-7.5 -44q72 93 168 93q74 0 110 -48t23 -136l-41 -284h-130l35 244q9 61 -6.5 86t-54.5 25q-47 0 -81.5 -38t-43.5 -104l-29 -213h-131z" />
    <glyph glyph-name="i" unicode="i" horiz-adv-x="266" 
d="M163 565q-35 0 -58.5 21.5t-23.5 54.5t23 54.5t59 21.5q35 0 58 -22t23 -54q0 -33 -23 -54.5t-58 -21.5zM8 0l62 449h131l-62 -449h-131z" />
    <glyph glyph-name="j" unicode="j" horiz-adv-x="297" 
d="M193 565q-35 0 -58 21.5t-23 54.5t23 54.5t58 21.5q36 0 58.5 -21.5t22.5 -54.5t-23 -54.5t-58 -21.5zM-26 -230q-46 0 -81 15l26 103l9 3q19 -8 38 -8q31 0 47.5 20.5t24.5 70.5l66 475h131l-68 -486q-14 -99 -62 -146t-131 -47z" />
    <glyph glyph-name="k" unicode="k" horiz-adv-x="540" 
d="M327 0l-109 191l-60 -52l-19 -139h-131l103 733h131l-32 -227q-12 -87 -36 -222l181 165h167l-206 -175l164 -274h-153z" />
    <glyph glyph-name="l" unicode="l" horiz-adv-x="266" 
d="M8 0l103 733h131l-103 -733h-131z" />
    <glyph glyph-name="m" unicode="m" horiz-adv-x="863" 
d="M646 468q71 0 106.5 -47.5t23.5 -132.5l-40 -288h-131l35 247q15 108 -57 108q-41 0 -74 -39.5t-42 -101.5l-30 -214h-131l34 247q16 108 -56 108q-41 0 -74.5 -39.5t-41.5 -101.5l-29 -214h-131l62 449h129l-11 -73q69 92 158 92q53 0 86 -28t41 -79q70 107 173 107z
" />
    <glyph glyph-name="n" unicode="n" horiz-adv-x="578" 
d="M70 449h129l-10 -74q72 93 168 93q74 0 110 -48t23 -137l-40 -283h-131l35 245q9 60 -6.5 85t-54.5 25q-47 0 -81.5 -38t-43.5 -104l-29 -213h-131z" />
    <glyph glyph-name="o" unicode="o" horiz-adv-x="576" 
d="M233 -19q-99 0 -161 59t-62 153q0 113 83 194.5t201 81.5q98 0 159.5 -59t61.5 -152q0 -113 -83.5 -195t-198.5 -82zM241 93q58 0 100.5 47t42.5 109q0 47 -27.5 77t-71.5 30q-60 0 -102 -46t-42 -109q0 -47 28 -77.5t72 -30.5z" />
    <glyph glyph-name="p" unicode="p" horiz-adv-x="584" 
d="M-23 -218l93 667h129l-11 -73q72 92 172 92q75 0 120 -52t45 -142q0 -122 -69 -207.5t-166 -85.5q-46 0 -85.5 24t-58.5 65q-3 -33 -18 -144l-20 -144h-131zM260 92q57 0 95.5 47.5t38.5 117.5q0 47 -24 73.5t-66 26.5q-58 0 -99 -47t-41 -114q0 -48 26.5 -76t69.5 -28z
" />
    <glyph glyph-name="q" unicode="q" horiz-adv-x="592" 
d="M399 449h128l-94 -667h-131l21 147q12 87 23 141q-31 -42 -77 -65.5t-93 -23.5q-76 0 -121.5 52.5t-45.5 143.5q0 118 68 204.5t166 86.5q46 0 85 -25t60 -70zM229 92q58 0 99.5 45.5t41.5 112.5q0 48 -26.5 77.5t-70.5 29.5q-56 0 -94 -47t-38 -118q0 -47 23.5 -73.5
t64.5 -26.5z" />
    <glyph glyph-name="r" unicode="r" horiz-adv-x="436" 
d="M8 0l63 449h122l-11 -80q66 99 145 99q82 0 95 -96l-116 -59l-8 3q-6 34 -34 34q-32 0 -60.5 -42.5t-36.5 -105.5l-28 -202h-131z" />
    <glyph glyph-name="s" unicode="s" horiz-adv-x="430" 
d="M155 -19q-137 0 -178 108l84 50l7 -2q26 -64 89 -64q32 0 52.5 14.5t20.5 37.5q0 17 -18 31t-60 31q-65 25 -94 55.5t-29 73.5q0 66 53.5 109t135.5 43q62 0 106.5 -27t58.5 -73l-80 -47l-8 2q-19 53 -77 53q-27 0 -45 -14t-18 -34q0 -16 16 -29t63 -33q65 -25 93 -56
t28 -75q0 -68 -55.5 -111t-144.5 -43z" />
    <glyph glyph-name="t" unicode="t" horiz-adv-x="371" 
d="M299 101l-10 -103q-44 -17 -100 -17q-75 0 -109 39.5t-23 116.5l29 210h-81l14 102h82l17 119l111 61h27l-25 -180h120l-15 -102h-119l-26 -181q-6 -41 5.5 -57t44.5 -16q21 0 50 12z" />
    <glyph glyph-name="u" unicode="u" horiz-adv-x="568" 
d="M160 -19q-73 0 -107 49.5t-21 139.5l39 279h132l-36 -252q-16 -103 55 -103q43 0 77 38t42 99l31 218h131l-63 -449h-129l11 72q-70 -91 -162 -91z" />
    <glyph glyph-name="v" unicode="v" horiz-adv-x="499" 
d="M148 -10l-138 459h138l62 -292h2l144 292h142l-266 -459h-84z" />
    <glyph glyph-name="w" unicode="w" horiz-adv-x="733" 
d="M113 -10l-96 459h136l40 -287h2l144 283h61l63 -283h2l123 287h137l-224 -459h-88l-67 273h-2l-144 -273h-87z" />
    <glyph glyph-name="x" unicode="x" horiz-adv-x="509" 
d="M-55 0l204 233l-135 216h150l44 -82q24 -55 25 -58h2q6 8 19 25.5t21 28.5l71 86h156l-198 -216l140 -233h-153l-49 92q-6 13 -13.5 33t-9.5 24h-2q-32 -46 -38 -53l-76 -96h-158z" />
    <glyph glyph-name="y" unicode="y" horiz-adv-x="517" 
d="M-22 -218l157 253l-125 414h149l57 -297h2l149 297h149l-394 -667h-144z" />
    <glyph glyph-name="z" unicode="z" horiz-adv-x="476" 
d="M238 345h-216l15 104h418l-2 -10l-273 -334h225l-15 -105h-426l1 10z" />
    <glyph glyph-name="braceleft" unicode="{" horiz-adv-x="346" 
d="M14 333h6q73 2 85 97l24 167q9 66 47.5 103t99.5 37h77l-13 -89h-42q-56 0 -67 -76l-22 -157q-7 -55 -35.5 -88t-70.5 -38v-2q37 -5 57.5 -39.5t13.5 -89.5l-22 -156q-12 -74 43 -74h45l-13 -89h-75q-61 0 -90 38.5t-19 104.5l22 166q14 95 -55 95h-8z" />
    <glyph glyph-name="bar" unicode="|" horiz-adv-x="246" 
d="M68 -258v1030h110v-1030h-110z" />
    <glyph glyph-name="braceright" unicode="}" horiz-adv-x="346" 
d="M338 243h-6q-73 -2 -85 -97l-24 -167q-9 -66 -47.5 -103t-99.5 -37h-77l13 89h42q56 0 67 76l22 157q7 55 35.5 88t70.5 38v2q-37 5 -57.5 39.5t-13.5 89.5l22 156q12 74 -43 74h-45l13 89h75q61 0 90 -38.5t19 -104.5l-22 -166q-14 -95 55 -95h8z" />
    <glyph glyph-name="asciitilde" unicode="~" horiz-adv-x="700" 
d="M131 224l-64 42q70 119 161 119q45 0 82 -17.5t68.5 -35t62.5 -17.5q54 0 93 66l9 2l64 -42q-70 -119 -161 -119q-53 0 -115 35t-99 35q-53 0 -92 -66z" />
    <glyph glyph-name="uni00A0" unicode="&#xa0;" horiz-adv-x="285" 
 />
    <glyph glyph-name="exclamdown" unicode="&#xa1;" horiz-adv-x="340" 
d="M201 468q35 0 58.5 -23.5t23.5 -56.5q0 -34 -24 -57.5t-58 -23.5q-36 0 -59.5 23.5t-23.5 57.5q0 33 23.5 56.5t59.5 23.5zM242 236l-62 -487h-138l75 487h125z" />
    <glyph glyph-name="cent" unicode="&#xa2;" horiz-adv-x="700" 
d="M432 161l9 1l90 -58q-72 -100 -184 -119l-10 -73h-90l10 72q-78 12 -122.5 65.5t-44.5 136.5q0 107 66.5 187t168.5 93l10 72h90l-11 -75q106 -22 149 -120l-106 -55l-8 3q-21 43 -51 58l-35 -249q36 16 69 61zM221 196q0 -74 52 -98l36 252q-40 -17 -64 -59.5t-24 -94.5
z" />
    <glyph glyph-name="sterling" unicode="&#xa3;" horiz-adv-x="700" 
d="M53 0l18 125h72q32 36 41 104l12 83h-95l14 100h95l9 70q16 113 85.5 179t169.5 66q120 0 183 -71l-88 -92l-8 2q-33 41 -90 41q-46 0 -77 -35t-39 -100l-8 -60h148l-14 -100h-148l-10 -69q-11 -76 -47 -118h307l-32 -125h-498z" />
    <glyph glyph-name="currency" unicode="&#xa4;" horiz-adv-x="700" 
d="M110 -5l-68 68l93 94q-45 64 -45 152q0 83 42 147l-90 91l68 67l91 -91q67 45 150 45q86 0 149 -45l90 91l68 -67l-89 -90q44 -64 44 -148q0 -87 -47 -153l92 -93l-67 -68l-95 95q-63 -43 -145 -43q-80 0 -146 43zM351 162q60 0 98.5 41.5t38.5 105.5q0 62 -39 103.5
t-98 41.5q-60 0 -98.5 -41t-38.5 -104q0 -64 38.5 -105.5t98.5 -41.5z" />
    <glyph glyph-name="yen" unicode="&#xa5;" horiz-adv-x="700" 
d="M709 708l-249 -298h123l-13 -92h-166l-11 -78h166l-13 -92h-166l-21 -148h-138l21 148h-166l13 92h166l12 78h-167l13 92h123l-165 298h159l117 -273h3l194 273h165z" />
    <glyph glyph-name="brokenbar" unicode="&#xa6;" horiz-adv-x="246" 
d="M68 330v443h110v-443h-110zM68 -258v444h110v-444h-110z" />
    <glyph glyph-name="section" unicode="&#xa7;" horiz-adv-x="593" 
d="M395 449q64 -27 93 -60.5t29 -78.5q0 -48 -27 -89.5t-71 -61.5q44 -39 44 -100q0 -84 -71.5 -141.5t-177.5 -57.5q-80 0 -138.5 32.5t-80.5 89.5l106 64l8 -3q13 -36 45.5 -56.5t75.5 -20.5q42 0 68 21.5t26 56.5q0 20 -14 34.5t-48 29.5l-80 40q-65 27 -93.5 59
t-28.5 78q0 48 29.5 87.5t78.5 59.5q-44 42 -44 105q0 82 66.5 136t166.5 54q73 0 125.5 -28.5t69.5 -78.5l-103 -58l-9 2q-22 57 -95 57q-38 0 -61 -19t-23 -52q0 -20 16.5 -36.5t55.5 -34.5zM256 240l78 -35q24 8 40 30t16 50q0 23 -15.5 39.5t-52.5 31.5l-73 31
q-26 -5 -45 -27.5t-19 -49.5q0 -21 15.5 -36t55.5 -34z" />
    <glyph glyph-name="dieresis" unicode="&#xa8;" horiz-adv-x="390" 
d="M153 539q-29 0 -49 19.5t-20 48.5q0 28 20.5 48t48.5 20q29 0 48.5 -19.5t19.5 -48.5t-19.5 -48.5t-48.5 -19.5zM345 539q-29 0 -48.5 19.5t-19.5 48.5q0 28 20 48t48 20t48 -20t20 -48q0 -29 -19.5 -48.5t-48.5 -19.5z" />
    <glyph glyph-name="copyright" unicode="&#xa9;" horiz-adv-x="927" 
d="M459 -19q-159 0 -267 107.5t-108 264.5q0 158 108 266t267 108q158 0 266 -108t108 -266q0 -157 -108 -264.5t-266 -107.5zM457 46q128 0 217 89.5t89 217.5q0 129 -88 219t-216 90q-129 0 -217 -90t-88 -219t87.5 -218t215.5 -89zM461 139q-90 0 -150 60t-60 154
q0 96 60 156.5t150 60.5q59 0 107.5 -26.5t76.5 -77.5l-67 -42l-10 1q-39 58 -105 58q-50 0 -82 -35.5t-32 -94.5q0 -58 32 -92.5t82 -34.5q65 0 105 57l10 3l67 -45q-65 -102 -184 -102z" />
    <glyph glyph-name="ordfeminine" unicode="&#xaa;" horiz-adv-x="367" 
d="M134 435q-42 0 -66.5 30.5t-24.5 84.5q0 70 38 122.5t96 52.5q57 0 81 -53l6 41h106l-38 -267h-107l1 9q0 2 2.5 12.5t4.5 18.5q-38 -51 -99 -51zM187 524q24 0 41 18.5t17 47.5q0 20 -11 33t-28 13q-23 0 -39.5 -20t-16.5 -50q0 -19 10 -30.5t27 -11.5z" />
    <glyph glyph-name="guillemotleft" unicode="&#xab;" horiz-adv-x="531" 
d="M130 27l-115 206l173 206l63 -48v-8l-122 -150l80 -150l-3 -8zM337 27l-115 206l173 206l63 -48v-8l-122 -150l80 -150l-3 -8z" />
    <glyph glyph-name="logicalnot" unicode="&#xac;" horiz-adv-x="700" 
d="M67 349h534v-253h-90v162h-444v91z" />
    <glyph glyph-name="uni00AD" unicode="&#xad;" horiz-adv-x="320" 
d="M6 177l12 87h228l-12 -87h-228z" />
    <glyph glyph-name="registered" unicode="&#xae;" horiz-adv-x="606" 
d="M315 275q-95 0 -162 65.5t-67 159.5t67 160.5t162 66.5q94 0 160.5 -66.5t66.5 -160.5t-66.5 -159.5t-160.5 -65.5zM315 312q78 0 132.5 55t54.5 133t-54.5 133t-132.5 55q-79 0 -133.5 -55t-54.5 -133t55 -133t133 -55zM406 545q0 -48 -43 -65l67 -96l-2 -5h-60l-61 92
h-21v-92h-57v243h87q90 0 90 -77zM286 515h25q41 0 41 31t-41 31h-25v-62z" />
    <glyph glyph-name="macron" unicode="&#xaf;" horiz-adv-x="362" 
d="M79 569l11 82h301l-11 -82h-301z" />
    <glyph glyph-name="degree" unicode="&#xb0;" horiz-adv-x="412" 
d="M206 407q-69 0 -114.5 45.5t-45.5 114.5t45.5 114.5t114.5 45.5q68 0 113.5 -45.5t45.5 -114.5t-45.5 -114.5t-113.5 -45.5zM206 468q40 0 67.5 28.5t27.5 70.5q0 41 -27.5 70t-67.5 29q-41 0 -68 -28.5t-27 -70.5t27 -70.5t68 -28.5z" />
    <glyph glyph-name="plusminus" unicode="&#xb1;" horiz-adv-x="700" 
d="M610 436v-90h-221v-141h-90v141h-221v90h221v141h90v-141h221zM77 52v90h534v-90h-534z" />
    <glyph glyph-name="uni00B2" unicode="&#xb2;" 
d="M33 460l2 13l155 149q96 90 96 141q0 38 -40 38q-52 0 -72 -63l-12 -5l-83 13q48 142 184 142q56 0 90 -29.5t34 -77.5q0 -95 -110 -191l-25 -22q-17 -14 -42 -31l-2 -1q46 7 70 7h74l-12 -83h-307z" />
    <glyph glyph-name="uni00B3" unicode="&#xb3;" 
d="M203 444q-150 0 -147 131l88 13l9 -6q0 -27 14 -41.5t39 -14.5q28 0 46 19t18 50q0 44 -56 44h-16l9 62h11q33 0 52.5 17.5t19.5 46.5q0 37 -41 37q-48 0 -65 -49l-12 -5l-80 16q21 58 66 88.5t108 30.5q56 0 89 -26.5t33 -71.5q0 -39 -23.5 -69.5t-62.5 -43.5
q31 -7 48 -29.5t17 -56.5q0 -60 -47 -101t-117 -41z" />
    <glyph glyph-name="acute" unicode="&#xb4;" horiz-adv-x="303" 
d="M74 534l137 184h127l4 -8l-164 -176h-104z" />
    <glyph glyph-name="uni00B5" unicode="&#xb5;" horiz-adv-x="570" 
d="M-23 -218l93 667h131l-35 -251q-14 -104 63 -104q44 0 77.5 37t41.5 99l31 219h131l-50 -350q-1 -15 2.5 -20t14.5 -5t25 7l8 -4l-11 -81q-41 -12 -82 -12q-40 0 -62 18.5t-19 55.5l1 11q-56 -88 -136 -88q-35 0 -62 24l-31 -223h-131z" />
    <glyph glyph-name="paragraph" unicode="&#xb6;" horiz-adv-x="643" 
d="M193 -218l75 532q-85 1 -135.5 45.5t-50.5 118.5q0 105 74 167.5t199 62.5h280l-130 -926h-107l117 833h-98l-117 -833h-107z" />
    <glyph glyph-name="periodcentered" unicode="&#xb7;" horiz-adv-x="297" 
d="M126 205q-35 0 -58.5 23.5t-23.5 57.5t23.5 57t58.5 23t58.5 -23t23.5 -57t-23 -57.5t-59 -23.5z" />
    <glyph glyph-name="cedilla" unicode="&#xb8;" horiz-adv-x="302" 
d="M78 -234q-64 0 -109 25l28 53l9 3q32 -21 72 -21q25 0 39.5 10.5t14.5 27.5q0 26 -44 26q-25 0 -43 -7l-22 23l77 94h70l-54 -67q16 4 30 4q34 0 55 -18.5t21 -47.5q0 -47 -39.5 -76t-104.5 -29z" />
    <glyph glyph-name="uni00B9" unicode="&#xb9;" 
d="M167 460l33 240q5 36 18 69l-2 1q-24 -17 -43 -26l-47 -25l-9 3l20 95l156 69h30l-60 -426h-96z" />
    <glyph glyph-name="ordmasculine" unicode="&#xba;" horiz-adv-x="364" 
d="M183 435q-62 0 -100.5 35t-38.5 91q0 68 51 116t123 48q61 0 99 -35t38 -91q0 -67 -51 -115.5t-121 -48.5zM191 526q23 0 40.5 19t17.5 45q0 21 -11 33.5t-29 12.5q-24 0 -41 -20t-17 -47q0 -20 10.5 -31.5t29.5 -11.5z" />
    <glyph glyph-name="guillemotright" unicode="&#xbb;" horiz-adv-x="531" 
d="M74 27l-63 48v8l121 150l-79 150l3 8l76 48l115 -206zM281 27l-63 48v8l121 150l-80 150l4 8l76 48l115 -206z" />
    <glyph glyph-name="onequarter" unicode="&#xbc;" horiz-adv-x="899" 
d="M733 745l-509 -781h-121l510 781h120zM124 299l33 240q5 36 18 69l-2 1q-24 -17 -43 -26l-47 -25l-9 3l20 95l156 69h30l-60 -426h-96zM621 0l12 78h-202l9 61l236 279h99l-36 -258h47l-11 -82h-48l-11 -78h-95zM549 160h97l7 58q6 44 20 96h-1q-18 -32 -41 -60z" />
    <glyph glyph-name="onehalf" unicode="&#xbd;" horiz-adv-x="899" 
d="M721 745l-509 -781h-121l510 781h120zM111 299l33 240q5 36 18 69l-2 1q-24 -17 -43 -26l-47 -25l-9 3l20 95l156 69h30l-60 -426h-96zM469 0l2 13l155 149q96 90 96 141q0 38 -40 38q-52 0 -72 -63l-12 -5l-83 13q48 142 184 142q56 0 90 -29.5t34 -77.5
q0 -95 -110 -191l-25 -22q-17 -14 -42 -31l-2 -1q46 7 70 7h74l-12 -83h-307z" />
    <glyph glyph-name="threequarters" unicode="&#xbe;" horiz-adv-x="899" 
d="M763 745l-509 -781h-121l510 781h120zM170 283q-150 0 -147 131l88 13l9 -6q0 -27 14 -41.5t39 -14.5q28 0 46 19t18 50q0 44 -56 44h-16l9 62h11q33 0 52.5 17.5t19.5 46.5q0 37 -41 37q-48 0 -65 -49l-12 -5l-80 16q21 58 66 88.5t108 30.5q56 0 89 -26.5t33 -71.5
q0 -39 -23.5 -69.5t-62.5 -43.5q31 -7 48 -29.5t17 -56.5q0 -60 -47 -101t-117 -41zM650 0l12 78h-202l9 61l236 279h99l-36 -258h47l-11 -82h-48l-11 -78h-95zM578 160h97l7 58q6 44 20 96h-1q-18 -32 -41 -60z" />
    <glyph glyph-name="questiondown" unicode="&#xbf;" horiz-adv-x="550" 
d="M316 468q35 0 58.5 -23.5t23.5 -56.5q0 -34 -23.5 -57.5t-58.5 -23.5q-36 0 -59.5 23.5t-23.5 57.5q0 33 23.5 56.5t59.5 23.5zM362 236l-5 -42q-6 -48 -31 -85t-77 -76q-48 -33 -68.5 -60.5t-20.5 -63.5q0 -30 20 -48t54 -18q89 0 117 93l18 6l108 -19
q-26 -91 -94.5 -142t-164.5 -51q-89 0 -142 43.5t-53 115.5q0 67 32.5 117.5t99.5 94.5q40 27 55.5 47.5t20.5 53.5l6 34h125z" />
    <glyph glyph-name="Agrave" unicode="&#xc0;" horiz-adv-x="708" 
d="M513 764h-99l-123 126l6 8h119zM500 0l-35 151h-291l-77 -151h-161l387 708h147l184 -708h-154zM228 259h213l-39 168q-14 65 -23 142h-3q-27 -71 -62 -141z" />
    <glyph glyph-name="Aacute" unicode="&#xc1;" horiz-adv-x="708" 
d="M530 890l-140 -126h-101l114 134h124zM500 0l-35 151h-291l-77 -151h-161l387 708h147l184 -708h-154zM228 259h213l-39 168q-14 65 -23 142h-3q-27 -71 -62 -141z" />
    <glyph glyph-name="Acircumflex" unicode="&#xc2;" horiz-adv-x="708" 
d="M324 764h-89l-5 9l130 125h118l93 -125l-8 -9h-84l-64 83zM500 0l-35 151h-291l-77 -151h-161l387 708h147l184 -708h-154zM228 259h213l-39 168q-14 65 -23 142h-3q-27 -71 -62 -141z" />
    <glyph glyph-name="Atilde" unicode="&#xc3;" horiz-adv-x="708" 
d="M301 775l-8 -6h-66q13 56 46.5 90.5t72.5 34.5q28 0 72 -22t62 -22q28 0 41 38l9 6h64q-13 -55 -46.5 -90t-73.5 -35q-30 0 -71.5 22.5t-60.5 22.5q-27 0 -41 -39zM500 0l-35 151h-291l-77 -151h-161l387 708h147l184 -708h-154zM228 259h213l-39 168q-14 65 -23 142h-3
q-27 -71 -62 -141z" />
    <glyph glyph-name="Adieresis" unicode="&#xc4;" horiz-adv-x="708" 
d="M310 779q-29 0 -49 20t-20 49q0 28 20.5 48t48.5 20t47.5 -20t19.5 -48q0 -29 -19 -49t-48 -20zM516 779q-29 0 -48.5 20t-19.5 49q0 28 20 48t48 20t48.5 -20t20.5 -48q0 -29 -20 -49t-49 -20zM500 0l-35 151h-291l-77 -151h-161l387 708h147l184 -708h-154zM228 259
h213l-39 168q-14 65 -23 142h-3q-27 -71 -62 -141z" />
    <glyph glyph-name="Aring" unicode="&#xc5;" horiz-adv-x="708" 
d="M400 753q-39 0 -65 25t-26 63q0 48 34.5 82.5t83.5 34.5q40 0 65.5 -25t25.5 -63q0 -47 -35 -82t-83 -35zM422 913q-28 0 -47.5 -19t-19.5 -46q0 -22 14.5 -36t36.5 -14q27 0 46.5 19.5t19.5 46.5q0 22 -14 35.5t-36 13.5zM500 0l-35 151h-291l-77 -151h-161l387 708h147
l184 -708h-154zM228 259h213l-39 168q-14 65 -23 142h-3q-27 -71 -62 -141z" />
    <glyph glyph-name="AE" unicode="&#xc6;" horiz-adv-x="943" 
d="M567 303l-26 -183h304l-30 -120h-428l21 151h-207l-103 -151h-162l480 708h493l2 -120h-304l-24 -169h276l-16 -116h-276zM266 259h157l22 157q8 50 33 175h-3q-30 -64 -100 -179z" />
    <glyph glyph-name="Ccedilla" unicode="&#xc7;" horiz-adv-x="780" 
d="M592 226l18 2l94 -66q-117 -163 -303 -179l-40 -50q16 4 30 4q34 0 55 -18.5t21 -47.5q0 -47 -39.5 -76t-104.5 -29q-64 0 -109 25l28 53l9 3q31 -21 72 -21q25 0 39.5 10.5t14.5 27.5q0 26 -44 26q-25 0 -43 -7l-22 23l62 76q-131 10 -212.5 96t-81.5 219
q0 179 123 304.5t297 125.5q107 0 183.5 -46.5t114.5 -137.5l-111 -63l-17 5q-49 112 -175 112q-110 0 -187.5 -84.5t-77.5 -201.5q0 -89 54 -144.5t139 -55.5q130 0 213 115z" />
    <glyph glyph-name="Egrave" unicode="&#xc8;" horiz-adv-x="574" 
d="M352 764l-123 126l6 8h119l97 -134h-99zM118 708h422l2 -120h-304l-24 -169h276l-16 -116h-276l-25 -183h303l-30 -120h-428z" />
    <glyph glyph-name="Eacute" unicode="&#xc9;" horiz-adv-x="574" 
d="M227 764l114 134h124l3 -8l-140 -126h-101zM118 708h422l2 -120h-304l-24 -169h276l-16 -116h-276l-25 -183h303l-30 -120h-428z" />
    <glyph glyph-name="Ecircumflex" unicode="&#xca;" horiz-adv-x="574" 
d="M353 847l-91 -83h-89l-5 9l130 125h118l93 -125l-8 -9h-84zM118 708h422l2 -120h-304l-24 -169h276l-16 -116h-276l-25 -183h303l-30 -120h-428z" />
    <glyph glyph-name="Edieresis" unicode="&#xcb;" horiz-adv-x="574" 
d="M248 779q-29 0 -49 20t-20 49q0 28 20.5 48t48.5 20t47.5 -20t19.5 -48q0 -29 -19 -49t-48 -20zM454 779q-29 0 -48.5 20t-19.5 49q0 28 20 48t48 20t48.5 -20t20.5 -48q0 -29 -20 -49t-49 -20zM118 708h422l2 -120h-304l-24 -169h276l-16 -116h-276l-25 -183h303
l-30 -120h-428z" />
    <glyph glyph-name="Igrave" unicode="&#xcc;" horiz-adv-x="293" 
d="M199 764l-123 126l6 8h119l97 -134h-99zM118 708h138l-100 -708h-138z" />
    <glyph glyph-name="Iacute" unicode="&#xcd;" horiz-adv-x="293" 
d="M74 764l114 134h124l3 -8l-140 -126h-101zM118 708h138l-100 -708h-138z" />
    <glyph glyph-name="Icircumflex" unicode="&#xce;" horiz-adv-x="293" 
d="M200 847l-91 -83h-89l-5 9l130 125h118l93 -125l-8 -9h-84zM118 708h138l-100 -708h-138z" />
    <glyph glyph-name="Idieresis" unicode="&#xcf;" horiz-adv-x="293" 
d="M95 779q-29 0 -49 20t-20 49q0 28 20.5 48t48.5 20t47.5 -20t19.5 -48q0 -29 -19 -49t-48 -20zM301 779q-29 0 -48.5 20t-19.5 49q0 28 20 48t48 20t48.5 -20t20.5 -48q0 -29 -20 -49t-49 -20zM118 708h138l-100 -708h-138z" />
    <glyph glyph-name="Eth" unicode="&#xd0;" horiz-adv-x="737" 
d="M326 708q171 0 264.5 -76.5t94.5 -217.5q0 -186 -123 -300t-328 -114h-216l43 308h-58l15 101h57l42 299h209zM239 124q146 0 224.5 73.5t77.5 207.5q0 179 -234 179h-69l-25 -175h163l-15 -101h-162l-26 -184h66z" />
    <glyph glyph-name="Ntilde" unicode="&#xd1;" horiz-adv-x="773" 
d="M520 769q40 0 73.5 35t46.5 90h-64l-9 -6q-13 -38 -41 -38q-18 0 -62 22t-72 22q-39 0 -72.5 -34.5t-46.5 -90.5h66l8 6q14 39 41 39q19 0 60.5 -22.5t71.5 -22.5zM18 0l99 708h125l192 -296q40 -61 102 -165h3q7 91 20 181l39 280h138l-101 -717h-95l-221 329
q-52 77 -101 162h-3q-5 -93 -19 -185l-41 -297h-137z" />
    <glyph glyph-name="Ograve" unicode="&#xd2;" horiz-adv-x="855" 
d="M516 764l-123 126l6 8h119l97 -134h-99zM371 -19q-148 0 -241.5 89t-93.5 231q0 177 126.5 301.5t305.5 124.5q149 0 241.5 -88.5t92.5 -230.5q0 -115 -58.5 -213.5t-157.5 -156t-215 -57.5zM382 110q111 0 192.5 84.5t81.5 201.5q0 90 -55.5 146t-144.5 56
q-113 0 -193.5 -83.5t-80.5 -201.5q0 -90 56 -146.5t144 -56.5z" />
    <glyph glyph-name="Oacute" unicode="&#xd3;" horiz-adv-x="855" 
d="M391 764l114 134h124l3 -8l-140 -126h-101zM371 -19q-148 0 -241.5 89t-93.5 231q0 177 126.5 301.5t305.5 124.5q149 0 241.5 -88.5t92.5 -230.5q0 -115 -58.5 -213.5t-157.5 -156t-215 -57.5zM382 110q111 0 192.5 84.5t81.5 201.5q0 90 -55.5 146t-144.5 56
q-113 0 -193.5 -83.5t-80.5 -201.5q0 -90 56 -146.5t144 -56.5z" />
    <glyph glyph-name="Ocircumflex" unicode="&#xd4;" horiz-adv-x="855" 
d="M517 847l-91 -83h-89l-5 9l130 125h118l93 -125l-8 -9h-84zM371 -19q-148 0 -241.5 89t-93.5 231q0 177 126.5 301.5t305.5 124.5q149 0 241.5 -88.5t92.5 -230.5q0 -115 -58.5 -213.5t-157.5 -156t-215 -57.5zM382 110q111 0 192.5 84.5t81.5 201.5q0 90 -55.5 146
t-144.5 56q-113 0 -193.5 -83.5t-80.5 -201.5q0 -90 56 -146.5t144 -56.5z" />
    <glyph glyph-name="Otilde" unicode="&#xd5;" horiz-adv-x="855" 
d="M576 769q40 0 73.5 35t46.5 90h-64l-9 -6q-13 -38 -41 -38q-18 0 -62 22t-72 22q-39 0 -72.5 -34.5t-46.5 -90.5h66l8 6q14 39 41 39q19 0 60.5 -22.5t71.5 -22.5zM371 -19q-148 0 -241.5 89t-93.5 231q0 177 126.5 301.5t305.5 124.5q149 0 241.5 -88.5t92.5 -230.5
q0 -115 -58.5 -213.5t-157.5 -156t-215 -57.5zM382 110q111 0 192.5 84.5t81.5 201.5q0 90 -55.5 146t-144.5 56q-113 0 -193.5 -83.5t-80.5 -201.5q0 -90 56 -146.5t144 -56.5z" />
    <glyph glyph-name="Odieresis" unicode="&#xd6;" horiz-adv-x="855" 
d="M412 779q-29 0 -49 20t-20 49q0 28 20.5 48t48.5 20t47.5 -20t19.5 -48q0 -29 -19 -49t-48 -20zM618 779q-29 0 -48.5 20t-19.5 49q0 28 20 48t48 20t48.5 -20t20.5 -48q0 -29 -20 -49t-49 -20zM371 -19q-148 0 -241.5 89t-93.5 231q0 177 126.5 301.5t305.5 124.5
q149 0 241.5 -88.5t92.5 -230.5q0 -115 -58.5 -213.5t-157.5 -156t-215 -57.5zM382 110q111 0 192.5 84.5t81.5 201.5q0 90 -55.5 146t-144.5 56q-113 0 -193.5 -83.5t-80.5 -201.5q0 -90 56 -146.5t144 -56.5z" />
    <glyph glyph-name="multiply" unicode="&#xd7;" horiz-adv-x="700" 
d="M587 481l-178 -178l178 -177l-64 -64l-177 178l-178 -178l-63 64l177 177l-177 178l63 63l178 -177l177 177z" />
    <glyph glyph-name="Oslash" unicode="&#xd8;" horiz-adv-x="855" 
d="M725 623q77 -86 77 -215q0 -115 -58.5 -213.5t-157.5 -156t-215 -57.5q-127 0 -216 67l-62 -62l-42 35l64 64q-79 87 -79 216q0 177 126.5 301.5t305.5 124.5q129 0 217 -68l62 63l41 -36zM182 313q0 -72 37 -123l364 367q-52 41 -127 41q-113 0 -193.5 -83.5
t-80.5 -201.5zM382 110q111 0 192.5 84.5t81.5 201.5q0 70 -35 122l-365 -368q54 -40 126 -40z" />
    <glyph glyph-name="Ugrave" unicode="&#xd9;" horiz-adv-x="731" 
d="M426 764l-123 126l6 8h119l97 -134h-99zM312 -19q-300 0 -255 317l58 410h138l-57 -407q-15 -101 15.5 -146t109.5 -45q82 0 126 46.5t59 149.5l56 402h138l-58 -419q-21 -149 -105.5 -228.5t-224.5 -79.5z" />
    <glyph glyph-name="Uacute" unicode="&#xda;" horiz-adv-x="731" 
d="M301 764l114 134h124l3 -8l-140 -126h-101zM312 -19q-300 0 -255 317l58 410h138l-57 -407q-15 -101 15.5 -146t109.5 -45q82 0 126 46.5t59 149.5l56 402h138l-58 -419q-21 -149 -105.5 -228.5t-224.5 -79.5z" />
    <glyph glyph-name="Ucircumflex" unicode="&#xdb;" horiz-adv-x="731" 
d="M427 847l-91 -83h-89l-5 9l130 125h118l93 -125l-8 -9h-84zM312 -19q-300 0 -255 317l58 410h138l-57 -407q-15 -101 15.5 -146t109.5 -45q82 0 126 46.5t59 149.5l56 402h138l-58 -419q-21 -149 -105.5 -228.5t-224.5 -79.5z" />
    <glyph glyph-name="Udieresis" unicode="&#xdc;" horiz-adv-x="731" 
d="M322 779q-29 0 -49 20t-20 49q0 28 20.5 48t48.5 20t47.5 -20t19.5 -48q0 -29 -19 -49t-48 -20zM528 779q-29 0 -48.5 20t-19.5 49q0 28 20 48t48 20t48.5 -20t20.5 -48q0 -29 -20 -49t-49 -20zM312 -19q-300 0 -255 317l58 410h138l-57 -407q-15 -101 15.5 -146
t109.5 -45q82 0 126 46.5t59 149.5l56 402h138l-58 -419q-21 -149 -105.5 -228.5t-224.5 -79.5z" />
    <glyph glyph-name="Yacute" unicode="&#xdd;" horiz-adv-x="634" 
d="M245 764l114 134h124l3 -8l-140 -126h-101zM188 0l40 285l-190 423h159l62 -168q6 -18 23.5 -66t25.5 -75h4l89 140l110 169h165l-310 -423l-40 -285h-138z" />
    <glyph glyph-name="Thorn" unicode="&#xde;" horiz-adv-x="595" 
d="M18 0l100 708h140l-19 -127h79q239 0 239 -183q0 -118 -75 -186.5t-205 -68.5h-100l-20 -143h-139zM192 255h75q75 0 114 33t39 96q0 83 -121 83h-76z" />
    <glyph glyph-name="germandbls" unicode="&#xdf;" horiz-adv-x="583" 
d="M281 -19q-49 0 -91 17l26 103l8 4q22 -12 49 -12q49 0 81.5 43t32.5 112q0 104 -113 104h-18l13 91h15q50 0 79 33.5t29 87.5q0 35 -19 54.5t-54 19.5q-49 0 -75 -33.5t-36 -109.5l-100 -714h-131l100 713q18 130 77.5 190.5t169.5 60.5q87 0 138 -43.5t51 -118.5
q0 -61 -32.5 -109t-86.5 -67q59 -11 91.5 -54t32.5 -109q0 -112 -67.5 -187.5t-169.5 -75.5z" />
    <glyph glyph-name="agrave" unicode="&#xe0;" horiz-adv-x="590" 
d="M321 540l-146 176l5 8h124l117 -184h-100zM176 -19q-76 0 -121.5 52.5t-45.5 143.5q0 118 67.5 204.5t165.5 86.5q46 0 84 -25t59 -70l11 76h129l-63 -449h-131l3 17q3 27 10 53q-32 -42 -77 -65.5t-91 -23.5zM229 92q57 0 97.5 45.5t40.5 112.5q0 48 -26.5 77.5
t-67.5 29.5q-55 0 -93.5 -47t-38.5 -118q0 -47 23.5 -73.5t64.5 -26.5z" />
    <glyph glyph-name="aacute" unicode="&#xe1;" horiz-adv-x="590" 
d="M207 540l137 184h127l4 -8l-163 -176h-105zM176 -19q-76 0 -121.5 52.5t-45.5 143.5q0 118 67.5 204.5t165.5 86.5q46 0 84 -25t59 -70l11 76h129l-63 -449h-131l3 17q3 27 10 53q-32 -42 -77 -65.5t-91 -23.5zM229 92q57 0 97.5 45.5t40.5 112.5q0 48 -26.5 77.5
t-67.5 29.5q-55 0 -93.5 -47t-38.5 -118q0 -47 23.5 -73.5t64.5 -26.5z" />
    <glyph glyph-name="acircumflex" unicode="&#xe2;" horiz-adv-x="590" 
d="M341 655l-95 -121h-90l-6 9l136 175h122l86 -175l-8 -9h-85zM176 -19q-76 0 -121.5 52.5t-45.5 143.5q0 118 67.5 204.5t165.5 86.5q46 0 84 -25t59 -70l11 76h129l-63 -449h-131l3 17q3 27 10 53q-32 -42 -77 -65.5t-91 -23.5zM229 92q57 0 97.5 45.5t40.5 112.5
q0 48 -26.5 77.5t-67.5 29.5q-55 0 -93.5 -47t-38.5 -118q0 -47 23.5 -73.5t64.5 -26.5z" />
    <glyph glyph-name="atilde" unicode="&#xe3;" horiz-adv-x="590" 
d="M394 543q40 0 73 34.5t46 90.5h-64l-8 -6q-14 -39 -42 -39q-19 0 -62 22.5t-71 22.5q-40 0 -72.5 -34.5t-46.5 -90.5h65l9 6q13 38 41 38q18 0 60 -22t72 -22zM176 -19q-76 0 -121.5 52.5t-45.5 143.5q0 118 67.5 204.5t165.5 86.5q46 0 84 -25t59 -70l11 76h129
l-63 -449h-131l3 17q3 27 10 53q-32 -42 -77 -65.5t-91 -23.5zM229 92q57 0 97.5 45.5t40.5 112.5q0 48 -26.5 77.5t-67.5 29.5q-55 0 -93.5 -47t-38.5 -118q0 -47 23.5 -73.5t64.5 -26.5z" />
    <glyph glyph-name="adieresis" unicode="&#xe4;" horiz-adv-x="590" 
d="M235 539q-29 0 -49 19.5t-20 48.5q0 28 20.5 48t48.5 20t47.5 -20t19.5 -48q0 -29 -19 -48.5t-48 -19.5zM426 539q-29 0 -48.5 19.5t-19.5 48.5q0 28 20 48t48 20q29 0 49 -20t20 -48q0 -29 -20 -48.5t-49 -19.5zM176 -19q-76 0 -121.5 52.5t-45.5 143.5
q0 118 67.5 204.5t165.5 86.5q46 0 84 -25t59 -70l11 76h129l-63 -449h-131l3 17q3 27 10 53q-32 -42 -77 -65.5t-91 -23.5zM229 92q57 0 97.5 45.5t40.5 112.5q0 48 -26.5 77.5t-67.5 29.5q-55 0 -93.5 -47t-38.5 -118q0 -47 23.5 -73.5t64.5 -26.5z" />
    <glyph glyph-name="aring" unicode="&#xe5;" horiz-adv-x="590" 
d="M319 523q-39 0 -65 25t-26 63q0 48 34.5 82.5t83.5 34.5q40 0 65.5 -25t25.5 -63q0 -47 -35 -82t-83 -35zM325 568q27 0 46.5 19t19.5 47q0 22 -14 35.5t-36 13.5q-28 0 -47.5 -19t-19.5 -46q0 -22 14 -36t37 -14zM176 -19q-76 0 -121.5 52.5t-45.5 143.5
q0 118 67.5 204.5t165.5 86.5q46 0 84 -25t59 -70l11 76h129l-63 -449h-131l3 17q3 27 10 53q-32 -42 -77 -65.5t-91 -23.5zM229 92q57 0 97.5 45.5t40.5 112.5q0 48 -26.5 77.5t-67.5 29.5q-55 0 -93.5 -47t-38.5 -118q0 -47 23.5 -73.5t64.5 -26.5z" />
    <glyph glyph-name="ae" unicode="&#xe6;" horiz-adv-x="806" 
d="M105 -19q-58 0 -87.5 26.5t-29.5 71.5q0 76 75.5 119t220.5 63l3 25q9 76 -53 76t-121 -67l-9 -1l-72 53q41 55 104 88t133 33q95 0 120 -67h2q64 67 164 67q83 0 135.5 -55t52.5 -147q0 -35 -8 -62h-330v-20q-1 -49 23.5 -76.5t62.5 -27.5q63 0 112 63l9 2l98 -43
q-80 -121 -231 -121q-55 0 -102.5 25t-72.5 64q-97 -89 -199 -89zM419 272l197 -1q4 47 -18.5 74.5t-62.5 27.5t-71 -27t-45 -74zM162 63q50 0 121 60q-9 35 -5 72q-86 -13 -124 -35t-38 -59q0 -38 46 -38z" />
    <glyph glyph-name="ccedilla" unicode="&#xe7;" horiz-adv-x="528" 
d="M353 161l8 1l90 -58q-77 -107 -199 -121l-40 -50q16 4 30 4q34 0 55 -18.5t21 -47.5q0 -47 -39.5 -76t-104.5 -29q-64 0 -109 25l28 53l9 3q32 -21 72 -21q25 0 39.5 10.5t14.5 27.5q0 26 -44 26q-25 0 -43 -7l-22 23l63 77q-80 11 -126 65t-46 138q0 117 77.5 199.5
t192.5 82.5q149 0 203 -125l-106 -55l-8 3q-33 68 -95 68q-57 0 -95 -48t-38 -115q0 -49 25.5 -77.5t66.5 -28.5q67 0 120 71z" />
    <glyph glyph-name="egrave" unicode="&#xe8;" horiz-adv-x="552" 
d="M407 540h-100l-146 176l5 8h124zM142 204q0 -3 -0.5 -9t-0.5 -9q-2 -51 24.5 -78.5t70.5 -27.5q65 0 112 63l9 2l98 -43q-79 -121 -230 -121q-98 0 -156.5 55.5t-58.5 149.5q0 119 77.5 200.5t191.5 81.5q97 0 153.5 -54t56.5 -148q0 -35 -8 -62h-339zM277 373
q-85 0 -121 -100l205 -1q4 47 -18.5 74t-65.5 27z" />
    <glyph glyph-name="eacute" unicode="&#xe9;" horiz-adv-x="552" 
d="M461 716l-163 -176h-105l137 184h127zM142 204q0 -3 -0.5 -9t-0.5 -9q-2 -51 24.5 -78.5t70.5 -27.5q65 0 112 63l9 2l98 -43q-79 -121 -230 -121q-98 0 -156.5 55.5t-58.5 149.5q0 119 77.5 200.5t191.5 81.5q97 0 153.5 -54t56.5 -148q0 -35 -8 -62h-339zM277 373
q-85 0 -121 -100l205 -1q4 47 -18.5 74t-65.5 27z" />
    <glyph glyph-name="ecircumflex" unicode="&#xea;" horiz-adv-x="552" 
d="M232 534h-90l-6 9l136 175h122l86 -175l-8 -9h-85l-60 121zM142 204q0 -3 -0.5 -9t-0.5 -9q-2 -51 24.5 -78.5t70.5 -27.5q65 0 112 63l9 2l98 -43q-79 -121 -230 -121q-98 0 -156.5 55.5t-58.5 149.5q0 119 77.5 200.5t191.5 81.5q97 0 153.5 -54t56.5 -148
q0 -35 -8 -62h-339zM277 373q-85 0 -121 -100l205 -1q4 47 -18.5 74t-65.5 27z" />
    <glyph glyph-name="edieresis" unicode="&#xeb;" horiz-adv-x="552" 
d="M221 539q-29 0 -49 19.5t-20 48.5q0 28 20.5 48t48.5 20t47.5 -20t19.5 -48q0 -29 -19 -48.5t-48 -19.5zM412 539q-29 0 -48.5 19.5t-19.5 48.5q0 28 20 48t48 20q29 0 49 -20t20 -48q0 -29 -20 -48.5t-49 -19.5zM142 204q0 -3 -0.5 -9t-0.5 -9q-2 -51 24.5 -78.5
t70.5 -27.5q65 0 112 63l9 2l98 -43q-79 -121 -230 -121q-98 0 -156.5 55.5t-58.5 149.5q0 119 77.5 200.5t191.5 81.5q97 0 153.5 -54t56.5 -148q0 -35 -8 -62h-339zM277 373q-85 0 -121 -100l205 -1q4 47 -18.5 74t-65.5 27z" />
    <glyph glyph-name="igrave" unicode="&#xec;" horiz-adv-x="266" 
d="M151 540l-146 176l5 8h124l117 -184h-100zM8 0l62 449h131l-62 -449h-131z" />
    <glyph glyph-name="iacute" unicode="&#xed;" horiz-adv-x="266" 
d="M37 540l137 184h127l4 -8l-163 -176h-105zM8 0l62 449h131l-62 -449h-131z" />
    <glyph glyph-name="icircumflex" unicode="&#xee;" horiz-adv-x="266" 
d="M171 655l-95 -121h-90l-6 9l136 175h122l86 -175l-8 -9h-85zM8 0l62 449h131l-62 -449h-131z" />
    <glyph glyph-name="idieresis" unicode="&#xef;" horiz-adv-x="266" 
d="M65 539q-29 0 -49 19.5t-20 48.5q0 28 20.5 48t48.5 20t47.5 -20t19.5 -48q0 -29 -19 -48.5t-48 -19.5zM256 539q-29 0 -48.5 19.5t-19.5 48.5q0 28 20 48t48 20q29 0 49 -20t20 -48q0 -29 -20 -48.5t-49 -19.5zM8 0l62 449h131l-62 -449h-131z" />
    <glyph glyph-name="eth" unicode="&#xf0;" horiz-adv-x="584" 
d="M421 627q93 -142 93 -291q0 -157 -84.5 -256t-218.5 -99q-94 0 -147.5 54.5t-53.5 150.5q0 116 69 199t165 83q105 0 148 -93q3 84 -83 202l-87 -39l-36 53l82 37q-21 26 -50 57l107 58q27 -26 58 -65l101 45l36 -53zM234 92q59 0 99.5 44.5t40.5 110.5q0 50 -27.5 80
t-73.5 30q-58 0 -95 -45t-37 -115q0 -49 24.5 -77t68.5 -28z" />
    <glyph glyph-name="ntilde" unicode="&#xf1;" horiz-adv-x="578" 
d="M382 543q40 0 73 34.5t46 90.5h-64l-8 -6q-14 -39 -42 -39q-19 0 -62 22.5t-71 22.5q-40 0 -72.5 -34.5t-46.5 -90.5h65l9 6q13 38 41 38q18 0 60 -22t72 -22zM70 449h129l-10 -74q72 93 168 93q74 0 110 -48t23 -137l-40 -283h-131l35 245q9 60 -6.5 85t-54.5 25
q-47 0 -81.5 -38t-43.5 -104l-29 -213h-131z" />
    <glyph glyph-name="ograve" unicode="&#xf2;" horiz-adv-x="576" 
d="M327 540l-146 176l5 8h124l117 -184h-100zM233 -19q-99 0 -161 59t-62 153q0 113 83 194.5t201 81.5q98 0 159.5 -59t61.5 -152q0 -113 -83.5 -195t-198.5 -82zM241 93q58 0 100.5 47t42.5 109q0 47 -27.5 77t-71.5 30q-60 0 -102 -46t-42 -109q0 -47 28 -77.5t72 -30.5z
" />
    <glyph glyph-name="oacute" unicode="&#xf3;" horiz-adv-x="576" 
d="M213 540l137 184h127l4 -8l-163 -176h-105zM233 -19q-99 0 -161 59t-62 153q0 113 83 194.5t201 81.5q98 0 159.5 -59t61.5 -152q0 -113 -83.5 -195t-198.5 -82zM241 93q58 0 100.5 47t42.5 109q0 47 -27.5 77t-71.5 30q-60 0 -102 -46t-42 -109q0 -47 28 -77.5t72 -30.5
z" />
    <glyph glyph-name="ocircumflex" unicode="&#xf4;" horiz-adv-x="576" 
d="M347 655l-95 -121h-90l-6 9l136 175h122l86 -175l-8 -9h-85zM233 -19q-99 0 -161 59t-62 153q0 113 83 194.5t201 81.5q98 0 159.5 -59t61.5 -152q0 -113 -83.5 -195t-198.5 -82zM241 93q58 0 100.5 47t42.5 109q0 47 -27.5 77t-71.5 30q-60 0 -102 -46t-42 -109
q0 -47 28 -77.5t72 -30.5z" />
    <glyph glyph-name="otilde" unicode="&#xf5;" horiz-adv-x="576" 
d="M400 543q40 0 73 34.5t46 90.5h-64l-8 -6q-14 -39 -42 -39q-19 0 -62 22.5t-71 22.5q-40 0 -72.5 -34.5t-46.5 -90.5h65l9 6q13 38 41 38q18 0 60 -22t72 -22zM233 -19q-99 0 -161 59t-62 153q0 113 83 194.5t201 81.5q98 0 159.5 -59t61.5 -152q0 -113 -83.5 -195
t-198.5 -82zM241 93q58 0 100.5 47t42.5 109q0 47 -27.5 77t-71.5 30q-60 0 -102 -46t-42 -109q0 -47 28 -77.5t72 -30.5z" />
    <glyph glyph-name="odieresis" unicode="&#xf6;" horiz-adv-x="576" 
d="M241 539q-29 0 -49 19.5t-20 48.5q0 28 20.5 48t48.5 20t47.5 -20t19.5 -48q0 -29 -19 -48.5t-48 -19.5zM432 539q-29 0 -48.5 19.5t-19.5 48.5q0 28 20 48t48 20q29 0 49 -20t20 -48q0 -29 -20 -48.5t-49 -19.5zM233 -19q-99 0 -161 59t-62 153q0 113 83 194.5t201 81.5
q98 0 159.5 -59t61.5 -152q0 -113 -83.5 -195t-198.5 -82zM241 93q58 0 100.5 47t42.5 109q0 47 -27.5 77t-71.5 30q-60 0 -102 -46t-42 -109q0 -47 28 -77.5t72 -30.5z" />
    <glyph glyph-name="divide" unicode="&#xf7;" horiz-adv-x="700" 
d="M336 412q-30 0 -50 20.5t-20 49.5t20 49t50 20t50 -20t20 -49t-20 -49.5t-50 -20.5zM69 258v91h534v-91h-534zM336 56q-30 0 -50 20.5t-20 49.5t20 49t50 20t50 -20t20 -49t-20 -49.5t-50 -20.5z" />
    <glyph glyph-name="oslash" unicode="&#xf8;" horiz-adv-x="576" 
d="M233 -19q-77 0 -135 39l-34 -34l-41 33l36 36q-49 57 -49 138q0 113 83 194.5t201 81.5q77 0 136 -40l34 35l39 -35l-35 -35q47 -56 47 -136q0 -113 -83.5 -195t-198.5 -82zM152 149l190 192q-23 17 -56 17q-60 0 -103 -46.5t-43 -111.5q0 -28 12 -51zM241 91
q58 0 101 47.5t43 110.5q0 26 -11 50l-189 -191q25 -17 56 -17z" />
    <glyph glyph-name="ugrave" unicode="&#xf9;" horiz-adv-x="568" 
d="M298 540l-146 176l5 8h124l117 -184h-100zM160 -19q-73 0 -107 49.5t-21 139.5l39 279h132l-36 -252q-16 -103 55 -103q43 0 77 38t42 99l31 218h131l-63 -449h-129l11 72q-70 -91 -162 -91z" />
    <glyph glyph-name="uacute" unicode="&#xfa;" horiz-adv-x="568" 
d="M184 540l137 184h127l4 -8l-163 -176h-105zM160 -19q-73 0 -107 49.5t-21 139.5l39 279h132l-36 -252q-16 -103 55 -103q43 0 77 38t42 99l31 218h131l-63 -449h-129l11 72q-70 -91 -162 -91z" />
    <glyph glyph-name="ucircumflex" unicode="&#xfb;" horiz-adv-x="568" 
d="M318 655l-95 -121h-90l-6 9l136 175h122l86 -175l-8 -9h-85zM160 -19q-73 0 -107 49.5t-21 139.5l39 279h132l-36 -252q-16 -103 55 -103q43 0 77 38t42 99l31 218h131l-63 -449h-129l11 72q-70 -91 -162 -91z" />
    <glyph glyph-name="udieresis" unicode="&#xfc;" horiz-adv-x="568" 
d="M212 539q-29 0 -49 19.5t-20 48.5q0 28 20.5 48t48.5 20t47.5 -20t19.5 -48q0 -29 -19 -48.5t-48 -19.5zM403 539q-29 0 -48.5 19.5t-19.5 48.5q0 28 20 48t48 20q29 0 49 -20t20 -48q0 -29 -20 -48.5t-49 -19.5zM160 -19q-73 0 -107 49.5t-21 139.5l39 279h132l-36 -252
q-16 -103 55 -103q43 0 77 38t42 99l31 218h131l-63 -449h-129l11 72q-70 -91 -162 -91z" />
    <glyph glyph-name="yacute" unicode="&#xfd;" horiz-adv-x="517" 
d="M156 540l137 184h127l4 -8l-163 -176h-105zM-22 -218l157 253l-125 414h149l57 -297h2l149 297h149l-394 -667h-144z" />
    <glyph glyph-name="thorn" unicode="&#xfe;" horiz-adv-x="584" 
d="M-23 -218l134 951h131l-31 -213q-13 -96 -23 -144q73 92 172 92q75 0 120 -52t45 -142q0 -122 -69 -207.5t-166 -85.5q-46 0 -85.5 24t-58.5 65q-3 -33 -18 -144l-20 -144h-131zM260 92q57 0 95.5 47.5t38.5 117.5q0 47 -24 73.5t-66 26.5q-57 0 -98.5 -47t-41.5 -114
q0 -47 26.5 -75.5t69.5 -28.5z" />
    <glyph glyph-name="ydieresis" unicode="&#xff;" horiz-adv-x="517" 
d="M184 539q-29 0 -49 19.5t-20 48.5q0 28 20.5 48t48.5 20t47.5 -20t19.5 -48q0 -29 -19 -48.5t-48 -19.5zM375 539q-29 0 -48.5 19.5t-19.5 48.5q0 28 20 48t48 20q29 0 49 -20t20 -48q0 -29 -20 -48.5t-49 -19.5zM-22 -218l157 253l-125 414h149l57 -297h2l149 297h149
l-394 -667h-144z" />
    <glyph glyph-name="Amacron" unicode="&#x100;" horiz-adv-x="708" 
d="M568 878l-12 -82h-301l12 82h301zM500 0l-35 151h-291l-77 -151h-161l387 708h147l184 -708h-154zM228 259h213l-39 168q-14 65 -23 142h-3q-27 -71 -62 -141z" />
    <glyph glyph-name="amacron" unicode="&#x101;" horiz-adv-x="590" 
d="M172 569l11 82h301l-11 -82h-301zM176 -19q-76 0 -121.5 52.5t-45.5 143.5q0 118 67.5 204.5t165.5 86.5q46 0 84 -25t59 -70l11 76h129l-63 -449h-131l3 17q3 27 10 53q-32 -42 -77 -65.5t-91 -23.5zM229 92q57 0 97.5 45.5t40.5 112.5q0 48 -26.5 77.5t-67.5 29.5
q-55 0 -93.5 -47t-38.5 -118q0 -47 23.5 -73.5t64.5 -26.5z" />
    <glyph glyph-name="Abreve" unicode="&#x102;" horiz-adv-x="708" 
d="M398 762q-73 0 -113 35t-36 97l9 8h72q4 -58 78 -58q73 0 94 58h71l8 -8q-14 -62 -62 -97t-121 -35zM500 0l-35 151h-291l-77 -151h-161l387 708h147l184 -708h-154zM228 259h213l-39 168q-14 65 -23 142h-3q-27 -71 -62 -141z" />
    <glyph glyph-name="abreve" unicode="&#x103;" horiz-adv-x="590" 
d="M314 535q-73 0 -113.5 35.5t-36.5 98.5l9 8h71q4 -60 78 -60q75 0 94 60h71l8 -8q-14 -64 -62 -99t-119 -35zM176 -19q-76 0 -121.5 52.5t-45.5 143.5q0 118 67.5 204.5t165.5 86.5q46 0 84 -25t59 -70l11 76h129l-63 -449h-131l3 17q3 27 10 53q-32 -42 -77 -65.5
t-91 -23.5zM229 92q57 0 97.5 45.5t40.5 112.5q0 48 -26.5 77.5t-67.5 29.5q-55 0 -93.5 -47t-38.5 -118q0 -47 23.5 -73.5t64.5 -26.5z" />
    <glyph glyph-name="Aogonek" unicode="&#x104;" horiz-adv-x="708" 
d="M610 -136h6l14 -66q-50 -27 -105 -27q-45 0 -71 20t-26 55q0 81 121 154h-49l-35 151h-291l-77 -151h-161l387 708h147l184 -708h-36q-95 -68 -95 -124q0 -31 33 -31q29 0 54 19zM228 259h213l-39 168q-14 65 -23 142h-3q-27 -71 -62 -141z" />
    <glyph glyph-name="aogonek" unicode="&#x105;" horiz-adv-x="590" 
d="M439 0q-95 -68 -95 -124q0 -31 33 -31q29 0 54 19h6l14 -66q-49 -27 -105 -27q-45 0 -71 20t-26 55q0 81 121 154h-39l3 17q3 27 10 53q-32 -42 -77 -65.5t-91 -23.5q-76 0 -121.5 52.5t-45.5 143.5q0 118 67.5 204.5t165.5 86.5q46 0 84 -25t59 -70l11 76h129l-63 -449
h-23zM229 92q57 0 97.5 45.5t40.5 112.5q0 48 -26.5 77.5t-67.5 29.5q-55 0 -93.5 -47t-38.5 -118q0 -47 23.5 -73.5t64.5 -26.5z" />
    <glyph glyph-name="Cacute" unicode="&#x106;" horiz-adv-x="780" 
d="M367 764l114 134h124l3 -8l-140 -126h-101zM361 -19q-143 0 -234 87.5t-91 228.5q0 179 123 304.5t297 125.5q107 0 183.5 -46.5t114.5 -137.5l-111 -63l-17 5q-49 112 -175 112q-110 0 -187.5 -84.5t-77.5 -201.5q0 -89 54 -144.5t139 -55.5q130 0 213 115l18 2l94 -66
q-131 -181 -343 -181z" />
    <glyph glyph-name="cacute" unicode="&#x107;" horiz-adv-x="528" 
d="M195 540l137 184h127l4 -8l-163 -176h-105zM219 -19q-96 0 -152.5 55.5t-56.5 149.5q0 117 77.5 199.5t192.5 82.5q149 0 203 -125l-106 -55l-8 3q-33 68 -95 68q-57 0 -95 -48t-38 -115q0 -49 25.5 -77.5t66.5 -28.5q67 0 120 71l8 1l90 -58q-89 -123 -232 -123z" />
    <glyph glyph-name="Ccircumflex" unicode="&#x108;" horiz-adv-x="780" 
d="M504 914l-95 -121h-90l-6 9l136 175h122l86 -175l-8 -9h-85zM361 -19q-143 0 -234 87.5t-91 228.5q0 179 123 304.5t297 125.5q107 0 183.5 -46.5t114.5 -137.5l-111 -63l-17 5q-49 112 -175 112q-110 0 -187.5 -84.5t-77.5 -201.5q0 -89 54 -144.5t139 -55.5
q130 0 213 115l18 2l94 -66q-131 -181 -343 -181z" />
    <glyph glyph-name="ccircumflex" unicode="&#x109;" horiz-adv-x="528" 
d="M329 655l-95 -121h-90l-6 9l136 175h122l86 -175l-8 -9h-85zM219 -19q-96 0 -152.5 55.5t-56.5 149.5q0 117 77.5 199.5t192.5 82.5q149 0 203 -125l-106 -55l-8 3q-33 68 -95 68q-57 0 -95 -48t-38 -115q0 -49 25.5 -77.5t66.5 -28.5q67 0 120 71l8 1l90 -58
q-89 -123 -232 -123z" />
    <glyph glyph-name="Cdotaccent" unicode="&#x10a;" horiz-adv-x="780" 
d="M493 772q-35 0 -58 21.5t-23 54.5t23 54t58 21t58 -21.5t23 -53.5q0 -33 -23 -54.5t-58 -21.5zM361 -19q-143 0 -234 87.5t-91 228.5q0 179 123 304.5t297 125.5q107 0 183.5 -46.5t114.5 -137.5l-111 -63l-17 5q-49 112 -175 112q-110 0 -187.5 -84.5t-77.5 -201.5
q0 -89 54 -144.5t139 -55.5q130 0 213 115l18 2l94 -66q-131 -181 -343 -181z" />
    <glyph glyph-name="cdotaccent" unicode="&#x10b;" horiz-adv-x="528" 
d="M310 534q-35 0 -58 21.5t-23 54.5q0 32 23 53.5t58 21.5t58 -21.5t23 -54.5q0 -32 -23 -53.5t-58 -21.5zM219 -19q-96 0 -152.5 55.5t-56.5 149.5q0 117 77.5 199.5t192.5 82.5q149 0 203 -125l-106 -55l-8 3q-33 68 -95 68q-57 0 -95 -48t-38 -115q0 -49 25.5 -77.5
t66.5 -28.5q67 0 120 71l8 1l90 -58q-89 -123 -232 -123z" />
    <glyph glyph-name="Ccaron" unicode="&#x10c;" horiz-adv-x="780" 
d="M420 764l-93 132l8 8h85l65 -89l90 89h88l5 -8l-130 -132h-118zM361 -19q-143 0 -234 87.5t-91 228.5q0 179 123 304.5t297 125.5q107 0 183.5 -46.5t114.5 -137.5l-111 -63l-17 5q-49 112 -175 112q-110 0 -187.5 -84.5t-77.5 -201.5q0 -89 54 -144.5t139 -55.5
q130 0 213 115l18 2l94 -66q-131 -181 -343 -181z" />
    <glyph glyph-name="ccaron" unicode="&#x10d;" horiz-adv-x="528" 
d="M314 597l95 121h90l5 -9l-136 -175h-121l-86 175l7 9h86zM219 -19q-96 0 -152.5 55.5t-56.5 149.5q0 117 77.5 199.5t192.5 82.5q149 0 203 -125l-106 -55l-8 3q-33 68 -95 68q-57 0 -95 -48t-38 -115q0 -49 25.5 -77.5t66.5 -28.5q67 0 120 71l8 1l90 -58
q-89 -123 -232 -123z" />
    <glyph glyph-name="Dcaron" unicode="&#x10e;" horiz-adv-x="737" 
d="M327 764l-93 132l8 8h85l65 -89l90 89h88l5 -8l-130 -132h-118zM18 0l99 708h209q171 0 264.5 -76.5t94.5 -217.5q0 -186 -123 -300t-328 -114h-216zM173 124h66q146 0 224.5 73.5t77.5 207.5q0 179 -234 179h-69z" />
    <glyph glyph-name="dcaron" unicode="&#x10f;" horiz-adv-x="704" 
d="M175 -19q-76 0 -121 52t-45 144q0 118 67 204.5t164 86.5q47 0 86.5 -24.5t60.5 -68.5q6 66 17 146l30 212h131l-103 -733h-126l10 72q-30 -42 -76.5 -66.5t-94.5 -24.5zM644 495l-74 29l96 197l12 6l89 -36zM228 92q58 0 99 45.5t41 112.5q0 48 -26.5 77.5t-69.5 29.5
q-56 0 -93.5 -47t-37.5 -118q0 -47 23 -73.5t64 -26.5z" />
    <glyph glyph-name="Dcroat" unicode="&#x110;" horiz-adv-x="737" 
d="M326 708q171 0 264.5 -76.5t94.5 -217.5q0 -186 -123 -300t-328 -114h-216l43 308h-58l15 101h57l42 299h209zM239 124q146 0 224.5 73.5t77.5 207.5q0 179 -234 179h-69l-25 -175h163l-15 -101h-162l-26 -184h66z" />
    <glyph glyph-name="dcroat" unicode="&#x111;" horiz-adv-x="590" 
d="M610 640l-13 -94h-58l-77 -546h-126l10 72q-30 -42 -76.5 -66.5t-94.5 -24.5q-76 0 -121 52t-45 144q0 118 67 204.5t164 86.5q47 0 86.5 -24.5t60.5 -68.5q6 66 17 146l4 25h-137l13 94h137l13 93h131l-13 -93h58zM228 92q58 0 99 45.5t41 112.5q0 48 -26.5 77.5
t-69.5 29.5q-56 0 -93.5 -47t-37.5 -118q0 -47 23 -73.5t64 -26.5z" />
    <glyph glyph-name="Emacron" unicode="&#x112;" horiz-adv-x="574" 
d="M193 796l12 82h301l-12 -82h-301zM118 708h422l2 -120h-304l-24 -169h276l-16 -116h-276l-25 -183h303l-30 -120h-428z" />
    <glyph glyph-name="emacron" unicode="&#x113;" horiz-adv-x="552" 
d="M470 651l-11 -82h-301l11 82h301zM142 204q0 -3 -0.5 -9t-0.5 -9q-2 -51 24.5 -78.5t70.5 -27.5q65 0 112 63l9 2l98 -43q-79 -121 -230 -121q-98 0 -156.5 55.5t-58.5 149.5q0 119 77.5 200.5t191.5 81.5q97 0 153.5 -54t56.5 -148q0 -35 -8 -62h-339zM277 373
q-85 0 -121 -100l205 -1q4 47 -18.5 74t-65.5 27z" />
    <glyph glyph-name="Edotaccent" unicode="&#x116;" horiz-adv-x="574" 
d="M353 772q-35 0 -58 21.5t-23 54.5t23 54t58 21t58 -21.5t23 -53.5q0 -33 -23 -54.5t-58 -21.5zM118 708h422l2 -120h-304l-24 -169h276l-16 -116h-276l-25 -183h303l-30 -120h-428z" />
    <glyph glyph-name="edotaccent" unicode="&#x117;" horiz-adv-x="552" 
d="M308 534q-35 0 -58 21.5t-23 54.5q0 32 23 53.5t58 21.5t58 -21.5t23 -54.5q0 -32 -23 -53.5t-58 -21.5zM142 204q0 -3 -0.5 -9t-0.5 -9q-2 -51 24.5 -78.5t70.5 -27.5q65 0 112 63l9 2l98 -43q-79 -121 -230 -121q-98 0 -156.5 55.5t-58.5 149.5q0 119 77.5 200.5
t191.5 81.5q97 0 153.5 -54t56.5 -148q0 -35 -8 -62h-339zM277 373q-85 0 -121 -100l205 -1q4 47 -18.5 74t-65.5 27z" />
    <glyph glyph-name="Eogonek" unicode="&#x118;" horiz-adv-x="574" 
d="M474 303h-276l-25 -183h303l-30 -120h-26q-95 -68 -95 -124q0 -31 33 -31q29 0 54 19h6l14 -66q-50 -27 -105 -27q-45 0 -71 20t-26 55q0 81 121 154h-333l100 708h422l2 -120h-304l-24 -169h276z" />
    <glyph glyph-name="eogonek" unicode="&#x119;" horiz-adv-x="552" 
d="M142 204q0 -3 -0.5 -9t-0.5 -9q-2 -51 24.5 -78.5t70.5 -27.5q65 0 112 63l9 2l98 -43q-48 -74 -126 -103q-94 -69 -94 -123q0 -31 33 -31q29 0 54 19h6l14 -66q-50 -27 -105 -27q-45 0 -71 20t-26 55q0 69 92 135h-7q-98 0 -156.5 55.5t-58.5 149.5q0 119 77.5 200.5
t191.5 81.5q97 0 153.5 -54t56.5 -148q0 -35 -8 -62h-339zM277 373q-85 0 -121 -100l205 -1q4 47 -18.5 74t-65.5 27z" />
    <glyph glyph-name="Ecaron" unicode="&#x11a;" horiz-adv-x="574" 
d="M280 764l-93 132l8 8h85l65 -89l90 89h88l5 -8l-130 -132h-118zM118 708h422l2 -120h-304l-24 -169h276l-16 -116h-276l-25 -183h303l-30 -120h-428z" />
    <glyph glyph-name="ecaron" unicode="&#x11b;" horiz-adv-x="552" 
d="M366 534h-121l-86 175l7 9h86l60 -121l95 121h90l5 -9zM279 468q97 0 153.5 -54t56.5 -148q0 -35 -8 -62h-339q0 -3 -0.5 -9t-0.5 -9q-2 -51 24.5 -78.5t70.5 -27.5q65 0 112 63l9 2l98 -43q-79 -121 -230 -121q-98 0 -156.5 55.5t-58.5 149.5q0 119 77.5 200.5
t191.5 81.5zM361 272q4 47 -18.5 74t-65.5 27q-85 0 -121 -100z" />
    <glyph glyph-name="Gbreve" unicode="&#x11e;" horiz-adv-x="825" 
d="M494 762q-73 0 -113 35t-36 97l9 8h72q4 -58 78 -58q73 0 94 58h71l8 -8q-14 -62 -62 -97t-121 -35zM341 -19q-137 0 -221 86.5t-84 227.5q0 181 123.5 306.5t299.5 125.5q224 0 303 -180l-112 -63l-16 4q-54 109 -180 109q-112 0 -190.5 -84t-78.5 -204q0 -90 53 -146
t138 -56t147.5 44.5t79.5 117.5v3h-172l16 107h300l-53 -379h-126l3 29q5 33 23 75l-2 1q-42 -58 -107 -91t-144 -33z" />
    <glyph glyph-name="gbreve" unicode="&#x11f;" horiz-adv-x="593" 
d="M315 535q-73 0 -113.5 35.5t-36.5 98.5l9 8h71q4 -60 78 -60q75 0 94 60h71l8 -8q-14 -64 -62 -99t-119 -35zM201 -230q-149 0 -218 112l88 55l7 -1q42 -65 123 -65q55 0 89.5 32.5t42.5 91.5q4 32 14 81q-32 -42 -78 -65.5t-93 -23.5q-76 0 -121.5 52t-45.5 142
q0 117 67.5 202t166.5 85q46 0 85 -25t60 -70l11 76h128l-61 -444q-32 -235 -265 -235zM229 98q58 0 99.5 44.5t41.5 108.5q0 47 -27 76.5t-71 29.5q-56 0 -93.5 -46t-37.5 -116q0 -45 23.5 -71t64.5 -26z" />
    <glyph glyph-name="Gdotaccent" unicode="&#x120;" horiz-adv-x="825" 
d="M511 772q-35 0 -58 21.5t-23 54.5t23 54t58 21t58 -21.5t23 -53.5q0 -33 -23 -54.5t-58 -21.5zM341 -19q-137 0 -221 86.5t-84 227.5q0 181 123.5 306.5t299.5 125.5q224 0 303 -180l-112 -63l-16 4q-54 109 -180 109q-112 0 -190.5 -84t-78.5 -204q0 -90 53 -146
t138 -56t147.5 44.5t79.5 117.5v3h-172l16 107h300l-53 -379h-126l3 29q5 33 23 75l-2 1q-42 -58 -107 -91t-144 -33z" />
    <glyph glyph-name="gdotaccent" unicode="&#x121;" horiz-adv-x="593" 
d="M323 534q-35 0 -58 21.5t-23 54.5q0 32 23 53.5t58 21.5t58 -21.5t23 -54.5q0 -32 -23 -53.5t-58 -21.5zM201 -230q-149 0 -218 112l88 55l7 -1q42 -65 123 -65q55 0 89.5 32.5t42.5 91.5q4 32 14 81q-32 -42 -78 -65.5t-93 -23.5q-76 0 -121.5 52t-45.5 142
q0 117 67.5 202t166.5 85q46 0 85 -25t60 -70l11 76h128l-61 -444q-32 -235 -265 -235zM229 98q58 0 99.5 44.5t41.5 108.5q0 47 -27 76.5t-71 29.5q-56 0 -93.5 -46t-37.5 -116q0 -45 23.5 -71t64.5 -26z" />
    <glyph glyph-name="Gcommaaccent" unicode="&#x122;" horiz-adv-x="825" 
d="M341 -19q-137 0 -221 86.5t-84 227.5q0 181 123.5 306.5t299.5 125.5q224 0 303 -180l-112 -63l-16 4q-54 109 -180 109q-112 0 -190.5 -84t-78.5 -204q0 -90 53 -146t138 -56t147.5 44.5t79.5 117.5v3h-172l16 107h300l-53 -379h-126l3 29q5 33 23 75l-2 1
q-42 -58 -107 -91t-144 -33zM334 -277l-81 34l86 193l12 6l103 -42z" />
    <glyph glyph-name="gcommaaccent" unicode="&#x123;" horiz-adv-x="593" 
d="M362 751l80 -33l-85 -193l-12 -6l-104 42zM201 -230q-149 0 -218 112l88 55l7 -1q42 -65 123 -65q55 0 89.5 32.5t42.5 91.5q4 32 14 81q-32 -42 -78 -65.5t-93 -23.5q-76 0 -121.5 52t-45.5 142q0 117 67.5 202t166.5 85q46 0 85 -25t60 -70l11 76h128l-61 -444
q-32 -235 -265 -235zM229 98q58 0 99.5 44.5t41.5 108.5q0 47 -27 76.5t-71 29.5q-56 0 -93.5 -46t-37.5 -116q0 -45 23.5 -71t64.5 -26z" />
    <glyph glyph-name="Hbar" unicode="&#x126;" horiz-adv-x="734" 
d="M736 617l-12 -84h-53l-75 -533h-138l42 296h-303l-41 -296h-138l75 533h-52l11 84h53l13 91h138l-13 -91h302l13 91h138l-13 -91h53zM215 419h302l16 114h-302z" />
    <glyph glyph-name="hbar" unicode="&#x127;" horiz-adv-x="584" 
d="M357 468q74 0 110 -48t23 -136l-41 -284h-130l35 244q9 61 -6.5 86t-54.5 25q-47 0 -81.5 -38t-43.5 -104l-29 -213h-131l77 546h-57l13 94h57l13 93h131l-13 -93h138l-13 -94h-138l-4 -27q-3 -17 -7.5 -46.5t-8 -53.5t-7.5 -44q72 93 168 93z" />
    <glyph glyph-name="Itilde" unicode="&#x128;" horiz-adv-x="293" 
d="M264 802q40 0 73 34.5t46 90.5h-64l-8 -6q-14 -39 -42 -39q-19 0 -62 22.5t-71 22.5q-40 0 -72.5 -34.5t-46.5 -90.5h65l9 6q13 38 41 38q18 0 60 -22t72 -22zM118 708h138l-100 -708h-138z" />
    <glyph glyph-name="itilde" unicode="&#x129;" horiz-adv-x="266" 
d="M224 543q40 0 73 34.5t46 90.5h-64l-8 -6q-14 -39 -42 -39q-19 0 -62 22.5t-71 22.5q-40 0 -72.5 -34.5t-46.5 -90.5h65l9 6q13 38 41 38q18 0 60 -22t72 -22zM8 0l62 449h131l-62 -449h-131z" />
    <glyph glyph-name="Imacron" unicode="&#x12a;" horiz-adv-x="293" 
d="M40 796l12 82h301l-12 -82h-301zM118 708h138l-100 -708h-138z" />
    <glyph glyph-name="imacron" unicode="&#x12b;" horiz-adv-x="266" 
d="M2 569l11 82h301l-11 -82h-301zM8 0l62 449h131l-62 -449h-131z" />
    <glyph glyph-name="Ibreve" unicode="&#x12c;" horiz-adv-x="293" 
d="M184 794q-73 0 -113.5 35.5t-36.5 98.5l9 8h71q4 -60 78 -60q75 0 94 60h71l8 -8q-14 -64 -62 -99t-119 -35zM118 708h138l-100 -708h-138z" />
    <glyph glyph-name="ibreve" unicode="&#x12d;" horiz-adv-x="266" 
d="M144 535q-73 0 -113.5 35.5t-36.5 98.5l9 8h71q4 -60 78 -60q75 0 94 60h71l8 -8q-14 -64 -62 -99t-119 -35zM8 0l62 449h131l-62 -449h-131z" />
    <glyph glyph-name="Iogonek" unicode="&#x12e;" horiz-adv-x="293" 
d="M134 0q-95 -68 -95 -124q0 -31 33 -31q29 0 54 19h6l14 -66q-50 -27 -105 -27q-45 0 -71 20t-26 55q0 81 121 154h-47l100 708h138l-100 -708h-22z" />
    <glyph glyph-name="iogonek" unicode="&#x12f;" horiz-adv-x="266" 
d="M152 685q35 0 58 -21.5t23 -54.5q0 -32 -23 -53.5t-58 -21.5t-58 21.5t-23 54.5q0 32 23 53.5t58 21.5zM8 0l62 449h131l-62 -449h-21q-95 -68 -95 -124q0 -31 33 -31q29 0 54 19h6l14 -66q-50 -27 -105 -27q-45 0 -71 20t-26 55q0 81 121 154h-41z" />
    <glyph glyph-name="Idotaccent" unicode="&#x130;" horiz-adv-x="293" 
d="M200 772q-35 0 -58 21.5t-23 54.5t23 54t58 21t58 -21.5t23 -53.5q0 -33 -23 -54.5t-58 -21.5zM118 708h138l-100 -708h-138z" />
    <glyph glyph-name="dotlessi" unicode="&#x131;" horiz-adv-x="266" 
d="M8 0l62 449h131l-62 -449h-131z" />
    <glyph glyph-name="IJ" unicode="&#x132;" horiz-adv-x="808" 
d="M118 708h138l-100 -708h-138zM400 176q8 -70 72 -70q83 0 100 126l67 476h138l-67 -477q-16 -122 -80 -186t-167 -64q-82 0 -133 42.5t-59 113.5l113 44z" />
    <glyph glyph-name="ij" unicode="&#x133;" horiz-adv-x="563" 
d="M163 565q-35 0 -58.5 21.5t-23.5 54.5t23 54.5t59 21.5q35 0 58 -22t23 -54q0 -33 -23 -54.5t-58 -21.5zM459 565q-35 0 -58 21.5t-23 54.5t23 54.5t58 21.5q36 0 58.5 -21.5t22.5 -54.5t-23 -54.5t-58 -21.5zM8 0l62 449h131l-62 -449h-131zM240 -230q-46 0 -81 15
l26 103l9 3q19 -8 38 -8q31 0 47.5 20.5t24.5 70.5l66 475h131l-68 -486q-14 -99 -62 -146t-131 -47z" />
    <glyph glyph-name="Kcommaaccent" unicode="&#x136;" horiz-adv-x="668" 
d="M703 708l-306 -292l224 -416h-158l-168 320l-108 -103l-31 -217h-138l100 708h138l-44 -311l317 311h174zM264 -50l12 6l103 -42l-120 -191l-81 34z" />
    <glyph glyph-name="kcommaaccent" unicode="&#x137;" horiz-adv-x="540" 
d="M327 0l-109 191l-60 -52l-19 -139h-131l103 733h131l-32 -227q-12 -87 -36 -222l181 165h167l-206 -175l164 -274h-153zM200 -277l-81 34l86 193l12 6l103 -42z" />
    <glyph glyph-name="kgreenlandic" unicode="&#x138;" horiz-adv-x="540" 
d="M327 0l-109 191l-60 -52l-19 -139h-131l62 449h131l-7 -51q-4 -28 -20 -116l181 167h167l-206 -175l164 -274h-153z" />
    <glyph glyph-name="Lacute" unicode="&#x139;" horiz-adv-x="546" 
d="M83 764l114 134h124l3 -8l-140 -126h-101zM118 708h138l-82 -583h316l-33 -125h-439z" />
    <glyph glyph-name="lacute" unicode="&#x13a;" horiz-adv-x="266" 
d="M78 764l114 134h124l3 -8l-140 -126h-101zM8 0l103 733h131l-103 -733h-131z" />
    <glyph glyph-name="Lcommaaccent" unicode="&#x13b;" horiz-adv-x="546" 
d="M118 708h138l-82 -583h316l-33 -125h-439zM221 -277l-81 34l86 193l12 6l103 -42z" />
    <glyph glyph-name="lcommaaccent" unicode="&#x13c;" horiz-adv-x="266" 
d="M8 0l103 733h131l-103 -733h-131zM43 -277l-81 34l86 193l12 6l103 -42z" />
    <glyph glyph-name="Lcaron" unicode="&#x13d;" horiz-adv-x="547" 
d="M377 495l-74 29l96 197l12 6l89 -36zM118 708h138l-82 -583h316l-33 -125h-439z" />
    <glyph glyph-name="lcaron" unicode="&#x13e;" horiz-adv-x="379" 
d="M8 0l103 733h131l-103 -733h-131zM319 495l-74 29l96 197l12 6l89 -36z" />
    <glyph glyph-name="Ldot" unicode="&#x13f;" horiz-adv-x="546" 
d="M118 708h138l-82 -583h316l-33 -125h-439zM361 330q-15 14 -16 34.5t13 35.5t34.5 16t35.5 -13t16 -34.5t-13 -35.5t-34.5 -16t-35.5 13z" />
    <glyph glyph-name="ldot" unicode="&#x140;" horiz-adv-x="353" 
d="M8 0l103 733h131l-103 -733h-131zM271 354q-15 14 -16 34.5t13 35.5t34.5 16t35.5 -13t16 -34.5t-13 -35.5t-34.5 -16t-35.5 13z" />
    <glyph glyph-name="Lslash" unicode="&#x141;" horiz-adv-x="546" 
d="M174 125h316l-33 -125h-439l38 268l-78 -40l14 99l78 40l48 341h138l-37 -263l155 80l-13 -100l-156 -80z" />
    <glyph glyph-name="lslash" unicode="&#x142;" horiz-adv-x="266" 
d="M269 509l-14 -96l-63 -35l-53 -378h-131l42 300l-64 -35l13 97l65 35l47 336h131l-36 -258z" />
    <glyph glyph-name="Nacute" unicode="&#x143;" horiz-adv-x="773" 
d="M335 764l114 134h124l3 -8l-140 -126h-101zM18 0l99 708h125l192 -296q40 -61 102 -165h3q7 91 20 181l39 280h138l-101 -717h-95l-221 329q-52 77 -101 162h-3q-5 -93 -19 -185l-41 -297h-137z" />
    <glyph glyph-name="nacute" unicode="&#x144;" horiz-adv-x="578" 
d="M195 540l137 184h127l4 -8l-163 -176h-105zM70 449h129l-10 -74q72 93 168 93q74 0 110 -48t23 -137l-40 -283h-131l35 245q9 60 -6.5 85t-54.5 25q-47 0 -81.5 -38t-43.5 -104l-29 -213h-131z" />
    <glyph glyph-name="Ncommaaccent" unicode="&#x145;" horiz-adv-x="773" 
d="M18 0l99 708h125l192 -296q40 -61 102 -165h3q7 91 20 181l39 280h138l-101 -717h-95l-221 329q-52 77 -101 162h-3q-5 -93 -19 -185l-41 -297h-137zM317 -277l-81 34l86 193l12 6l103 -42z" />
    <glyph glyph-name="ncommaaccent" unicode="&#x146;" horiz-adv-x="578" 
d="M70 449h129l-10 -74q72 93 168 93q74 0 110 -48t23 -137l-40 -283h-131l35 245q9 60 -6.5 85t-54.5 25q-47 0 -81.5 -38t-43.5 -104l-29 -213h-131zM195 -277l-81 34l86 193l12 6l103 -42z" />
    <glyph glyph-name="Ncaron" unicode="&#x147;" horiz-adv-x="773" 
d="M388 764l-93 132l8 8h85l65 -89l90 89h88l5 -8l-130 -132h-118zM18 0l99 708h125l192 -296q40 -61 102 -165h3q7 91 20 181l39 280h138l-101 -717h-95l-221 329q-52 77 -101 162h-3q-5 -93 -19 -185l-41 -297h-137z" />
    <glyph glyph-name="ncaron" unicode="&#x148;" horiz-adv-x="578" 
d="M314 597l95 121h90l5 -9l-136 -175h-121l-86 175l7 9h86zM70 449h129l-10 -74q72 93 168 93q74 0 110 -48t23 -137l-40 -283h-131l35 245q9 60 -6.5 85t-54.5 25q-47 0 -81.5 -38t-43.5 -104l-29 -213h-131z" />
    <glyph glyph-name="Eng" unicode="&#x14a;" horiz-adv-x="773" 
d="M438 -230q-46 0 -81 15l27 105l8 4q22 -9 39 -9q27 0 42.5 18t22.5 61l10 74l-187 282q-52 77 -101 162h-3q-5 -93 -19 -185l-41 -297h-137l99 708h125l192 -296q43 -66 102 -166h3q7 93 20 182l39 280h138l-105 -745q-14 -99 -62 -146t-131 -47z" />
    <glyph glyph-name="eng" unicode="&#x14b;" horiz-adv-x="578" 
d="M357 468q74 0 110 -48t23 -137l-45 -320q-27 -193 -193 -193q-47 0 -82 15l27 103l8 3q19 -8 39 -8q31 0 47.5 20t23.5 71l39 271q9 60 -6.5 85t-54.5 25q-47 0 -81.5 -38t-43.5 -104l-29 -213h-131l62 449h129l-10 -74q72 93 168 93z" />
    <glyph glyph-name="Omacron" unicode="&#x14c;" horiz-adv-x="855" 
d="M357 796l12 82h301l-12 -82h-301zM371 -19q-148 0 -241.5 89t-93.5 231q0 177 126.5 301.5t305.5 124.5q149 0 241.5 -88.5t92.5 -230.5q0 -115 -58.5 -213.5t-157.5 -156t-215 -57.5zM382 110q111 0 192.5 84.5t81.5 201.5q0 90 -55.5 146t-144.5 56
q-113 0 -193.5 -83.5t-80.5 -201.5q0 -90 56 -146.5t144 -56.5z" />
    <glyph glyph-name="omacron" unicode="&#x14d;" horiz-adv-x="576" 
d="M178 569l11 82h301l-11 -82h-301zM233 -19q-99 0 -161 59t-62 153q0 113 83 194.5t201 81.5q98 0 159.5 -59t61.5 -152q0 -113 -83.5 -195t-198.5 -82zM241 93q58 0 100.5 47t42.5 109q0 47 -27.5 77t-71.5 30q-60 0 -102 -46t-42 -109q0 -47 28 -77.5t72 -30.5z" />
    <glyph glyph-name="Obreve" unicode="&#x14e;" horiz-adv-x="855" 
d="M501 794q-73 0 -113.5 35.5t-36.5 98.5l9 8h71q4 -60 78 -60q75 0 94 60h71l8 -8q-14 -64 -62 -99t-119 -35zM371 -19q-148 0 -241.5 89t-93.5 231q0 177 126.5 301.5t305.5 124.5q149 0 241.5 -88.5t92.5 -230.5q0 -115 -58.5 -213.5t-157.5 -156t-215 -57.5zM382 110
q111 0 192.5 84.5t81.5 201.5q0 90 -55.5 146t-144.5 56q-113 0 -193.5 -83.5t-80.5 -201.5q0 -90 56 -146.5t144 -56.5z" />
    <glyph glyph-name="obreve" unicode="&#x14f;" horiz-adv-x="576" 
d="M320 535q-73 0 -113.5 35.5t-36.5 98.5l9 8h71q4 -60 78 -60q75 0 94 60h71l8 -8q-14 -64 -62 -99t-119 -35zM233 -19q-99 0 -161 59t-62 153q0 113 83 194.5t201 81.5q98 0 159.5 -59t61.5 -152q0 -113 -83.5 -195t-198.5 -82zM241 93q58 0 100.5 47t42.5 109
q0 47 -27.5 77t-71.5 30q-60 0 -102 -46t-42 -109q0 -47 28 -77.5t72 -30.5z" />
    <glyph glyph-name="Ohungarumlaut" unicode="&#x150;" horiz-adv-x="855" 
d="M341 764l113 134h124l3 -8l-139 -126h-101zM536 764l114 134h123l4 -8l-140 -126h-101zM371 -19q-148 0 -241.5 89t-93.5 231q0 177 126.5 301.5t305.5 124.5q149 0 241.5 -88.5t92.5 -230.5q0 -115 -58.5 -213.5t-157.5 -156t-215 -57.5zM382 110q111 0 192.5 84.5
t81.5 201.5q0 90 -55.5 146t-144.5 56q-113 0 -193.5 -83.5t-80.5 -201.5q0 -90 56 -146.5t144 -56.5z" />
    <glyph glyph-name="ohungarumlaut" unicode="&#x151;" horiz-adv-x="576" 
d="M173 534l133 184h124l4 -8l-160 -176h-101zM364 534l134 184h123l4 -8l-160 -176h-101zM233 -19q-99 0 -161 59t-62 153q0 113 83 194.5t201 81.5q98 0 159.5 -59t61.5 -152q0 -113 -83.5 -195t-198.5 -82zM241 93q58 0 100.5 47t42.5 109q0 47 -27.5 77t-71.5 30
q-60 0 -102 -46t-42 -109q0 -47 28 -77.5t72 -30.5z" />
    <glyph glyph-name="OE" unicode="&#x152;" horiz-adv-x="1029" 
d="M929 303h-276l-25 -183h303l-30 -120h-403q-63 -19 -127 -19q-148 0 -241.5 89t-93.5 231q0 177 126.5 301.5t305.5 124.5q63 0 123 -19h404l2 -120h-304l-24 -169h276zM182 313q0 -90 56 -146.5t144 -56.5q61 0 111 29l61 437q-44 22 -98 22q-113 0 -193.5 -83.5
t-80.5 -201.5z" />
    <glyph glyph-name="oe" unicode="&#x153;" horiz-adv-x="923" 
d="M233 -19q-99 0 -161 59t-62 153q0 113 83 194.5t201 81.5t172 -85h2q70 84 183 84q96 0 152 -54t56 -148q0 -35 -8 -62h-339q-2 -15 0 -27q1 -46 27 -71.5t69 -25.5q62 0 111 63l9 2l98 -43q-79 -121 -231 -121q-121 0 -170 85h-2q-77 -85 -190 -85zM526 273l206 -1
q4 47 -18.5 74t-66.5 27q-43 0 -74.5 -26.5t-46.5 -73.5zM241 93q58 0 100.5 47t42.5 109q0 47 -27.5 77t-71.5 30q-60 0 -102 -46t-42 -109q0 -47 28 -77.5t72 -30.5z" />
    <glyph glyph-name="Racute" unicode="&#x154;" horiz-adv-x="637" 
d="M479 890l-140 -126h-101l114 134h124zM418 303l164 -286l-9 -17h-139l-152 282h-85l-40 -282h-139l99 707h232q121 0 179.5 -50.5t49.5 -150.5q-5 -75 -46.5 -127.5t-113.5 -75.5zM241 593l-29 -202h81q70 0 106.5 25t41.5 79q7 52 -22 75t-98 23h-80z" />
    <glyph glyph-name="racute" unicode="&#x155;" horiz-adv-x="436" 
d="M150 540l137 184h127l4 -8l-163 -176h-105zM8 0l63 449h122l-11 -80q66 99 145 99q82 0 95 -96l-116 -59l-8 3q-6 34 -34 34q-32 0 -60.5 -42.5t-36.5 -105.5l-28 -202h-131z" />
    <glyph glyph-name="Rcommaaccent" unicode="&#x156;" horiz-adv-x="637" 
d="M418 303l164 -286l-9 -17h-139l-152 282h-85l-40 -282h-139l99 707h232q121 0 179.5 -50.5t49.5 -150.5q-5 -75 -46.5 -127.5t-113.5 -75.5zM241 593l-29 -202h81q70 0 106.5 25t41.5 79q7 52 -22 75t-98 23h-80zM253 -50l12 6l103 -42l-120 -191l-81 34z" />
    <glyph glyph-name="rcommaaccent" unicode="&#x157;" horiz-adv-x="436" 
d="M8 0l63 449h122l-11 -80q66 99 145 99q82 0 95 -96l-116 -59l-8 3q-6 34 -34 34q-32 0 -60.5 -42.5t-36.5 -105.5l-28 -202h-131zM22 -277l-81 34l86 193l12 6l103 -42z" />
    <glyph glyph-name="Rcaron" unicode="&#x158;" horiz-adv-x="637" 
d="M409 764h-118l-93 132l8 8h85l65 -89l90 89h88l5 -8zM418 303l164 -286l-9 -17h-139l-152 282h-85l-40 -282h-139l99 707h232q121 0 179.5 -50.5t49.5 -150.5q-5 -75 -46.5 -127.5t-113.5 -75.5zM241 593l-29 -202h81q70 0 106.5 25t41.5 79q7 52 -22 75t-98 23h-80z" />
    <glyph glyph-name="rcaron" unicode="&#x159;" horiz-adv-x="436" 
d="M269 597l95 121h90l5 -9l-136 -175h-121l-86 175l7 9h86zM8 0l63 449h122l-11 -80q66 99 145 99q82 0 95 -96l-116 -59l-8 3q-6 34 -34 34q-32 0 -60.5 -42.5t-36.5 -105.5l-28 -202h-131z" />
    <glyph glyph-name="Sacute" unicode="&#x15a;" horiz-adv-x="583" 
d="M237 764l114 134h124l3 -8l-140 -126h-101zM236 -19q-177 0 -245 148l106 66l18 -5q21 -48 51.5 -69.5t77.5 -21.5q53 0 88.5 30t35.5 73q0 32 -27.5 56.5t-98.5 57.5q-89 39 -128.5 84t-39.5 109q0 96 70.5 157t185.5 61q78 0 135.5 -31.5t86.5 -91.5l-104 -66l-17 5
q-35 66 -112 66q-46 0 -74 -23t-28 -60q0 -26 25 -47.5t100 -58.5q93 -44 132 -89.5t39 -108.5q0 -102 -78.5 -171.5t-198.5 -69.5z" />
    <glyph glyph-name="sacute" unicode="&#x15b;" horiz-adv-x="430" 
d="M133 540l137 184h127l4 -8l-163 -176h-105zM155 -19q-137 0 -178 108l84 50l7 -2q26 -64 89 -64q32 0 52.5 14.5t20.5 37.5q0 17 -18 31t-60 31q-65 25 -94 55.5t-29 73.5q0 66 53.5 109t135.5 43q62 0 106.5 -27t58.5 -73l-80 -47l-8 2q-19 53 -77 53q-27 0 -45 -14
t-18 -34q0 -16 16 -29t63 -33q65 -25 93 -56t28 -75q0 -68 -55.5 -111t-144.5 -43z" />
    <glyph glyph-name="Scedilla" unicode="&#x15e;" horiz-adv-x="583" 
d="M342 420q93 -44 132 -89.5t39 -108.5q0 -87 -58.5 -152t-154.5 -83l-43 -54q16 4 30 4q34 0 55 -18.5t21 -47.5q0 -47 -39.5 -76t-104.5 -29q-64 0 -109 25l28 53l9 3q31 -21 72 -21q25 0 39.5 10.5t14.5 27.5q0 26 -44 26q-25 0 -43 -7l-22 23l62 75q-168 4 -235 148
l106 66l18 -5q21 -48 51.5 -69.5t77.5 -21.5q53 0 88.5 30t35.5 73q0 32 -27.5 56.5t-98.5 57.5q-89 39 -128.5 84t-39.5 109q0 96 70.5 157t185.5 61q78 0 135.5 -31.5t86.5 -91.5l-104 -66l-17 5q-35 66 -112 66q-46 0 -74 -23t-28 -60q0 -26 25 -47.5t100 -58.5z" />
    <glyph glyph-name="scedilla" unicode="&#x15f;" horiz-adv-x="430" 
d="M234 266q65 -25 93 -56t28 -75q0 -59 -42.5 -99.5t-113.5 -51.5l-41 -51q16 4 30 4q34 0 55 -18.5t21 -47.5q0 -47 -39.5 -76t-104.5 -29q-64 0 -109 25l28 53l9 3q32 -21 72 -21q25 0 39.5 10.5t14.5 27.5q0 26 -44 26q-25 0 -43 -7l-22 23l62 76q-114 11 -150 107
l84 50l7 -2q26 -64 89 -64q32 0 52.5 14.5t20.5 37.5q0 17 -18 31t-60 31q-65 25 -94 55.5t-29 73.5q0 66 53.5 109t135.5 43q62 0 106.5 -27t58.5 -73l-80 -47l-8 2q-19 53 -77 53q-27 0 -45 -14t-18 -34q0 -16 16 -29t63 -33z" />
    <glyph glyph-name="Scaron" unicode="&#x160;" horiz-adv-x="583" 
d="M290 764l-93 132l8 8h85l65 -89l90 89h88l5 -8l-130 -132h-118zM236 -19q-177 0 -245 148l106 66l18 -5q21 -48 51.5 -69.5t77.5 -21.5q53 0 88.5 30t35.5 73q0 32 -27.5 56.5t-98.5 57.5q-89 39 -128.5 84t-39.5 109q0 96 70.5 157t185.5 61q78 0 135.5 -31.5
t86.5 -91.5l-104 -66l-17 5q-35 66 -112 66q-46 0 -74 -23t-28 -60q0 -26 25 -47.5t100 -58.5q93 -44 132 -89.5t39 -108.5q0 -102 -78.5 -171.5t-198.5 -69.5z" />
    <glyph glyph-name="scaron" unicode="&#x161;" horiz-adv-x="430" 
d="M252 597l95 121h90l5 -9l-136 -175h-121l-86 175l7 9h86zM155 -19q-137 0 -178 108l84 50l7 -2q26 -64 89 -64q32 0 52.5 14.5t20.5 37.5q0 17 -18 31t-60 31q-65 25 -94 55.5t-29 73.5q0 66 53.5 109t135.5 43q62 0 106.5 -27t58.5 -73l-80 -47l-8 2q-19 53 -77 53
q-27 0 -45 -14t-18 -34q0 -16 16 -29t63 -33q65 -25 93 -56t28 -75q0 -68 -55.5 -111t-144.5 -43z" />
    <glyph glyph-name="uni0162" unicode="&#x162;" horiz-adv-x="617" 
d="M50 708h597l-18 -125h-229l-82 -583h-26l-54 -67q16 4 30 4q34 0 54.5 -18.5t20.5 -47.5q0 -47 -39.5 -76t-104.5 -29q-63 0 -108 25l28 53l9 3q32 -21 72 -21q25 0 39.5 10.5t14.5 27.5q0 26 -44 26q-25 0 -43 -7l-22 23l78 94h-44l82 583h-229z" />
    <glyph glyph-name="uni0163" unicode="&#x163;" horiz-adv-x="371" 
d="M217 347l-26 -181q-6 -41 5.5 -57t44.5 -16q21 0 50 12l8 -4l-10 -103q-44 -17 -100 -17l-39 -48q16 4 30 4q34 0 55 -18.5t21 -47.5q0 -47 -39.5 -76t-104.5 -29q-64 0 -109 25l28 53l9 3q31 -21 72 -21q25 0 39.5 10.5t14.5 27.5q0 26 -44 26q-25 0 -43 -7l-22 23
l69 84q-85 29 -69 147l29 210h-81l14 102h82l17 119l111 61h27l-25 -180h120l-15 -102h-119z" />
    <glyph glyph-name="Tcaron" unicode="&#x164;" horiz-adv-x="617" 
d="M301 764l-93 132l8 8h85l65 -89l90 89h88l5 -8l-130 -132h-118zM261 583h-229l18 125h597l-18 -125h-229l-82 -583h-139z" />
    <glyph glyph-name="tcaron" unicode="&#x165;" horiz-adv-x="452" 
d="M365 495l-74 29l96 197l12 6l89 -36zM299 101l-10 -103q-44 -17 -100 -17q-75 0 -109 39.5t-23 116.5l29 210h-81l14 102h82l17 119l111 61h27l-25 -180h120l-15 -102h-119l-26 -181q-6 -41 5.5 -57t44.5 -16q21 0 50 12z" />
    <glyph glyph-name="Tbar" unicode="&#x166;" horiz-adv-x="617" 
d="M629 583h-229l-26 -188h117l-13 -95h-118l-42 -300h-139l42 300h-117l13 95h118l26 188h-229l18 125h597z" />
    <glyph glyph-name="tbar" unicode="&#x167;" horiz-adv-x="371" 
d="M336 347h-119l-9 -63h105l-8 -55h-105l-9 -63q-6 -41 5.5 -57t44.5 -16q21 0 50 12l8 -4l-10 -103q-44 -17 -100 -17q-75 0 -109 39.5t-23 116.5l13 92h-68l8 55h67l9 63h-81l14 102h82l17 119l111 61h27l-25 -180h120z" />
    <glyph glyph-name="Utilde" unicode="&#x168;" horiz-adv-x="731" 
d="M491 802q40 0 73 34.5t46 90.5h-64l-8 -6q-14 -39 -42 -39q-18 0 -62 22.5t-71 22.5q-40 0 -72.5 -34.5t-46.5 -90.5h65l9 6q13 38 41 38q18 0 60 -22t72 -22zM312 -19q-300 0 -255 317l58 410h138l-57 -407q-15 -101 15.5 -146t109.5 -45q82 0 126 46.5t59 149.5l56 402
h138l-58 -419q-21 -149 -105.5 -228.5t-224.5 -79.5z" />
    <glyph glyph-name="utilde" unicode="&#x169;" horiz-adv-x="568" 
d="M371 543q40 0 73 34.5t46 90.5h-64l-8 -6q-14 -39 -42 -39q-18 0 -62 22.5t-71 22.5q-40 0 -72.5 -34.5t-46.5 -90.5h65l9 6q13 38 41 38q18 0 60 -22t72 -22zM160 -19q-73 0 -107 49.5t-21 139.5l39 279h132l-36 -252q-16 -103 55 -103q43 0 77 38t42 99l31 218h131
l-63 -449h-129l11 72q-70 -91 -162 -91z" />
    <glyph glyph-name="Umacron" unicode="&#x16a;" horiz-adv-x="731" 
d="M267 796l12 82h301l-12 -82h-301zM312 -19q-300 0 -255 317l58 410h138l-57 -407q-15 -101 15.5 -146t109.5 -45q82 0 126 46.5t59 149.5l56 402h138l-58 -419q-21 -149 -105.5 -228.5t-224.5 -79.5z" />
    <glyph glyph-name="umacron" unicode="&#x16b;" horiz-adv-x="568" 
d="M149 569l11 82h301l-11 -82h-301zM160 -19q-73 0 -107 49.5t-21 139.5l39 279h132l-36 -252q-16 -103 55 -103q43 0 77 38t42 99l31 218h131l-63 -449h-129l11 72q-70 -91 -162 -91z" />
    <glyph glyph-name="Ubreve" unicode="&#x16c;" horiz-adv-x="731" 
d="M411 794q-73 0 -113.5 35.5t-36.5 98.5l9 8h71q4 -60 78 -60q75 0 94 60h71l8 -8q-14 -64 -62 -99t-119 -35zM312 -19q-300 0 -255 317l58 410h138l-57 -407q-15 -101 15.5 -146t109.5 -45q82 0 126 46.5t59 149.5l56 402h138l-58 -419q-21 -149 -105.5 -228.5
t-224.5 -79.5z" />
    <glyph glyph-name="ubreve" unicode="&#x16d;" horiz-adv-x="568" 
d="M291 535q-73 0 -113.5 35.5t-36.5 98.5l9 8h71q4 -60 78 -60q75 0 94 60h71l8 -8q-14 -64 -62 -99t-119 -35zM160 -19q-73 0 -107 49.5t-21 139.5l39 279h132l-36 -252q-16 -103 55 -103q43 0 77 38t42 99l31 218h131l-63 -449h-129l11 72q-70 -91 -162 -91z" />
    <glyph glyph-name="Uring" unicode="&#x16e;" horiz-adv-x="731" 
d="M412 753q-39 0 -65 25t-26 63q0 48 34.5 82.5t83.5 34.5q40 0 65.5 -25t25.5 -63q0 -47 -35 -82t-83 -35zM418 798q27 0 46.5 19.5t19.5 46.5q0 22 -14 35.5t-36 13.5q-28 0 -47.5 -19t-19.5 -46q0 -22 14.5 -36t36.5 -14zM312 -19q-300 0 -255 317l58 410h138l-57 -407
q-15 -101 15.5 -146t109.5 -45q82 0 126 46.5t59 149.5l56 402h138l-58 -419q-21 -149 -105.5 -228.5t-224.5 -79.5z" />
    <glyph glyph-name="uring" unicode="&#x16f;" horiz-adv-x="568" 
d="M296 523q-39 0 -65 25t-26 63q0 48 34.5 82.5t83.5 34.5q40 0 65.5 -25t25.5 -63q0 -47 -35 -82t-83 -35zM302 568q27 0 46.5 19t19.5 47q0 22 -14 35.5t-36 13.5q-28 0 -47.5 -19t-19.5 -46q0 -22 14 -36t37 -14zM160 -19q-73 0 -107 49.5t-21 139.5l39 279h132
l-36 -252q-16 -103 55 -103q43 0 77 38t42 99l31 218h131l-63 -449h-129l11 72q-70 -91 -162 -91z" />
    <glyph glyph-name="Uhungarumlaut" unicode="&#x170;" horiz-adv-x="731" 
d="M251 764l113 134h124l3 -8l-139 -126h-101zM446 764l114 134h123l4 -8l-140 -126h-101zM312 -19q-300 0 -255 317l58 410h138l-57 -407q-15 -101 15.5 -146t109.5 -45q82 0 126 46.5t59 149.5l56 402h138l-58 -419q-21 -149 -105.5 -228.5t-224.5 -79.5z" />
    <glyph glyph-name="uhungarumlaut" unicode="&#x171;" horiz-adv-x="568" 
d="M144 534l133 184h124l4 -8l-160 -176h-101zM335 534l134 184h123l4 -8l-160 -176h-101zM160 -19q-73 0 -107 49.5t-21 139.5l39 279h132l-36 -252q-16 -103 55 -103q43 0 77 38t42 99l31 218h131l-63 -449h-129l11 72q-70 -91 -162 -91z" />
    <glyph glyph-name="Uogonek" unicode="&#x172;" horiz-adv-x="731" 
d="M562 708h138l-58 -419q-32 -228 -207 -289q-95 -68 -95 -124q0 -31 33 -31q29 0 54 19h6l14 -66q-49 -27 -105 -27q-45 0 -71 20t-26 55q0 71 93 136q-9 -1 -26 -1q-300 0 -255 317l58 410h138l-57 -407q-15 -101 15.5 -146t109.5 -45q82 0 126 46.5t59 149.5z" />
    <glyph glyph-name="uogonek" unicode="&#x173;" horiz-adv-x="568" 
d="M420 0q-95 -68 -95 -124q0 -31 33 -31q29 0 54 19h6l14 -66q-50 -27 -105 -27q-45 0 -71 20t-26 55q0 81 121 154h-40l11 72q-70 -91 -162 -91q-73 0 -107 49.5t-21 139.5l39 279h132l-36 -252q-16 -103 55 -103q43 0 77 38t42 99l31 218h131l-63 -449h-20z" />
    <glyph glyph-name="Wcircumflex" unicode="&#x174;" horiz-adv-x="981" 
d="M544 847l-91 -83h-89l-5 9l130 125h118l93 -125l-8 -9h-84zM169 -9l-117 717h149l43 -355q7 -56 16 -155h3q30 72 68 156l159 350h78l61 -350q17 -106 23 -156h3q19 54 59 155l143 355h153l-318 -717h-114l-59 331q-18 101 -22 130h-3q-7 -17 -19 -43.5t-21.5 -47.5
t-17.5 -39l-153 -331h-114z" />
    <glyph glyph-name="wcircumflex" unicode="&#x175;" horiz-adv-x="733" 
d="M405 655l-95 -121h-90l-6 9l136 175h122l86 -175l-8 -9h-85zM113 -10l-96 459h136l40 -287h2l144 283h61l63 -283h2l123 287h137l-224 -459h-88l-67 273h-2l-144 -273h-87z" />
    <glyph glyph-name="Ycircumflex" unicode="&#x176;" horiz-adv-x="634" 
d="M371 847l-91 -83h-89l-5 9l130 125h118l93 -125l-8 -9h-84zM188 0l40 285l-190 423h159l62 -168q6 -18 23.5 -66t25.5 -75h4l89 140l110 169h165l-310 -423l-40 -285h-138z" />
    <glyph glyph-name="ycircumflex" unicode="&#x177;" horiz-adv-x="517" 
d="M290 655l-95 -121h-90l-6 9l136 175h122l86 -175l-8 -9h-85zM-22 -218l157 253l-125 414h149l57 -297h2l149 297h149l-394 -667h-144z" />
    <glyph glyph-name="Ydieresis" unicode="&#x178;" horiz-adv-x="634" 
d="M266 779q-29 0 -49 20t-20 49q0 28 20.5 48t48.5 20t47.5 -20t19.5 -48q0 -29 -19 -49t-48 -20zM472 779q-29 0 -48.5 20t-19.5 49q0 28 20 48t48 20t48.5 -20t20.5 -48q0 -29 -20 -49t-49 -20zM188 0l40 285l-190 423h159l62 -168q6 -18 23.5 -66t25.5 -75h4l89 140
l110 169h165l-310 -423l-40 -285h-138z" />
    <glyph glyph-name="Zacute" unicode="&#x179;" horiz-adv-x="667" 
d="M294 764l114 134h124l3 -8l-140 -126h-101zM433 584h-370l18 124h610l-3 -19l-477 -562h381l-18 -127h-619l3 19z" />
    <glyph glyph-name="zacute" unicode="&#x17a;" horiz-adv-x="476" 
d="M148 540l137 184h127l4 -8l-163 -176h-105zM238 345h-216l15 104h418l-2 -10l-273 -334h225l-15 -105h-426l1 10z" />
    <glyph glyph-name="Zdotaccent" unicode="&#x17b;" horiz-adv-x="667" 
d="M420 772q-35 0 -58 21.5t-23 54.5t23 54t58 21t58 -21.5t23 -53.5q0 -33 -23 -54.5t-58 -21.5zM433 584h-370l18 124h610l-3 -19l-477 -562h381l-18 -127h-619l3 19z" />
    <glyph glyph-name="zdotaccent" unicode="&#x17c;" horiz-adv-x="476" 
d="M263 534q-35 0 -58 21.5t-23 54.5q0 32 23 53.5t58 21.5t58 -21.5t23 -54.5q0 -32 -23 -53.5t-58 -21.5zM238 345h-216l15 104h418l-2 -10l-273 -334h225l-15 -105h-426l1 10z" />
    <glyph glyph-name="Zcaron" unicode="&#x17d;" horiz-adv-x="667" 
d="M347 764l-93 132l8 8h85l65 -89l90 89h88l5 -8l-130 -132h-118zM433 584h-370l18 124h610l-3 -19l-477 -562h381l-18 -127h-619l3 19z" />
    <glyph glyph-name="zcaron" unicode="&#x17e;" horiz-adv-x="476" 
d="M267 597l95 121h90l5 -9l-136 -175h-121l-86 175l7 9h86zM238 345h-216l15 104h418l-2 -10l-273 -334h225l-15 -105h-426l1 10z" />
    <glyph glyph-name="florin" unicode="&#x192;" horiz-adv-x="700" 
d="M161 -155q-42 0 -81 15l26 103l9 3q22 -8 38 -8q31 0 47.5 20.5t23.5 71.5l40 280h-81l14 102h81l13 90q16 111 58 158t124 47q46 0 86 -14l-21 -105l-9 -3q-20 10 -41 10q-28 0 -43.5 -20.5t-22.5 -71.5l-13 -91h98l-14 -102h-98l-41 -291q-26 -194 -193 -194z" />
    <glyph glyph-name="Aringacute" unicode="&#x1fa;" horiz-adv-x="708" 
d="M565 1120l-140 -126h-101l114 134h124zM400 753q-39 0 -65 25t-26 63q0 48 34.5 82.5t83.5 34.5q40 0 65.5 -25t25.5 -63q0 -47 -35 -82t-83 -35zM422 913q-28 0 -47.5 -19t-19.5 -46q0 -22 14.5 -36t36.5 -14q27 0 46.5 19.5t19.5 46.5q0 22 -14 35.5t-36 13.5zM500 0
l-35 151h-291l-77 -151h-161l387 708h147l184 -708h-154zM228 259h213l-39 168q-14 65 -23 142h-3q-27 -71 -62 -141z" />
    <glyph glyph-name="aringacute" unicode="&#x1fb;" horiz-adv-x="590" 
d="M246 779l137 184h127l4 -8l-163 -176h-105zM319 523q-39 0 -65 25t-26 63q0 48 34.5 82.5t83.5 34.5q40 0 65.5 -25t25.5 -63q0 -47 -35 -82t-83 -35zM325 568q27 0 46.5 19t19.5 47q0 22 -14 35.5t-36 13.5q-28 0 -47.5 -19t-19.5 -46q0 -22 14 -36t37 -14zM176 -19
q-76 0 -121.5 52.5t-45.5 143.5q0 118 67.5 204.5t165.5 86.5q46 0 84 -25t59 -70l11 76h129l-63 -449h-131l3 17q3 27 10 53q-32 -42 -77 -65.5t-91 -23.5zM229 92q57 0 97.5 45.5t40.5 112.5q0 48 -26.5 77.5t-67.5 29.5q-55 0 -93.5 -47t-38.5 -118q0 -47 23.5 -73.5
t64.5 -26.5z" />
    <glyph glyph-name="AEacute" unicode="&#x1fc;" horiz-adv-x="943" 
d="M568 764l114 134h124l3 -8l-140 -126h-101zM567 303l-26 -183h304l-30 -120h-428l21 151h-207l-103 -151h-162l480 708h493l2 -120h-304l-24 -169h276l-16 -116h-276zM266 259h157l22 157q8 50 33 175h-3q-30 -64 -100 -179z" />
    <glyph glyph-name="aeacute" unicode="&#x1fd;" horiz-adv-x="806" 
d="M334 540l137 184h127l4 -8l-163 -176h-105zM105 -19q-58 0 -87.5 26.5t-29.5 71.5q0 76 75.5 119t220.5 63l3 25q9 76 -53 76t-121 -67l-9 -1l-72 53q41 55 104 88t133 33q95 0 120 -67h2q64 67 164 67q83 0 135.5 -55t52.5 -147q0 -35 -8 -62h-330v-20
q-1 -49 23.5 -76.5t62.5 -27.5q63 0 112 63l9 2l98 -43q-80 -121 -231 -121q-55 0 -102.5 25t-72.5 64q-97 -89 -199 -89zM419 272l197 -1q4 47 -18.5 74.5t-62.5 27.5t-71 -27t-45 -74zM162 63q50 0 121 60q-9 35 -5 72q-86 -13 -124 -35t-38 -59q0 -38 46 -38z" />
    <glyph glyph-name="Oslashacute" unicode="&#x1fe;" horiz-adv-x="855" 
d="M632 890l-140 -126h-101l114 134h124zM725 623q77 -86 77 -215q0 -115 -58.5 -213.5t-157.5 -156t-215 -57.5q-127 0 -216 67l-62 -62l-42 35l64 64q-79 87 -79 216q0 177 126.5 301.5t305.5 124.5q129 0 217 -68l62 63l41 -36zM182 313q0 -72 37 -123l364 367
q-52 41 -127 41q-113 0 -193.5 -83.5t-80.5 -201.5zM382 110q111 0 192.5 84.5t81.5 201.5q0 70 -35 122l-365 -368q54 -40 126 -40z" />
    <glyph glyph-name="oslashacute" unicode="&#x1ff;" horiz-adv-x="576" 
d="M214 540l137 184h127l4 -8l-163 -176h-105zM233 -19q-77 0 -135 39l-34 -34l-41 33l36 36q-49 57 -49 138q0 113 83 194.5t201 81.5q77 0 136 -40l34 35l39 -35l-35 -35q47 -56 47 -136q0 -113 -83.5 -195t-198.5 -82zM152 149l190 192q-23 17 -56 17q-60 0 -103 -46.5
t-43 -111.5q0 -28 12 -51zM241 91q58 0 101 47.5t43 110.5q0 26 -11 50l-189 -191q25 -17 56 -17z" />
    <glyph glyph-name="Scommaaccent" unicode="&#x218;" horiz-adv-x="583" 
d="M236 -19q-177 0 -245 148l106 66l18 -5q21 -48 51.5 -69.5t77.5 -21.5q53 0 88.5 30t35.5 73q0 32 -27.5 56.5t-98.5 57.5q-89 39 -128.5 84t-39.5 109q0 96 70.5 157t185.5 61q78 0 135.5 -31.5t86.5 -91.5l-104 -66l-17 5q-35 66 -112 66q-46 0 -74 -23t-28 -60
q0 -26 25 -47.5t100 -58.5q93 -44 132 -89.5t39 -108.5q0 -102 -78.5 -171.5t-198.5 -69.5zM235 -277l-81 34l86 193l12 6l103 -42z" />
    <glyph glyph-name="scommaaccent" unicode="&#x219;" horiz-adv-x="430" 
d="M155 -19q-137 0 -178 108l84 50l7 -2q26 -64 89 -64q32 0 52.5 14.5t20.5 37.5q0 17 -18 31t-60 31q-65 25 -94 55.5t-29 73.5q0 66 53.5 109t135.5 43q62 0 106.5 -27t58.5 -73l-80 -47l-8 2q-19 53 -77 53q-27 0 -45 -14t-18 -34q0 -16 16 -29t63 -33q65 -25 93 -56
t28 -75q0 -68 -55.5 -111t-144.5 -43zM136 -277l-81 34l86 193l12 6l103 -42z" />
    <glyph glyph-name="uni021A" unicode="&#x21a;" horiz-adv-x="617" 
d="M261 583h-229l18 125h597l-18 -125h-229l-82 -583h-139zM227 -277l-81 34l86 193l12 6l103 -42z" />
    <glyph glyph-name="uni021B" unicode="&#x21b;" horiz-adv-x="371" 
d="M299 101l-10 -103q-44 -17 -100 -17q-75 0 -109 39.5t-23 116.5l29 210h-81l14 102h82l17 119l111 61h27l-25 -180h120l-15 -102h-119l-26 -181q-6 -41 5.5 -57t44.5 -16q21 0 50 12zM128 -277l-81 34l86 193l12 6l103 -42z" />
    <glyph glyph-name="uni0237" unicode="&#x237;" horiz-adv-x="300" 
d="M-26 -230q-46 0 -81 15l26 103l9 3q19 -8 38 -8q31 0 47.5 20.5t24.5 70.5l66 475h131l-68 -486q-14 -99 -62 -146t-131 -47z" />
    <glyph glyph-name="uni02BC" unicode="&#x2bc;" horiz-adv-x="259" 
d="M113 454l-84 33l120 252l12 6l109 -44z" />
    <glyph glyph-name="circumflex" unicode="&#x2c6;" horiz-adv-x="403" 
d="M265 655l-94 -121h-91l-5 9l136 175h121l86 -175l-7 -9h-86z" />
    <glyph glyph-name="caron" unicode="&#x2c7;" horiz-adv-x="403" 
d="M252 597l95 121h89l6 -9l-136 -175h-122l-86 175l8 9h86z" />
    <glyph glyph-name="breve" unicode="&#x2d8;" horiz-adv-x="392" 
d="M242 535q-73 0 -113 35.5t-36 98.5l8 8h72q4 -60 78 -60q75 0 94 60h71l8 -8q-14 -64 -62 -99t-120 -35z" />
    <glyph glyph-name="dotaccent" unicode="&#x2d9;" horiz-adv-x="224" 
d="M166 534q-35 0 -58 21.5t-23 54.5q0 32 23 53.5t58 21.5t58 -21.5t23 -54.5q0 -32 -23 -53.5t-58 -21.5z" />
    <glyph glyph-name="ring" unicode="&#x2da;" horiz-adv-x="267" 
d="M176 523q-39 0 -65 25t-26 63q0 48 34.5 82.5t83.5 34.5q40 0 65.5 -25t25.5 -63q0 -47 -35 -82t-83 -35zM182 568q27 0 46.5 19t19.5 47q0 22 -14 35.5t-36 13.5q-28 0 -47.5 -19t-19.5 -46q0 -22 14 -36t37 -14z" />
    <glyph glyph-name="ogonek" unicode="&#x2db;" horiz-adv-x="270" 
d="M75 -229q-45 0 -71 20t-26 55q0 81 121 154h69q-95 -68 -95 -124q0 -31 33 -31q29 0 54 19h6l14 -66q-50 -27 -105 -27z" />
    <glyph glyph-name="tilde" unicode="&#x2dc;" horiz-adv-x="409" 
d="M322 543q40 0 73 34.5t46 90.5h-64l-8 -6q-14 -39 -42 -39q-19 0 -62 22.5t-71 22.5q-40 0 -72.5 -34.5t-46.5 -90.5h65l9 6q13 38 41 38q18 0 60 -22t72 -22z" />
    <glyph glyph-name="hungarumlaut" unicode="&#x2dd;" horiz-adv-x="488" 
d="M74 534l133 184h124l4 -8l-160 -176h-101zM265 534l134 184h123l4 -8l-160 -176h-101z" />
    <glyph glyph-name="gravecomb" unicode="&#x300;" horiz-adv-x="0" 
d="M-147 534l-146 176l5 8h124l117 -184h-100z" />
    <glyph glyph-name="acutecomb" unicode="&#x301;" horiz-adv-x="0" 
d="M-274 534l137 184h127l4 -8l-163 -176h-105z" />
    <glyph glyph-name="uni0302" unicode="&#x302;" horiz-adv-x="0" 
d="M-196 655l-95 -121h-90l-6 9l136 175h122l86 -175l-8 -9h-85z" />
    <glyph glyph-name="tildecomb" unicode="&#x303;" horiz-adv-x="0" 
d="M-87 543q40 0 73 34.5t46 90.5h-64l-8 -6q-14 -39 -42 -39q-19 0 -62.5 22.5t-70.5 22.5q-40 0 -72.5 -34.5t-46.5 -90.5h65l9 6q13 38 41 38q18 0 60 -22t72 -22z" />
    <glyph glyph-name="uni0304" unicode="&#x304;" horiz-adv-x="0" 
d="M-337 569l11 82h301l-11 -82h-301z" />
    <glyph glyph-name="uni0306" unicode="&#x306;" horiz-adv-x="0" 
d="M-169 535q-73 0 -113.5 35.5t-36.5 98.5l9 8h71q4 -60 78 -60q75 0 94 60h71l8 -8q-14 -64 -62 -99t-119 -35z" />
    <glyph glyph-name="uni0307" unicode="&#x307;" horiz-adv-x="0" 
d="M-98 534q-35 0 -58 21.5t-23 54.5q0 32 23 53.5t58 21.5t58 -21.5t23 -54.5q0 -32 -23 -53.5t-58 -21.5z" />
    <glyph glyph-name="uni0308" unicode="&#x308;" horiz-adv-x="0" 
d="M-256 539q-29 0 -49 19.5t-20 48.5q0 28 20.5 48t48.5 20t47.5 -20t19.5 -48q0 -29 -19 -48.5t-48 -19.5zM-65 539q-29 0 -48.5 19.5t-19.5 48.5q0 28 20 48t48 20q29 0 49 -20t20 -48q0 -29 -20 -48.5t-49 -19.5z" />
    <glyph glyph-name="uni030A" unicode="&#x30a;" horiz-adv-x="0" 
d="M-91 523q-39 0 -65 25t-26 63q0 48 34.5 82.5t83.5 34.5q40 0 65.5 -25t25.5 -63q0 -47 -35 -82t-83 -35zM-85 568q27 0 46.5 19t19.5 47q0 22 -14 35.5t-36 13.5q-28 0 -47.5 -19t-19.5 -46q0 -22 14 -36t37 -14z" />
    <glyph glyph-name="uni030B" unicode="&#x30b;" horiz-adv-x="0" 
d="M-420 534l133 184h124l4 -8l-160 -176h-101zM-229 534l134 184h123l4 -8l-160 -176h-101z" />
    <glyph glyph-name="uni030C" unicode="&#x30c;" horiz-adv-x="0" 
d="M-209 597l95 121h90l5 -9l-136 -175h-121l-86 175l7 9h86z" />
    <glyph glyph-name="uni0312" unicode="&#x312;" horiz-adv-x="0" 
d="M-116 751l80 -33l-85 -193l-12 -6l-104 42z" />
    <glyph glyph-name="uni0315" unicode="&#x315;" horiz-adv-x="0" 
d="M-157 562l-81 34l86 193l12 6l103 -42z" />
    <glyph glyph-name="dotbelowcomb" unicode="&#x323;" horiz-adv-x="0" 
d="M-155 -253q-35 0 -58 21.5t-23 54.5q0 32 23 53.5t58 21.5t58 -21.5t23 -54.5q0 -32 -23 -53.5t-58 -21.5z" />
    <glyph glyph-name="uni0324" unicode="&#x324;" horiz-adv-x="0" 
d="M-343 -217q-29 0 -49 19.5t-20 48.5q0 28 20.5 48t48.5 20t47.5 -20t19.5 -48q0 -29 -19 -48.5t-48 -19.5zM-152 -217q-29 0 -48.5 19.5t-19.5 48.5q0 28 20 48t48 20q29 0 49 -20t20 -48q0 -29 -20 -48.5t-49 -19.5z" />
    <glyph glyph-name="uni0325" unicode="&#x325;" horiz-adv-x="0" 
d="M-204 -279q-39 0 -65 25t-26 63q0 48 34.5 82.5t83.5 34.5q40 0 65.5 -25t25.5 -63q0 -47 -35 -82t-83 -35zM-198 -234q27 0 46.5 19t19.5 47q0 22 -14 35.5t-36 13.5q-28 0 -47.5 -19t-19.5 -46q0 -22 14 -36t37 -14z" />
    <glyph glyph-name="uni0326" unicode="&#x326;" horiz-adv-x="0" 
d="M-142 -277l-81 34l86 193l12 6l103 -42z" />
    <glyph glyph-name="uni0327" unicode="&#x327;" horiz-adv-x="0" 
d="M-224 -234q-64 0 -109 25l28 53l9 3q32 -21 72 -21q25 0 39.5 10.5t14.5 27.5q0 26 -44 26q-25 0 -43 -7l-22 23l77 94h70l-54 -67q16 4 30 4q34 0 55 -18.5t21 -47.5q0 -47 -39.5 -76t-104.5 -29z" />
    <glyph glyph-name="uni0328" unicode="&#x328;" horiz-adv-x="0" 
d="M-195 -229q-45 0 -71 20t-26 55q0 81 121 154h69q-95 -68 -95 -124q0 -31 33 -31q29 0 54 19h6l14 -66q-50 -27 -105 -27z" />
    <glyph glyph-name="uni0330" unicode="&#x330;" horiz-adv-x="0" 
d="M-196 -227q40 0 73 34.5t46 90.5h-64l-8 -6q-14 -39 -42 -39q-18 0 -61.5 22.5t-71.5 22.5q-40 0 -72.5 -34.5t-46.5 -90.5h65l9 6q13 38 41 38q18 0 60 -22t72 -22z" />
    <glyph glyph-name="uni0331" unicode="&#x331;" horiz-adv-x="0" 
d="M-390 -192l11 82h301l-11 -82h-301z" />
    <glyph glyph-name="uni0335" unicode="&#x335;" horiz-adv-x="0" 
d="M-297 177l12 87h228l-12 -87h-228z" />
    <glyph glyph-name="uni0336" unicode="&#x336;" horiz-adv-x="0" 
d="M-610 177l12 87h710l-12 -87h-710z" />
    <glyph glyph-name="uni0337" unicode="&#x337;" horiz-adv-x="0" 
d="M-401 83l-40 69l371 214l40 -69z" />
    <glyph glyph-name="uni0338" unicode="&#x338;" horiz-adv-x="0" 
d="M-536 -100l-61 52l505 602l62 -52z" />
    <glyph glyph-name="uni0394" unicode="&#x394;" horiz-adv-x="708" 
d="M470 708l184 -708h-718l387 708h147zM158 120h314l-70 307q-14 65 -23 142h-3q-27 -71 -62 -141z" />
    <glyph glyph-name="pi" unicode="&#x3c0;" horiz-adv-x="568" 
d="M305 91l37 256h-148l-48 -347h-131l48 347h-58l14 102h529l-14 -102h-62l-35 -246q-2 -16 1.5 -21.5t17.5 -5.5q10 0 26 6l7 -4l-11 -80q-39 -12 -76 -12q-57 0 -80.5 26t-16.5 81z" />
    <glyph glyph-name="Wgrave" unicode="&#x1e80;" horiz-adv-x="981" 
d="M543 764l-123 126l6 8h119l97 -134h-99zM169 -9l-117 717h149l43 -355q7 -56 16 -155h3q30 72 68 156l159 350h78l61 -350q17 -106 23 -156h3q19 54 59 155l143 355h153l-318 -717h-114l-59 331q-18 101 -22 130h-3q-7 -17 -19 -43.5t-21.5 -47.5t-17.5 -39l-153 -331
h-114z" />
    <glyph glyph-name="wgrave" unicode="&#x1e81;" horiz-adv-x="733" 
d="M385 540l-146 176l5 8h124l117 -184h-100zM113 -10l-96 459h136l40 -287h2l144 283h61l63 -283h2l123 287h137l-224 -459h-88l-67 273h-2l-144 -273h-87z" />
    <glyph glyph-name="Wacute" unicode="&#x1e82;" horiz-adv-x="981" 
d="M418 764l114 134h124l3 -8l-140 -126h-101zM169 -9l-117 717h149l43 -355q7 -56 16 -155h3q30 72 68 156l159 350h78l61 -350q17 -106 23 -156h3q19 54 59 155l143 355h153l-318 -717h-114l-59 331q-18 101 -22 130h-3q-7 -17 -19 -43.5t-21.5 -47.5t-17.5 -39l-153 -331
h-114z" />
    <glyph glyph-name="wacute" unicode="&#x1e83;" horiz-adv-x="733" 
d="M271 540l137 184h127l4 -8l-163 -176h-105zM113 -10l-96 459h136l40 -287h2l144 283h61l63 -283h2l123 287h137l-224 -459h-88l-67 273h-2l-144 -273h-87z" />
    <glyph glyph-name="Wdieresis" unicode="&#x1e84;" horiz-adv-x="981" 
d="M439 779q-29 0 -49 20t-20 49q0 28 20.5 48t48.5 20t47.5 -20t19.5 -48q0 -29 -19 -49t-48 -20zM645 779q-29 0 -48.5 20t-19.5 49q0 28 20 48t48 20t48.5 -20t20.5 -48q0 -29 -20 -49t-49 -20zM169 -9l-117 717h149l43 -355q7 -56 16 -155h3q30 72 68 156l159 350h78
l61 -350q17 -106 23 -156h3q19 54 59 155l143 355h153l-318 -717h-114l-59 331q-18 101 -22 130h-3q-7 -17 -19 -43.5t-21.5 -47.5t-17.5 -39l-153 -331h-114z" />
    <glyph glyph-name="wdieresis" unicode="&#x1e85;" horiz-adv-x="733" 
d="M299 539q-29 0 -49 19.5t-20 48.5q0 28 20.5 48t48.5 20t47.5 -20t19.5 -48q0 -29 -19 -48.5t-48 -19.5zM490 539q-29 0 -48.5 19.5t-19.5 48.5q0 28 20 48t48 20q29 0 49 -20t20 -48q0 -29 -20 -48.5t-49 -19.5zM113 -10l-96 459h136l40 -287h2l144 283h61l63 -283h2
l123 287h137l-224 -459h-88l-67 273h-2l-144 -273h-87z" />
    <glyph glyph-name="uni1E9E" unicode="&#x1e9e;" horiz-adv-x="697" 
d="M478 414q80 -8 124 -54t44 -123q0 -110 -72 -182.5t-179 -72.5q-121 0 -176 98l52 94l16 -1q18 -39 41 -56t57 -17q48 0 80.5 36.5t32.5 92.5q0 86 -126 86h-45l11 83l149 188h-250l-81 -586h-138l99 708h533l-14 -101z" />
    <glyph glyph-name="Ygrave" unicode="&#x1ef2;" horiz-adv-x="634" 
d="M370 764l-123 126l6 8h119l97 -134h-99zM188 0l40 285l-190 423h159l62 -168q6 -18 23.5 -66t25.5 -75h4l89 140l110 169h165l-310 -423l-40 -285h-138z" />
    <glyph glyph-name="ygrave" unicode="&#x1ef3;" horiz-adv-x="517" 
d="M270 540l-146 176l5 8h124l117 -184h-100zM-22 -218l157 253l-125 414h149l57 -297h2l149 297h149l-394 -667h-144z" />
    <glyph glyph-name="endash" unicode="&#x2013;" horiz-adv-x="500" 
d="M-10 177l12 87h440l-12 -87h-440z" />
    <glyph glyph-name="emdash" unicode="&#x2014;" horiz-adv-x="770" 
d="M-10 177l12 87h710l-12 -87h-710z" />
    <glyph glyph-name="quoteleft" unicode="&#x2018;" horiz-adv-x="306" 
d="M206 727l84 -33l-139 -282l-12 -6l-108 44z" />
    <glyph glyph-name="quoteright" unicode="&#x2019;" horiz-adv-x="305" 
d="M119 406l-84 33l139 282l12 6l108 -44z" />
    <glyph glyph-name="quotesinglbase" unicode="&#x201a;" horiz-adv-x="305" 
d="M32 -166l-84 33l139 282l12 6l108 -44z" />
    <glyph glyph-name="quotedblleft" unicode="&#x201c;" horiz-adv-x="525" 
d="M216 727l84 -33l-139 -282l-12 -6l-108 44zM435 727l84 -33l-139 -282l-12 -6l-108 44z" />
    <glyph glyph-name="quotedblright" unicode="&#x201d;" horiz-adv-x="525" 
d="M119 406l-84 33l139 282l12 6l108 -44zM338 406l-84 33l139 282l12 6l108 -44z" />
    <glyph glyph-name="quotedblbase" unicode="&#x201e;" horiz-adv-x="521" 
d="M32 -166l-84 33l139 282l12 6l108 -44zM248 -166l-84 33l138 282l12 6l108 -44z" />
    <glyph glyph-name="dagger" unicode="&#x2020;" horiz-adv-x="572" 
d="M131 -218l80 561h-181l16 120h181l34 245h129l-34 -245h180l-16 -120h-181l-79 -561h-129z" />
    <glyph glyph-name="daggerdbl" unicode="&#x2021;" horiz-adv-x="572" 
d="M131 -217l30 210h-175l17 118h175l38 273h-175l16 118h175l29 206h129l-29 -206h175l-16 -118h-175l-39 -273h176l-17 -118h-175l-30 -210h-129z" />
    <glyph glyph-name="bullet" unicode="&#x2022;" horiz-adv-x="590" 
d="M106 372q0 63 43.5 107t107.5 44t107.5 -44t43.5 -107t-43.5 -107t-107.5 -44t-107.5 44t-43.5 107z" />
    <glyph glyph-name="ellipsis" unicode="&#x2026;" horiz-adv-x="917" 
d="M100 -11q-35 0 -58.5 23.5t-23.5 56.5q0 34 23.5 57.5t58.5 23.5q36 0 59.5 -23.5t23.5 -57.5q0 -33 -23.5 -56.5t-59.5 -23.5zM410 -11q-35 0 -58.5 23.5t-23.5 56.5q0 34 23.5 57.5t58.5 23.5q36 0 59.5 -23.5t23.5 -57.5q0 -33 -23.5 -56.5t-59.5 -23.5zM721 -11
q-35 0 -58.5 23.5t-23.5 56.5q0 34 23.5 57.5t58.5 23.5q36 0 59.5 -23.5t23.5 -57.5q0 -33 -23.5 -56.5t-59.5 -23.5z" />
    <glyph glyph-name="perthousand" unicode="&#x2030;" horiz-adv-x="1370" 
d="M241 358q-70 0 -116 44t-46 112q0 85 61.5 146.5t146.5 61.5q71 0 117 -44.5t46 -111.5q0 -84 -62 -146t-147 -62zM153 0l522 708h103l-522 -708h-103zM251 449q42 0 72.5 31t30.5 74q0 34 -21.5 56t-55.5 22q-42 0 -72.5 -31.5t-30.5 -74.5q0 -34 21.5 -55.5t55.5 -21.5
zM645 -14q-71 0 -117 44t-46 111q0 85 62 146.5t147 61.5q70 0 116 -44t46 -111q0 -84 -61.5 -146t-146.5 -62zM1066 -14q-71 0 -116.5 44t-45.5 111q0 85 62 146.5t147 61.5q70 0 116 -44t46 -111q0 -84 -62 -146t-147 -62zM655 76q42 0 72.5 31.5t30.5 74.5
q0 34 -21.5 55.5t-55.5 21.5q-43 0 -73 -31t-30 -74q0 -34 21.5 -56t55.5 -22zM1077 76q42 0 72.5 31.5t30.5 74.5q0 34 -21.5 55.5t-55.5 21.5q-43 0 -73 -31t-30 -74q0 -35 21.5 -56.5t55.5 -21.5z" />
    <glyph glyph-name="minute" unicode="&#x2032;" horiz-adv-x="244" 
d="M68 513l31 242h120l-60 -242h-91z" />
    <glyph glyph-name="second" unicode="&#x2033;" horiz-adv-x="416" 
d="M68 513l31 242h120l-60 -242h-91zM241 513l31 242h120l-60 -242h-91z" />
    <glyph glyph-name="guilsinglleft" unicode="&#x2039;" horiz-adv-x="319" 
d="M130 27l-115 206l173 206l63 -48v-8l-122 -150l80 -150l-3 -8z" />
    <glyph glyph-name="guilsinglright" unicode="&#x203a;" horiz-adv-x="324" 
d="M74 27l-63 48v8l121 150l-79 150l3 8l76 48l115 -206z" />
    <glyph glyph-name="fraction" unicode="&#x2044;" horiz-adv-x="179" 
d="M400 745l-509 -781h-121l510 781h120z" />
    <glyph glyph-name="uni2070" unicode="&#x2070;" 
d="M201 441q-67 0 -103.5 43.5t-36.5 123.5q0 115 54.5 193.5t141.5 78.5q67 0 103.5 -43.5t36.5 -122.5q0 -116 -54.5 -194.5t-141.5 -78.5zM209 529q39 0 64 56t25 126q0 81 -48 81q-39 0 -64.5 -55.5t-25.5 -125.5q0 -82 49 -82z" />
    <glyph glyph-name="uni2074" unicode="&#x2074;" 
d="M225 460l12 78h-202l9 61l236 279h99l-36 -258h47l-11 -82h-48l-11 -78h-95zM153 620h97l7 58q6 44 20 96h-1q-18 -32 -41 -60z" />
    <glyph glyph-name="uni2075" unicode="&#x2075;" 
d="M201 441q-146 0 -146 120l89 17l10 -5q0 -51 52 -51q31 0 51 23t20 58q0 53 -62 53q-58 0 -107 -31l-19 7l49 237h243l-11 -80h-160l-16 -73q30 10 64 10q55 0 86.5 -30.5t31.5 -81.5q0 -75 -49.5 -124t-125.5 -49z" />
    <glyph glyph-name="uni2076" unicode="&#x2076;" 
d="M196 441q-66 0 -103.5 34.5t-37.5 93.5q0 49 26.5 96t92.5 119l103 110l65 -42l3 -11l-58 -62q-39 -39 -78 -67v-2q34 17 64 17q48 0 76 -29.5t28 -80.5q0 -77 -51 -126.5t-130 -49.5zM206 526q31 0 51.5 23t20.5 57q0 24 -13.5 37.5t-37.5 13.5q-32 0 -53 -22t-21 -56
q0 -25 14.5 -39t38.5 -14z" />
    <glyph glyph-name="uni2077" unicode="&#x2077;" 
d="M275 784h-174l11 84h317l-2 -12l-254 -411l-17 -5l-74 29z" />
    <glyph glyph-name="uni2078" unicode="&#x2078;" 
d="M200 441q-67 0 -104 28.5t-37 77.5q0 46 26 79.5t71 47.5q-54 22 -54 79q0 56 44 93t114 37q59 0 93.5 -26t34.5 -69q0 -38 -22 -68.5t-60 -44.5q69 -23 69 -89t-50 -105.5t-125 -39.5zM237 709q25 0 39.5 16t14.5 43q0 20 -11.5 31t-30.5 11q-25 0 -39.5 -17t-14.5 -43
q0 -41 42 -41zM211 516q29 0 48 20t19 52q0 52 -53 52q-29 0 -47.5 -20t-18.5 -54q0 -50 52 -50z" />
    <glyph glyph-name="uni2079" unicode="&#x2079;" 
d="M181 427l-67 43l-2 11l57 61q40 43 78 68l-1 2q-31 -17 -62 -17q-48 0 -76 29t-28 80q0 78 51 127t133 49q65 0 102.5 -33.5t37.5 -92.5q0 -49 -26.5 -96.5t-93.5 -119.5zM232 664q31 0 51 22t20 56q0 25 -13.5 39t-38.5 14q-31 0 -51.5 -22.5t-20.5 -56.5
q0 -25 14 -38.5t39 -13.5z" />
    <glyph glyph-name="uni2080" unicode="&#x2080;" 
d="M117 -159q-67 0 -103.5 43.5t-36.5 123.5q0 115 54.5 193.5t141.5 78.5q67 0 103.5 -43.5t36.5 -122.5q0 -116 -54.5 -194.5t-141.5 -78.5zM125 -71q39 0 64 56t25 126q0 81 -48 81q-39 0 -64.5 -55.5t-25.5 -125.5q0 -82 49 -82z" />
    <glyph glyph-name="uni2081" unicode="&#x2081;" 
d="M83 -140l33 240q5 36 18 69l-2 1q-24 -17 -43 -26l-47 -25l-9 3l20 95l156 69h30l-60 -426h-96z" />
    <glyph glyph-name="uni2082" unicode="&#x2082;" 
d="M-51 -140l2 13l155 149q96 90 96 141q0 38 -40 38q-52 0 -72 -63l-12 -5l-83 13q48 142 184 142q56 0 90 -29.5t34 -77.5q0 -95 -110 -191l-25 -22q-17 -14 -42 -31l-2 -1q46 7 70 7h74l-12 -83h-307z" />
    <glyph glyph-name="uni2083" unicode="&#x2083;" 
d="M119 -156q-150 0 -147 131l88 13l9 -6q0 -27 14 -41.5t39 -14.5q28 0 46 19t18 50q0 44 -56 44h-16l9 62h11q33 0 52.5 17.5t19.5 46.5q0 37 -41 37q-48 0 -65 -49l-12 -5l-80 16q21 58 66 88.5t108 30.5q56 0 89 -26.5t33 -71.5q0 -39 -23.5 -69.5t-62.5 -43.5
q31 -7 48 -29.5t17 -56.5q0 -60 -47 -101t-117 -41z" />
    <glyph glyph-name="uni2084" unicode="&#x2084;" 
d="M141 -140l12 78h-202l9 61l236 279h99l-36 -258h47l-11 -82h-48l-11 -78h-95zM69 20h97l7 58q6 44 20 96h-1q-18 -32 -41 -60z" />
    <glyph glyph-name="uni2085" unicode="&#x2085;" 
d="M117 -159q-146 0 -146 120l89 17l10 -5q0 -51 52 -51q31 0 51 23t20 58q0 53 -62 53q-58 0 -107 -31l-19 7l49 237h243l-11 -80h-160l-16 -73q30 10 64 10q55 0 86.5 -30.5t31.5 -81.5q0 -75 -49.5 -124t-125.5 -49z" />
    <glyph glyph-name="uni2086" unicode="&#x2086;" 
d="M112 -159q-66 0 -103.5 34.5t-37.5 93.5q0 49 26.5 96t92.5 119l103 110l65 -42l3 -11l-58 -62q-39 -39 -78 -67v-2q34 17 64 17q48 0 76 -29.5t28 -80.5q0 -77 -51 -126.5t-130 -49.5zM122 -74q31 0 51.5 23t20.5 57q0 24 -13.5 37.5t-37.5 13.5q-32 0 -53 -22t-21 -56
q0 -25 14.5 -39t38.5 -14z" />
    <glyph glyph-name="uni2087" unicode="&#x2087;" 
d="M191 184h-174l11 84h317l-2 -12l-254 -411l-17 -5l-74 29z" />
    <glyph glyph-name="uni2088" unicode="&#x2088;" 
d="M116 -159q-67 0 -104 28.5t-37 77.5q0 46 26 79.5t71 47.5q-54 22 -54 79q0 56 44 93t114 37q59 0 93.5 -26t34.5 -69q0 -38 -22 -68.5t-60 -44.5q69 -23 69 -89t-50 -105.5t-125 -39.5zM153 109q25 0 39.5 16t14.5 43q0 20 -11.5 31t-30.5 11q-25 0 -39.5 -17t-14.5 -43
q0 -41 42 -41zM127 -84q29 0 48 20t19 52q0 52 -53 52q-29 0 -47.5 -20t-18.5 -54q0 -50 52 -50z" />
    <glyph glyph-name="uni2089" unicode="&#x2089;" 
d="M97 -173l-67 43l-2 11l57 61q40 43 78 68l-1 2q-31 -17 -62 -17q-48 0 -76 29t-28 80q0 78 51 127t133 49q65 0 102.5 -33.5t37.5 -92.5q0 -49 -26.5 -96.5t-93.5 -119.5zM148 64q31 0 51 22t20 56q0 25 -13.5 39t-38.5 14q-31 0 -51.5 -22.5t-20.5 -56.5q0 -25 14 -38.5
t39 -13.5z" />
    <glyph glyph-name="lira" unicode="&#x20a4;" horiz-adv-x="700" 
d="M322 238q-9 -70 -46 -113h307l-32 -125h-498l18 125h72q32 36 41 102l1 11h-95l9 67h95l8 57h-94l9 67h95l7 53q16 112 85.5 178.5t169.5 66.5q120 0 183 -71l-88 -92l-8 2q-33 41 -90 41q-46 0 -76.5 -35t-39.5 -101l-6 -42h148l-9 -67h-148l-8 -57h147l-9 -67h-148z
" />
    <glyph glyph-name="Euro" unicode="&#x20ac;" horiz-adv-x="700" 
d="M518 178l19 4l89 -68q-98 -133 -276 -133q-112 0 -182 71.5t-81 195.5h-79l30 64h49q1 34 8 72h-58l30 64h45q41 124 135.5 201.5t212.5 77.5q85 0 146 -34.5t89 -98.5l-111 -65l-18 4q-41 65 -121 65q-57 0 -104.5 -41t-75.5 -109h230l-28 -64h-222q-7 -34 -9 -72h200
l-28 -64h-169q11 -65 47 -101t92 -36q82 0 140 67z" />
    <glyph glyph-name="uni2113" unicode="&#x2113;" horiz-adv-x="518" 
d="M359 130h9l27 -95q-76 -54 -156 -54q-83 0 -123 44.5t-32 128.5l-30 -20l-35 68l79 53l37 266q14 97 67 151.5t135 54.5q65 0 100.5 -30.5t35.5 -86.5q0 -89 -63.5 -183t-176.5 -174l-10 -68q-12 -87 56 -87q37 0 80 32zM338 645q-23 0 -40 -26t-24 -76l-27 -186
q56 44 90 109.5t34 129.5q0 49 -33 49z" />
    <glyph glyph-name="uni2116" unicode="&#x2116;" horiz-adv-x="1096" 
d="M907 435q-62 0 -100.5 35t-38.5 91q0 68 51 116t123 48q62 0 100 -35t38 -91q0 -67 -51 -115.5t-122 -48.5zM494 -9l-183 311q-62 111 -96 175h-3q-8 -124 -17 -188l-40 -289h-137l99 708h125l158 -274q46 -84 96 -180h2q6 107 18 188l37 266h137l-101 -717h-95zM916 526
q23 0 40.5 19t17.5 45q0 21 -11 33.5t-29 12.5q-24 0 -41 -20t-17 -47q0 -20 10.5 -31.5t29.5 -11.5zM739 257l11 79h287l-11 -79h-287z" />
    <glyph glyph-name="uni2117" unicode="&#x2117;" horiz-adv-x="927" 
d="M459 -19q-159 0 -267 107.5t-108 264.5q0 158 108 266t267 108q158 0 266 -108t108 -266q0 -157 -108 -264.5t-266 -107.5zM457 46q128 0 217 89.5t89 217.5q0 129 -88 219t-216 90q-129 0 -217 -90t-88 -219t87.5 -218t215.5 -89zM341 140v415h142q75 0 114.5 -34.5
t39.5 -100.5q0 -61 -39.5 -96.5t-108.5 -35.5h-58v-148h-90zM431 363h43q40 0 57.5 13.5t17.5 43.5t-17.5 44.5t-57.5 14.5h-43v-116z" />
    <glyph glyph-name="trademark" unicode="&#x2122;" horiz-adv-x="1006" 
d="M199 296v336h-126v76h336v-76h-124v-336h-86zM484 296v412h114l116 -232h2l114 232h112v-412h-84v312h-2l-139 -274h-10l-137 274h-2v-312h-84z" />
    <glyph glyph-name="uni2126" unicode="&#x2126;" horiz-adv-x="851" 
d="M802 422q0 -83 -42.5 -162t-112.5 -133h107l-18 -127h-308l7 51l4 25l2 17l4 27q78 0 144 87t66 189q0 91 -56 146.5t-147 55.5q-113 0 -191.5 -81.5t-78.5 -198.5q0 -82 41.5 -140t100.5 -58l-9 -69l-7 -51h-308l18 127h109q-87 82 -87 205q0 162 126 278.5t303 116.5
q148 0 240.5 -84.5t92.5 -220.5z" />
    <glyph glyph-name="estimated" unicode="&#x212e;" horiz-adv-x="694" 
d="M174 259v-130q0 -38 52.5 -72t110.5 -34q57 0 108 24t84 70l8 3l34 -25q-33 -51 -96.5 -79.5t-138.5 -28.5q-119 0 -208.5 81t-89.5 206q0 129 83.5 207.5t215.5 78.5q128 0 207 -78t79 -193q0 -20 -1 -30h-448zM491 295v123q-3 40 -48 73.5t-111 33.5q-67 0 -111.5 -34
t-46.5 -73v-123h317z" />
    <glyph glyph-name="oneeighth" unicode="&#x215b;" horiz-adv-x="899" 
d="M720 745l-509 -781h-121l510 781h120zM111 299l33 240q5 36 18 69l-2 1q-24 -17 -43 -26l-47 -25l-9 3l20 95l156 69h30l-60 -426h-96zM633 -19q-67 0 -104 28.5t-37 77.5q0 46 26 79.5t71 47.5q-54 22 -54 79q0 56 44 93t114 37q59 0 93.5 -26t34.5 -69q0 -38 -22 -68.5
t-60 -44.5q69 -23 69 -89t-50 -105.5t-125 -39.5zM670 249q25 0 39.5 16t14.5 43q0 20 -11 31t-31 11q-25 0 -39.5 -17t-14.5 -43q0 -41 42 -41zM644 56q29 0 48 20t19 52q0 52 -53 52q-29 0 -47.5 -20t-18.5 -54q0 -50 52 -50z" />
    <glyph glyph-name="threeeighths" unicode="&#x215c;" horiz-adv-x="899" 
d="M747 745l-509 -781h-121l510 781h120zM152 284q-150 0 -147 131l88 13l9 -6q0 -27 14 -41.5t39 -14.5q28 0 46 19t18 50q0 44 -56 44h-16l9 62h11q33 0 52.5 17.5t19.5 46.5q0 37 -41 37q-48 0 -65 -49l-12 -5l-80 16q21 58 66 88.5t108 30.5q56 0 89 -26.5t33 -71.5
q0 -39 -23.5 -69.5t-62.5 -43.5q31 -7 48 -29.5t17 -56.5q0 -60 -47 -101t-117 -41zM659 -19q-67 0 -104 28.5t-37 77.5q0 46 26 79.5t71 47.5q-54 22 -54 79q0 56 44 93t114 37q59 0 93.5 -26t34.5 -69q0 -38 -22 -68.5t-60 -44.5q69 -23 69 -89t-50 -105.5t-125 -39.5z
M696 249q25 0 39.5 16t14.5 43q0 20 -11 31t-31 11q-25 0 -39.5 -17t-14.5 -43q0 -41 42 -41zM670 56q29 0 48 20t19 52q0 52 -53 52q-29 0 -47.5 -20t-18.5 -54q0 -50 52 -50z" />
    <glyph glyph-name="fiveeighths" unicode="&#x215d;" horiz-adv-x="899" 
d="M739 745l-509 -781h-121l510 781h120zM149 280q-146 0 -146 120l89 17l10 -5q0 -51 52 -51q31 0 51 23t20 58q0 53 -62 53q-58 0 -107 -31l-19 7l49 237h243l-11 -80h-160l-16 -73q30 10 64 10q55 0 86.5 -30.5t31.5 -81.5q0 -75 -49.5 -124t-125.5 -49zM657 -19
q-67 0 -104 28.5t-37 77.5q0 46 26 79.5t71 47.5q-54 22 -54 79q0 56 44 93t114 37q59 0 93.5 -26t34.5 -69q0 -38 -22 -68.5t-60 -44.5q69 -23 69 -89t-50 -105.5t-125 -39.5zM694 249q25 0 39.5 16t14.5 43q0 20 -11 31t-31 11q-25 0 -39.5 -17t-14.5 -43q0 -41 42 -41z
M668 56q29 0 48 20t19 52q0 52 -53 52q-29 0 -47.5 -20t-18.5 -54q0 -50 52 -50z" />
    <glyph glyph-name="seveneighths" unicode="&#x215e;" horiz-adv-x="899" 
d="M721 745l-509 -781h-121l510 781h120zM251 623h-174l11 84h317l-2 -12l-254 -411l-17 -5l-74 29zM632 -19q-67 0 -104 28.5t-37 77.5q0 46 26 79.5t71 47.5q-54 22 -54 79q0 56 44 93t114 37q59 0 93.5 -26t34.5 -69q0 -38 -22 -68.5t-60 -44.5q69 -23 69 -89t-50 -105.5
t-125 -39.5zM669 249q25 0 39.5 16t14.5 43q0 20 -11.5 31t-30.5 11q-25 0 -39.5 -17t-14.5 -43q0 -41 42 -41zM643 56q29 0 48 20t19 52q0 52 -53 52q-29 0 -47.5 -20t-18.5 -54q0 -50 52 -50z" />
    <glyph glyph-name="arrowleft" unicode="&#x2190;" horiz-adv-x="916" 
d="M384 19l-318 327l318 327l67 -68v-5l-139 -139q-29 -28 -74 -65l1 -2q45 3 102 3h509v-100h-509q-57 0 -102 3l-1 -2q37 -31 74 -66l139 -140v-5z" />
    <glyph glyph-name="arrowup" unicode="&#x2191;" horiz-adv-x="827" 
d="M740 409l-67 -67h-6l-140 139q-27 28 -66 75l-2 -1q4 -41 4 -102v-510h-100v510q0 71 2 102l-2 1q-33 -41 -65 -75l-138 -139h-6l-68 67l327 318z" />
    <glyph glyph-name="arrowright" unicode="&#x2192;" horiz-adv-x="916" 
d="M532 19l-67 68v5l139 140q40 38 75 66l-1 2q-46 -3 -102 -3h-510v100h510q56 0 102 -3l1 2q-41 33 -75 65l-139 139v5l67 68l318 -327z" />
    <glyph glyph-name="arrowdown" unicode="&#x2193;" horiz-adv-x="827" 
d="M740 261l-327 -318l-327 318l68 68h6l138 -140q28 -29 65 -74l2 1q-2 30 -2 102v509h100v-509q0 -62 -4 -102l2 -1q48 55 66 74l140 140h6z" />
    <glyph glyph-name="arrowboth" unicode="&#x2194;" horiz-adv-x="1312" 
d="M928 673l318 -327l-318 -327l-67 68v5l139 140q52 47 75 66l-1 2q-46 -3 -102 -3h-631q-57 0 -102 3l-1 -2q37 -31 74 -66l139 -140v-5l-67 -68l-318 327l318 327l67 -68v-5l-139 -139q-29 -28 -74 -65l1 -2q45 3 102 3h631q56 0 102 -3l1 2q-31 25 -75 65l-139 139v5z
" />
    <glyph glyph-name="arrowupdn" unicode="&#x2195;" horiz-adv-x="827" 
d="M86 618l327 318l327 -318l-67 -67h-6l-140 140q-18 19 -66 74l-2 -1q4 -40 4 -102v-632q0 -61 -4 -102l2 -1q39 47 66 75l140 140h6l67 -67l-327 -319l-327 319l68 67h6l138 -140q32 -34 65 -75l2 1q-2 31 -2 102v632q0 72 2 102l-2 1q-37 -45 -65 -74l-138 -140h-6z" />
    <glyph glyph-name="uni2196" unicode="&#x2196;" horiz-adv-x="759" 
d="M96 156l7 456l456 7v-96l-4 -4l-196 1q-38 0 -100 6v-2q17 -14 73 -70l361 -360l-71 -71l-360 360q-29 28 -70 75l-2 -1q6 -58 7 -100l-1 -196l-4 -5h-96z" />
    <glyph glyph-name="uni2197" unicode="&#x2197;" horiz-adv-x="759" 
d="M663 156h-95l-5 5v196q0 40 6 100l-2 1q-41 -48 -70 -75l-360 -360l-71 71l361 360q51 51 73 70v2q-62 -6 -99 -6l-197 -1l-4 4v96l456 -7z" />
    <glyph glyph-name="uni2198" unicode="&#x2198;" horiz-adv-x="759" 
d="M663 486l-7 -456l-456 -7v95l4 5l197 -1q53 -2 99 -6v2q-34 30 -73 70l-361 360l71 71l360 -360q37 -37 70 -75l2 1q-6 60 -6 99v197l5 5h95z" />
    <glyph glyph-name="uni2199" unicode="&#x2199;" horiz-adv-x="759" 
d="M96 486h96l4 -5l1 -197q-1 -41 -7 -99l2 -1q33 38 70 75l360 360l71 -71l-361 -360q-45 -47 -73 -70v-2q45 4 100 6l196 1l4 -5v-95l-456 7z" />
    <glyph glyph-name="partialdiff" unicode="&#x2202;" horiz-adv-x="700" 
d="M334 727q128 0 191 -110.5t62 -294.5q-1 -172 -72.5 -256.5t-196.5 -84.5q-98 0 -161 64t-63 166q0 94 58.5 160.5t144.5 66.5q97 0 162 -80q-9 262 -144 262q-64 0 -113 -66l-9 -1l-77 53q34 55 92 88t126 33zM335 92q58 0 90 41.5t29 109.5v8q-44 76 -121 76
q-48 0 -78.5 -33t-30.5 -86q0 -50 30.5 -83t80.5 -33z" />
    <glyph glyph-name="emptyset" unicode="&#x2205;" horiz-adv-x="700" 
d="M630 545l-77 -77q50 -69 50 -159q0 -114 -77 -190.5t-191 -76.5q-90 0 -160 49l-80 -80l-54 54l80 80q-53 69 -53 164q0 113 76 189t191 76q94 0 163 -52l77 77zM171 309q0 -51 23 -91l232 232q-41 27 -91 27q-70 0 -117 -48t-47 -120zM500 309q0 46 -22 85l-230 -231
q38 -24 87 -24q71 0 118 48.5t47 121.5z" />
    <glyph glyph-name="uni2206" unicode="&#x2206;" horiz-adv-x="708" 
d="M470 708l184 -708h-718l387 708h147zM158 120h314l-70 307q-14 65 -23 142h-3q-27 -71 -62 -141z" />
    <glyph glyph-name="product" unicode="&#x220f;" horiz-adv-x="711" 
d="M66 -218v803h-56v123h691v-123h-56v-803h-138v803h-303v-803h-138z" />
    <glyph glyph-name="summation" unicode="&#x2211;" horiz-adv-x="623" 
d="M19 -218v108l298 368l-285 342v108h560v-123h-388l268 -327l-285 -353h416v-123h-584z" />
    <glyph glyph-name="minus" unicode="&#x2212;" horiz-adv-x="700" 
d="M70 258v91h534v-91h-534z" />
    <glyph glyph-name="uni2215" unicode="&#x2215;" horiz-adv-x="377" 
d="M433 755l-364 -791h-126l365 791h125z" />
    <glyph glyph-name="uni2219" unicode="&#x2219;" horiz-adv-x="427" 
d="M207 222q-35 0 -58.5 24t-23.5 58t23.5 57t58.5 23t58.5 -23t23.5 -57t-23.5 -58t-58.5 -24z" />
    <glyph glyph-name="radical" unicode="&#x221a;" horiz-adv-x="592" 
d="M236 -9l-143 335h-75v123h177l92 -249h4l136 508h159l-233 -717h-117z" />
    <glyph glyph-name="infinity" unicode="&#x221e;" horiz-adv-x="800" 
d="M205 134q-71 0 -117.5 46t-46.5 119t45 119t116 46q47 0 92 -25t99 -81q55 57 99.5 81.5t92.5 24.5q71 0 115.5 -46t44.5 -119t-46 -119t-117 -46q-46 0 -87.5 22t-101.5 80q-60 -58 -101 -80t-87 -22zM206 223q52 0 129 75q-84 78 -133 78q-30 0 -49.5 -22t-19.5 -55
q0 -35 19.5 -55.5t53.5 -20.5zM581 223q33 0 52.5 20.5t19.5 55.5q0 33 -19.5 55t-49.5 22q-49 0 -133 -78q75 -75 130 -75z" />
    <glyph glyph-name="integral" unicode="&#x222b;" horiz-adv-x="700" 
d="M269 55v478q0 120 32 166t117 46q45 0 82 -13v-102l-11 -4q-24 14 -54 14t-42 -25t-12 -94v-478q0 -120 -32 -166t-117 -46q-45 0 -82 13v102l11 4q24 -14 54 -14t42 25t12 94z" />
    <glyph glyph-name="approxequal" unicode="&#x2248;" horiz-adv-x="700" 
d="M134 327l-64 42q70 118 161 118q45 0 82 -17.5t68.5 -35t62.5 -17.5q54 0 93 67l9 1l64 -42q-69 -118 -161 -118q-53 0 -115 34.5t-99 34.5q-53 0 -92 -66zM134 123l-64 42q69 118 161 118q45 0 82 -17.5t68.5 -35t62.5 -17.5q54 0 93 67l9 1l64 -42q-69 -118 -161 -118
q-53 0 -115 35t-99 35q-53 0 -92 -67z" />
    <glyph glyph-name="notequal" unicode="&#x2260;" horiz-adv-x="700" 
d="M614 356h-203l-46 -104h249v-91h-290l-61 -137h-94l61 137h-162v91h203l46 104h-249v90h290l61 137h94l-61 -137h162v-90z" />
    <glyph glyph-name="lessequal" unicode="&#x2264;" horiz-adv-x="700" 
d="M605 632v-97l-383 -139l383 -139v-98l-520 198v78zM85 0v90h520v-90h-520z" />
    <glyph glyph-name="greaterequal" unicode="&#x2265;" horiz-adv-x="700" 
d="M79 632l520 -197v-78l-520 -198v98l383 139l-383 139v97zM79 0v90h520v-90h-520z" />
    <glyph glyph-name="lozenge" unicode="&#x25ca;" horiz-adv-x="700" 
d="M277 -19l-176 373l176 373h91l178 -373l-178 -373h-91zM322 100l112 254l-112 255l-110 -255z" />
    <glyph glyph-name="i.loclTRK" horiz-adv-x="266" 
d="M152 534q-35 0 -58 21.5t-23 54.5q0 32 23 53.5t58 21.5t58 -21.5t23 -54.5q0 -32 -23 -53.5t-58 -21.5zM8 0l62 449h131l-62 -449h-131z" />
    <glyph glyph-name="f_i" horiz-adv-x="601" 
d="M354 622q-20 10 -41 10q-29 0 -44 -20.5t-22 -70.5l-13 -92h98l-15 -101h-97l-79 -566h-131l79 566h-82l15 101h81l13 91q16 111 58 158t124 47q46 0 86 -14l-21 -105zM498 565q-35 0 -58.5 21.5t-23.5 54.5t23 54.5t59 21.5q35 0 58 -22t23 -54q0 -33 -23 -54.5
t-58 -21.5zM343 0l62 449h131l-62 -449h-131z" />
    <glyph glyph-name="f_l" horiz-adv-x="606" 
d="M354 622q-20 10 -41 10q-29 0 -44 -20.5t-22 -70.5l-13 -92h98l-15 -101h-97l-79 -566h-131l79 566h-82l15 101h81l13 91q16 111 58 158t124 47q46 0 86 -14l-21 -105zM348 0l103 733h131l-103 -733h-131z" />
    <glyph glyph-name="zero.osf" horiz-adv-x="527" 
d="M207 -19q-91 0 -143 54.5t-52 150.5q0 134 73.5 220.5t187.5 86.5q91 0 142 -54t51 -150q0 -136 -72.5 -222t-186.5 -86zM214 83q53 0 88.5 59.5t35.5 149.5q0 99 -74 99q-53 0 -88 -59.5t-35 -147.5q0 -101 73 -101z" />
    <glyph glyph-name="one.osf" horiz-adv-x="346" 
d="M79 0l31 227q7 50 33 111h-2q-49 -37 -70 -49l-66 -37l-13 4l28 131l222 105h45l-68 -492h-140z" />
    <glyph glyph-name="two.osf" horiz-adv-x="448" 
d="M-44 0l1 18l227 186q53 43 75 74.5t22 63.5q0 23 -15 36t-41 13q-74 0 -107 -87l-17 -7l-103 17q28 86 91 132.5t154 46.5q79 0 124.5 -34.5t45.5 -95.5q0 -52 -26.5 -97.5t-90.5 -95.5l-7 -4q-41 -34 -93 -67l-1 -1q48 8 119 8h76l-14 -106h-420z" />
    <glyph glyph-name="three.osf" horiz-adv-x="477" 
d="M188 -164q-102 0 -157.5 51.5t-53.5 144.5l114 18l17 -10q-1 -46 21 -72.5t61 -26.5q45 0 75.5 33t30.5 82q0 74 -92 74h-18l13 89h11q53 0 84.5 29.5t31.5 79.5q0 29 -17 45t-48 16q-37 0 -65 -24t-41 -67l-19 -7l-104 21q29 86 94 133.5t155 47.5q80 0 127.5 -39.5
t47.5 -106.5q0 -60 -36.5 -106.5t-97.5 -63.5q48 -10 75.5 -45t27.5 -85q0 -88 -69 -149.5t-168 -61.5z" />
    <glyph glyph-name="four.osf" horiz-adv-x="526" 
d="M242 -157l23 157h-299l8 71l366 401h129l-52 -366h75l-14 -106h-75l-23 -157h-138zM135 106h148l11 77q10 71 36 153h-2q-43 -64 -67 -91z" />
    <glyph glyph-name="five.osf" horiz-adv-x="454" 
d="M166 -164q-98 0 -152 48.5t-53 134.5l119 20l10 -6q0 -88 86 -88q48 0 81 39t33 96q0 41 -23.5 62.5t-66.5 21.5q-82 0 -160 -50l-27 9l73 351h345l-15 -106h-237l-28 -128q55 18 99 18q78 0 125.5 -45.5t47.5 -121.5q0 -108 -74 -181.5t-183 -73.5z" />
    <glyph glyph-name="six.osf" horiz-adv-x="536" 
d="M210 -18q-95 0 -150 50t-55 136q0 75 43 148t132 171l152 169l84 -55l2 -14l-80 -94q-67 -73 -122 -114l1 -3q49 28 99 28q71 0 114 -45t43 -121q0 -112 -74 -184t-189 -72zM223 92q50 0 86 39t36 93q0 40 -23.5 64t-64.5 24q-52 0 -87.5 -38.5t-35.5 -94.5
q0 -40 24 -63.5t65 -23.5z" />
    <glyph glyph-name="seven.osf" horiz-adv-x="450" 
d="M299 368h-274l15 106h448l-2 -19l-364 -614l-26 -6l-83 36z" />
    <glyph glyph-name="eight.osf" horiz-adv-x="483" 
d="M182 -19q-99 0 -152.5 42t-53.5 116q0 70 41 122.5t113 74.5q-86 31 -86 119q0 84 65.5 140.5t166.5 56.5q86 0 135 -39t49 -103q0 -59 -33.5 -105.5t-92.5 -67.5q107 -33 107 -137q0 -97 -72.5 -158t-186.5 -61zM240 384q42 0 67 27.5t25 71.5q0 33 -19 51.5t-52 18.5
q-42 0 -67 -27t-25 -72q0 -32 18.5 -51t52.5 -19zM197 82q53 0 84 33t31 87q0 39 -23.5 62.5t-65.5 23.5q-50 0 -81.5 -33.5t-31.5 -86.5q0 -40 23 -63t64 -23z" />
    <glyph glyph-name="nine.osf" horiz-adv-x="538" 
d="M190 -167l-84 55l-2 15l65 76q64 75 130 121l-2 2q-61 -31 -106 -31q-71 0 -114.5 45t-43.5 121q0 113 75 184.5t191 71.5q94 0 148 -50t54 -136q0 -79 -44 -152t-131 -170zM250 163q51 0 87 38.5t36 93.5q0 40 -24.5 64t-64.5 24q-52 0 -87 -38t-35 -93q0 -41 23.5 -65
t64.5 -24z" />
    <glyph glyph-name="zero.tf" horiz-adv-x="700" 
d="M296 -19q-109 0 -169 74t-60 207q0 198 91 331.5t234 133.5q109 0 169 -73.5t60 -205.5q0 -199 -91 -333t-234 -134zM306 109q74 0 122.5 101t48.5 236q0 74 -24.5 113.5t-71.5 39.5q-73 0 -121.5 -100t-48.5 -234q0 -76 24.5 -116t70.5 -40z" />
    <glyph glyph-name="one.tf" horiz-adv-x="700" 
d="M425 120h115l-17 -120h-389l17 120h134l45 326q6 46 24 102l-3 1q-25 -18 -67 -40l-86 -44l-11 5l29 139l252 114h41z" />
    <glyph glyph-name="two.tf" horiz-adv-x="700" 
d="M34 0l1 20l239 227q103 94 148.5 159.5t45.5 120.5q0 35 -21.5 54.5t-59.5 19.5q-100 0 -136 -118l-20 -7l-118 19q72 232 298 232q92 0 147 -48.5t55 -128.5q0 -167 -197 -336l-52 -46q-36 -31 -68 -53l-2 -2q60 9 111 9h145l-17 -122h-499z" />
    <glyph glyph-name="three.tf" horiz-adv-x="700" 
d="M303 -19q-119 0 -181 56t-60 160l126 20l16 -10q-1 -50 26 -78t76 -28q55 0 90.5 37.5t35.5 95.5q0 85 -109 85h-26l13 95h18q64 0 101 33t37 89q0 34 -22 53t-60 19q-44 0 -76.5 -24.5t-48.5 -69.5l-19 -7l-114 22q32 95 105.5 146.5t175.5 51.5q93 0 147.5 -44.5
t54.5 -120.5q0 -69 -40 -121.5t-108 -72.5q52 -10 82 -49.5t30 -96.5q0 -103 -77.5 -172t-192.5 -69z" />
    <glyph glyph-name="four.tf" horiz-adv-x="700" 
d="M352 0l20 142h-347l11 81l424 494h131l-64 -455h81l-17 -120h-81l-20 -142h-138zM207 262h184l16 115q12 93 34 168l-3 -3q-34 -54 -66 -92z" />
    <glyph glyph-name="five.tf" horiz-adv-x="700" 
d="M304 -19q-114 0 -176 52.5t-61 147.5l127 23l16 -8q0 -95 103 -95q59 0 99 44t40 110q0 49 -30.5 76t-83.5 27q-97 0 -180 -54l-29 10l81 394h395l-17 -118h-275l-31 -148q54 19 115 19q91 0 144.5 -51t53.5 -137q0 -125 -83 -208.5t-208 -83.5z" />
    <glyph glyph-name="six.tf" horiz-adv-x="700" 
d="M298 -19q-107 0 -168.5 56.5t-61.5 154.5q0 80 43 159t154 199l178 196l96 -62l3 -17l-104 -114q-60 -67 -134 -124q56 29 113 29q82 0 129.5 -50t47.5 -136q0 -126 -84 -208.5t-212 -82.5zM312 105q59 0 99 43.5t40 107.5q0 46 -26 72t-73 26q-61 0 -100.5 -42.5
t-39.5 -107.5q0 -46 26.5 -72.5t73.5 -26.5z" />
    <glyph glyph-name="seven.tf" horiz-adv-x="700" 
d="M467 584h-309l18 124h512l-2 -19l-434 -703l-26 -6l-104 43z" />
    <glyph glyph-name="eight.tf" horiz-adv-x="700" 
d="M298 -19q-111 0 -171.5 47t-60.5 129q0 78 45.5 136.5t123.5 81.5q-94 35 -94 132q0 96 72 158t187 62q96 0 151.5 -43.5t55.5 -114.5q0 -66 -37.5 -118t-101.5 -75q117 -37 117 -151q0 -111 -81 -177.5t-206 -66.5zM361 429q48 0 76.5 30t28.5 81q0 37 -22 58t-61 21
q-49 0 -77.5 -31t-28.5 -80q0 -38 22 -58.5t62 -20.5zM314 91q58 0 94 37t36 98q0 46 -27.5 71.5t-75.5 25.5q-57 0 -93.5 -38t-36.5 -99q0 -45 27.5 -70t75.5 -25z" />
    <glyph glyph-name="nine.tf" horiz-adv-x="700" 
d="M250 -37l-96 62l-3 17l103 113q73 80 134 124l-2 2q-59 -31 -108 -31q-82 0 -130 50.5t-48 135.5q0 130 83.5 211t216.5 81q106 0 166.5 -55.5t60.5 -152.5q0 -82 -43 -160.5t-155 -200.5zM345 354q59 0 97.5 42.5t38.5 108.5q0 46 -26 72.5t-72 26.5q-60 0 -100 -43
t-40 -108q0 -47 26.5 -73t75.5 -26z" />
    <glyph glyph-name="zero.dnom" 
d="M137 -19q-67 0 -103.5 43.5t-36.5 123.5q0 115 54.5 193.5t141.5 78.5q67 0 103.5 -43.5t36.5 -122.5q0 -116 -54.5 -194.5t-141.5 -78.5zM145 69q39 0 64 56t25 126q0 81 -48 81q-39 0 -64.5 -55.5t-25.5 -125.5q0 -82 49 -82z" />
    <glyph glyph-name="one.dnom" 
d="M103 0l33 240q5 36 18 69l-2 1q-24 -17 -43 -26l-47 -25l-9 3l20 95l156 69h30l-60 -426h-96z" />
    <glyph glyph-name="two.dnom" 
d="M-31 0l2 13l155 149q96 90 96 141q0 38 -40 38q-52 0 -72 -63l-12 -5l-83 13q48 142 184 142q56 0 90 -29.5t34 -77.5q0 -95 -110 -191l-25 -22q-17 -14 -42 -31l-2 -1q46 7 70 7h74l-12 -83h-307z" />
    <glyph glyph-name="three.dnom" 
d="M139 -16q-150 0 -147 131l88 13l9 -6q0 -27 14 -41.5t39 -14.5q28 0 46 19t18 50q0 44 -56 44h-16l9 62h11q33 0 52.5 17.5t19.5 46.5q0 37 -41 37q-48 0 -65 -49l-12 -5l-80 16q21 58 66 88.5t108 30.5q56 0 89 -26.5t33 -71.5q0 -39 -23.5 -69.5t-62.5 -43.5
q31 -7 48 -29.5t17 -56.5q0 -60 -47 -101t-117 -41z" />
    <glyph glyph-name="four.dnom" 
d="M161 0l12 78h-202l9 61l236 279h99l-36 -258h47l-11 -82h-48l-11 -78h-95zM89 160h97l7 58q6 44 20 96h-1q-18 -32 -41 -60z" />
    <glyph glyph-name="five.dnom" 
d="M137 -19q-146 0 -146 120l89 17l10 -5q0 -51 52 -51q31 0 51 23t20 58q0 53 -62 53q-58 0 -107 -31l-19 7l49 237h243l-11 -80h-160l-16 -73q30 10 64 10q55 0 86.5 -30.5t31.5 -81.5q0 -75 -49.5 -124t-125.5 -49z" />
    <glyph glyph-name="six.dnom" 
d="M132 -19q-66 0 -103.5 34.5t-37.5 93.5q0 49 26.5 96t92.5 119l103 110l65 -42l3 -11l-58 -62q-39 -40 -78 -67v-2q34 17 64 17q48 0 76 -29.5t28 -80.5q0 -77 -51 -126.5t-130 -49.5zM142 66q31 0 51.5 23t20.5 57q0 24 -13.5 37.5t-37.5 13.5q-32 0 -53 -22t-21 -56
q0 -25 14.5 -39t38.5 -14z" />
    <glyph glyph-name="seven.dnom" 
d="M211 324h-174l11 84h317l-2 -12l-254 -411l-17 -5l-74 29z" />
    <glyph glyph-name="eight.dnom" 
d="M136 -19q-67 0 -104 28.5t-37 77.5q0 46 26 79.5t71 47.5q-54 23 -54 79t44 93t114 37q59 0 93.5 -26t34.5 -69q0 -38 -22 -68.5t-60 -44.5q69 -23 69 -89t-50 -105.5t-125 -39.5zM173 249q25 0 39.5 16t14.5 43q0 20 -11.5 31t-30.5 11q-25 0 -39.5 -17t-14.5 -43
q0 -41 42 -41zM147 56q29 0 48 20t19 52q0 52 -53 52q-29 0 -47.5 -20t-18.5 -54q0 -50 52 -50z" />
    <glyph glyph-name="nine.dnom" 
d="M117 -33l-67 43l-2 11l57 61q40 43 78 68l-1 2q-31 -17 -62 -17q-48 0 -76 29t-28 80q0 78 51 127t133 49q65 0 102.5 -33.5t37.5 -92.5q0 -49 -26.5 -96.5t-93.5 -119.5zM168 204q31 0 51 22t20 56q0 25 -13.5 39t-38.5 14q-31 0 -51.5 -22.5t-20.5 -56.5
q0 -25 14 -38.5t39 -13.5z" />
    <glyph glyph-name="zero.numr" 
d="M179 280q-67 0 -103.5 43.5t-36.5 123.5q0 115 54.5 193.5t141.5 78.5q67 0 103.5 -43.5t36.5 -122.5q0 -116 -54.5 -194.5t-141.5 -78.5zM187 368q39 0 64 56t25 126q0 81 -48 81q-39 0 -64.5 -55.5t-25.5 -125.5q0 -82 49 -82z" />
    <glyph glyph-name="one.numr" 
d="M145 299l33 240q5 36 18 69l-2 1q-24 -17 -43 -26l-47 -25l-9 3l20 95l156 69h30l-60 -426h-96z" />
    <glyph glyph-name="two.numr" 
d="M11 299l2 13l155 149q96 90 96 141q0 38 -40 38q-52 0 -72 -63l-12 -5l-83 13q48 142 184 142q56 0 90 -29.5t34 -77.5q0 -95 -110 -191l-25 -22q-17 -14 -42 -31l-2 -1q46 7 70 7h74l-12 -83h-307z" />
    <glyph glyph-name="three.numr" 
d="M181 283q-150 0 -147 131l88 13l9 -6q0 -27 14 -41.5t39 -14.5q28 0 46 19t18 50q0 44 -56 44h-16l9 62h11q33 0 52.5 17.5t19.5 46.5q0 37 -41 37q-48 0 -65 -49l-12 -5l-80 16q21 58 66 88.5t108 30.5q56 0 89 -26.5t33 -71.5q0 -39 -23.5 -69.5t-62.5 -43.5
q31 -7 48 -29.5t17 -56.5q0 -60 -47 -101t-117 -41z" />
    <glyph glyph-name="four.numr" 
d="M203 299l12 78h-202l9 61l236 279h99l-36 -258h47l-11 -82h-48l-11 -78h-95zM131 459h97l7 58q6 44 20 96h-1q-18 -32 -41 -60z" />
    <glyph glyph-name="five.numr" 
d="M179 280q-146 0 -146 120l89 17l10 -5q0 -51 52 -51q31 0 51 23t20 58q0 53 -62 53q-58 0 -107 -31l-19 7l49 237h243l-11 -80h-160l-16 -73q30 10 64 10q55 0 86.5 -30.5t31.5 -81.5q0 -75 -49.5 -124t-125.5 -49z" />
    <glyph glyph-name="six.numr" 
d="M174 280q-66 0 -103.5 34.5t-37.5 93.5q0 49 26.5 96t92.5 119l103 110l65 -42l3 -11l-58 -62q-40 -39 -78 -67v-2q34 17 64 17q48 0 76 -29.5t28 -80.5q0 -77 -51 -126.5t-130 -49.5zM184 365q31 0 51.5 23t20.5 57q0 24 -13.5 37.5t-37.5 13.5q-32 0 -53 -22t-21 -56
q0 -25 14.5 -39t38.5 -14z" />
    <glyph glyph-name="seven.numr" 
d="M253 623h-174l11 84h317l-2 -12l-254 -411l-17 -5l-74 29z" />
    <glyph glyph-name="eight.numr" 
d="M178 280q-67 0 -104 28.5t-37 77.5q0 46 26 79.5t71 47.5q-54 23 -54 79t44 93t114 37q59 0 93.5 -26t34.5 -69q0 -38 -22 -68.5t-60 -44.5q69 -23 69 -89t-50 -105.5t-125 -39.5zM215 548q25 0 39.5 16t14.5 43q0 19 -11.5 30.5t-30.5 11.5q-25 0 -39.5 -17t-14.5 -43
q0 -41 42 -41zM189 355q29 0 48 20t19 52q0 52 -53 52q-29 0 -47.5 -20t-18.5 -54q0 -50 52 -50z" />
    <glyph glyph-name="nine.numr" 
d="M159 266l-67 43l-2 11l57 61q40 43 78 68l-1 2q-31 -17 -62 -17q-48 0 -76 29t-28 80q0 78 51 127t133 49q65 0 102.5 -33.5t37.5 -92.5q0 -49 -26.5 -96.5t-93.5 -119.5zM210 503q31 0 51 22t20 56q0 25 -13.5 39t-38.5 14q-31 0 -51.5 -22.5t-20.5 -56.5
q0 -25 14 -38.5t39 -13.5z" />
    <glyph glyph-name="periodcentered.case" horiz-adv-x="298" 
d="M135 274q-35 0 -58.5 23.5t-23.5 56.5q0 34 23.5 57.5t58.5 23.5q36 0 59.5 -23.5t23.5 -57.5q0 -33 -23.5 -56.5t-59.5 -23.5z" />
    <glyph glyph-name="exclamdown.case" horiz-adv-x="340" 
d="M206 719q35 0 58.5 -23.5t23.5 -56.5q0 -34 -24 -57.5t-58 -23.5q-36 0 -59.5 23.5t-23.5 57.5q0 33 23.5 56.5t59.5 23.5zM247 487l-62 -487h-138l75 487h125z" />
    <glyph glyph-name="questiondown.case" horiz-adv-x="550" 
d="M323 719q35 0 58.5 -23.5t23.5 -56.5q0 -34 -23.5 -57.5t-58.5 -23.5q-36 0 -59.5 23.5t-23.5 57.5q0 33 23.5 56.5t59.5 23.5zM369 487l-5 -42q-6 -48 -31 -85t-77 -76q-48 -33 -68.5 -60.5t-20.5 -63.5q0 -30 20 -48t54 -18q89 0 117 93l18 6l108 -19
q-26 -91 -94.5 -142t-164.5 -51q-89 0 -142 43.5t-53 115.5q0 67 32.5 117.5t99.5 94.5q40 27 55.5 47.5t20.5 53.5l6 34h125z" />
    <glyph glyph-name="braceleft.case" horiz-adv-x="346" 
d="M24 403h6q73 2 85 97l24 167q9 66 47.5 103t99.5 37h77l-13 -89h-42q-56 0 -67 -76l-22 -157q-7 -55 -35.5 -88t-70.5 -38v-2q37 -5 57.5 -39.5t13.5 -89.5l-22 -156q-12 -74 43 -74h45l-13 -89h-75q-61 0 -90 38.5t-19 104.5l22 166q14 95 -55 95h-8z" />
    <glyph glyph-name="braceright.case" horiz-adv-x="346" 
d="M348 313h-6q-73 -2 -85 -97l-24 -167q-9 -66 -47.5 -103t-99.5 -37h-77l13 89h42q56 0 67 76l22 157q7 55 35.5 88t70.5 38v2q-37 5 -57.5 39.5t-13.5 89.5l22 156q12 74 -43 74h-45l13 89h75q61 0 90 -38.5t19 -104.5l-22 -166q-14 -95 55 -95h8z" />
    <glyph glyph-name="bracketleft.case" horiz-adv-x="326" 
d="M4 -91l126 898h202l-12 -89h-95l-101 -720h95l-13 -89h-202z" />
    <glyph glyph-name="bracketright.case" horiz-adv-x="325" 
d="M18 -91l13 89h95l100 720h-94l12 89h202l-126 -898h-202z" />
    <glyph glyph-name="parenleft.case" horiz-adv-x="332" 
d="M136 -99q-49 80 -72.5 183t-17.5 210q7 138 64.5 277t151.5 246l86 -50q-87 -102 -137 -223.5t-57 -246.5q-11 -195 78 -351z" />
    <glyph glyph-name="parenright.case" horiz-adv-x="332" 
d="M225 819q49 -80 72.5 -183t17.5 -210q-7 -138 -64.5 -277t-151.5 -246l-86 50q87 102 137 223.5t57 246.5q11 195 -78 351z" />
    <glyph glyph-name="emdash.case" horiz-adv-x="770" 
d="M0 247l12 87h710l-12 -87h-710z" />
    <glyph glyph-name="endash.case" horiz-adv-x="500" 
d="M0 247l12 87h440l-12 -87h-440z" />
    <glyph glyph-name="hyphen.case" horiz-adv-x="320" 
d="M16 247l12 87h228l-12 -87h-228z" />
    <glyph glyph-name="uni00AD.case" horiz-adv-x="320" 
d="M16 247l12 87h228l-12 -87h-228z" />
    <glyph glyph-name="guillemotleft.case" horiz-adv-x="531" 
d="M136 97l-115 206l173 206l63 -48v-8l-122 -150l80 -150l-3 -8zM343 97l-115 206l173 206l63 -48v-8l-122 -150l80 -150l-3 -8z" />
    <glyph glyph-name="guillemotright.case" horiz-adv-x="531" 
d="M84 97l-63 48v8l121 150l-79 150l3 8l76 48l115 -206zM291 97l-63 48v8l121 150l-80 150l4 8l76 48l115 -206z" />
    <glyph glyph-name="guilsinglleft.case" horiz-adv-x="319" 
d="M140 97l-115 206l173 206l63 -48v-8l-122 -150l80 -150l-3 -8z" />
    <glyph glyph-name="guilsinglright.case" horiz-adv-x="325" 
d="M84 97l-63 48v8l121 150l-79 150l3 8l76 48l115 -206z" />
    <glyph glyph-name="at.case" horiz-adv-x="896" 
d="M450 -84q-186 0 -299.5 110t-113.5 291q0 176 119.5 293t298.5 117q170 0 276 -97t106 -251q0 -114 -61 -185.5t-159 -71.5q-43 0 -70.5 20t-30.5 53q-19 -32 -54 -52.5t-73 -20.5q-65 0 -105.5 47t-40.5 123q0 98 58 164.5t142 66.5q35 0 63.5 -17t39.5 -45l9 40h90
l-33 -158q-17 -82 -17 -94q0 -44 47 -44q42 0 71 48t29 116q0 128 -76.5 200t-211.5 72q-141 0 -230.5 -90.5t-89.5 -233.5q0 -145 88 -230t236 -85q109 0 200 44l8 -2l33 -73q-95 -55 -249 -55zM410 205q45 0 76 43.5t31 106.5q0 85 -70 85q-42 0 -72.5 -44t-30.5 -106
q0 -38 18.5 -61.5t47.5 -23.5z" />
    <glyph glyph-name="uni0308.case" horiz-adv-x="0" 
d="M-263 779q-29 0 -49 20t-20 49q0 28 20.5 48t48.5 20t47.5 -20t19.5 -48q0 -29 -19 -49t-48 -20zM-57 779q-29 0 -48.5 20t-19.5 49q0 28 20 48t48 20t48.5 -20t20.5 -48q0 -29 -20 -49t-49 -20z" />
    <glyph glyph-name="uni0307.case" horiz-adv-x="0" 
d="M-90 772q-35 0 -58 21.5t-23 54.5t23 54t58 21t58 -21.5t23 -53.5q0 -33 -23 -54.5t-58 -21.5z" />
    <glyph glyph-name="gravecomb.case" horiz-adv-x="0" 
d="M-129 764l-123 126l6 8h119l97 -134h-99z" />
    <glyph glyph-name="acutecomb.case" horiz-adv-x="0" 
d="M-269 764l114 134h124l3 -8l-140 -126h-101z" />
    <glyph glyph-name="uni030B.case" horiz-adv-x="0" 
d="M-427 764l113 134h124l3 -8l-139 -126h-101zM-232 764l114 134h123l4 -8l-140 -126h-101z" />
    <glyph glyph-name="uni0302.case" horiz-adv-x="0" 
d="M-202 847l-91 -83h-89l-5 9l130 125h118l93 -125l-8 -9h-84z" />
    <glyph glyph-name="uni030C.case" horiz-adv-x="0" 
d="M-264 764l-93 132l8 8h85l65 -89l90 89h88l5 -8l-130 -132h-118z" />
    <glyph glyph-name="uni0306.case" horiz-adv-x="0" 
d="M-119 762q-73 0 -113 35t-36 97l9 8h72q4 -58 78 -58q73 0 94 58h71l8 -8q-14 -62 -62 -97t-121 -35z" />
    <glyph glyph-name="uni030A.case" horiz-adv-x="0" 
d="M-59 753q-39 0 -65 25t-26 63q0 48 34.5 82.5t83.5 34.5q40 0 65.5 -25t25.5 -63q0 -47 -35 -82t-83 -35zM-53 798q27 0 46.5 19.5t19.5 46.5q0 22 -14 35.5t-36 13.5q-28 0 -47.5 -19t-19.5 -46q0 -22 14.5 -36t36.5 -14z" />
    <glyph glyph-name="tildecomb.case" horiz-adv-x="0" 
d="M-56 769q40 0 73.5 35t46.5 90h-64l-9 -6q-13 -38 -41 -38q-18 0 -62 22t-72 22q-39 0 -72.5 -34.5t-46.5 -90.5h66l8 6q14 39 41 39q19 0 60.5 -22.5t71.5 -22.5z" />
    <glyph glyph-name="uni0304.case" horiz-adv-x="0" 
d="M-302 796l12 82h301l-12 -82h-301z" />
    <glyph glyph-name="caron.alt" horiz-adv-x="210" 
d="M134 495l-74 29l96 197l12 6l89 -36z" />
    <glyph glyph-name="NULL" horiz-adv-x="600" 
 />
    </font>
</defs>
</svg>
