<?xml version="1.0" encoding="UTF-8" standalone="no"?>
<svg width="11px" height="8px" viewBox="0 0 11 8" version="1.1" xmlns="http://www.w3.org/2000/svg" xmlns:xlink="http://www.w3.org/1999/xlink">
    <!-- Generator: Sketch 47.1 (45422) - http://www.bohemiancoding.com/sketch -->
    <title>love</title>
    <desc>Created with Sketch.</desc>
    <defs></defs>
    <g id="Page-1" stroke="none" stroke-width="1" fill="none" fill-rule="evenodd">
        <g id="1.0-Main-—-Klodt" transform="translate(-1532.000000, -1816.000000)" fill="#C4B277">
            <g id="Group-13" transform="translate(50.000000, 1757.000000)">
                <path d="M1487.68192,61.2988281 C1487.90067,60.6113247 1488.23465,60.0898455 1488.68387,59.734375 C1489.13309,59.3789045 1489.67801,59.2011719 1490.31864,59.2011719 C1491.07645,59.2011719 1491.68582,59.4326149 1492.14676,59.8955078 C1492.6077,60.3584008 1492.83817,60.9706993 1492.83817,61.7324219 C1492.83817,62.400394 1492.67802,62.937498 1492.3577,63.34375 C1492.03739,63.750002 1491.42216,64.1445293 1490.512,64.5273438 L1490.39481,64.5800781 C1488.90262,65.2089875 1487.99833,65.9121055 1487.68192,66.6894531 C1487.3577,65.9081992 1486.45536,65.2050813 1484.97489,64.5800781 C1484.9202,64.5566405 1484.87723,64.5390626 1484.84598,64.5273438 C1483.93192,64.1445293 1483.31571,63.7519551 1482.99735,63.3496094 C1482.67899,62.9472636 1482.51981,62.4082065 1482.51981,61.7324219 C1482.51981,60.9706993 1482.75125,60.3584008 1483.21415,59.8955078 C1483.67704,59.4326149 1484.28543,59.2011719 1485.03934,59.2011719 C1485.68388,59.2011719 1486.22977,59.3789045 1486.67704,59.734375 C1487.1243,60.0898455 1487.45926,60.6113247 1487.68192,61.2988281 Z" id="love"></path>
            </g>
        </g>
    </g>
</svg>