<?xml version="1.0" encoding="UTF-8" standalone="no"?>
<svg width="12px" height="23px" viewBox="0 0 12 23" version="1.1" xmlns="http://www.w3.org/2000/svg" xmlns:xlink="http://www.w3.org/1999/xlink">
    <!-- Generator: Sketch 47.1 (45422) - http://www.bohemiancoding.com/sketch -->
    <title>facebook-logo</title>
    <desc>Created with Sketch.</desc>
    <defs></defs>
    <g id="Page-1" stroke="none" stroke-width="1" fill="none" fill-rule="evenodd">
        <g id="1.0-Main-—-Klodt" transform="translate(-174.000000, -1808.000000)" fill-rule="nonzero" fill="#3D3D3D">
            <g id="Group-13" transform="translate(50.000000, 1757.000000)">
                <g id="Group-9" transform="translate(0.000000, 51.000000)">
                    <g id="Group-7" transform="translate(125.000000, 1.000000)">
                        <g id="Group-6">
                            <path d="M6.5521968,20.4090909 L6.5521968,9.95322577 L9.55542771,9.95322577 L9.83810484,7.35048541 L6.55050761,7.35048541 L6.55219965,6.84879908 L6.55827895,5.04713571 C6.55827895,3.6576111 7.00279269,3.10406004 8.53015789,3.10406004 L9.87507502,3.10406004 L9.87507502,0.5 L7.42320761,0.5 C4.35704459,0.5 3.12912624,1.80809964 3.12912624,4.68752152 L3.12912624,7.35048541 L2.62912624,7.35048541 L0.918604651,7.35048541 L0.918604651,9.95322577 L3.12912624,9.95322577 L3.12912624,20.4090909 L6.5521968,20.4090909 Z M7.5521968,21.4090909 L2.12912624,21.4090909 L2.12912624,10.9532258 L-0.0813953488,10.9532258 L-0.0813953488,6.35048541 L2.12912624,6.35048541 L2.12912624,4.68752152 C2.12912624,1.26945948 3.79012491,-0.5 7.42320761,-0.5 L10.875075,-0.5 L10.875075,4.10406004 L8.53015789,4.10406004 C7.60928678,4.10406004 7.55827895,4.16757988 7.5582761,5.04882205 L7.55388599,6.35048541 L10.9525928,6.35048541 L10.4527007,10.9532258 L7.5521968,10.9532258 L7.5521968,21.4090909 Z" id="facebook-logo"></path>
                        </g>
                    </g>
                </g>
            </g>
        </g>
    </g>
</svg>