<?xml version="1.0" encoding="UTF-8" standalone="no"?>
<svg width="184px" height="45px" viewBox="0 0 184 45" version="1.1" xmlns="http://www.w3.org/2000/svg" xmlns:xlink="http://www.w3.org/1999/xlink">
    <!-- Generator: Sketch 47.1 (45422) - http://www.bohemiancoding.com/sketch -->
    <title>signature</title>
    <desc>Created with Sketch.</desc>
    <defs></defs>
    <g id="Page-1" stroke="none" stroke-width="1" fill="none" fill-rule="evenodd">
        <g id="4.0-Contacts-—-Klodt" transform="translate(-533.000000, -696.000000)" fill="#646363">
            <g id="Group-13" transform="translate(500.000000, 161.000000)">
                <g id="signature" transform="translate(33.000000, 535.000000)">
                    <path d="M134.021697,15.1925826 C133.73199,15.8973728 135.964826,15.9090661 136.802002,17.3027011 C138.465339,24.4484022 135.331436,34.4270837 134.311404,40.7446829 C129.520774,33.5096871 136.450608,17.166633 130.106797,15.2978227 C123.764088,13.4300755 118.912874,20.9010644 124.360025,22.3372207 C127.501638,23.1674487 128.924837,20.4078176 130.617915,20.9765397 C130.935161,29.6593851 129.509759,38.7727585 134.359872,45 C136.667613,44.3845045 136.493569,41.6099909 136.399937,40.1536371 C135.899835,32.1904643 139.230914,24.6684499 139.373014,16.9210726 C147.86374,15.8846164 166.049185,17.7885067 180.677733,17.6938969 C182.949124,17.6811405 183.860103,16.3938087 184,15.0022998 C149.271518,14.9438331 150.46229,16.1163574 134.021697,15.1925826 M130.332615,18.6814536 C130.124422,20.0974122 126.905701,21.6388087 125.480299,20.9765397 C120.881339,18.6973991 131.213853,12.7858781 130.332615,18.6814536" id="Fill-1"></path>
                    <path d="M114.998022,11.038475 C114.998022,11.038475 112.874602,11.8731226 113.916487,12.70987 C114.561884,13.2222072 116.911082,12.5954341 118.885819,13.4038349 C120.994921,14.2689289 120.826414,18.1933477 117.374754,18.974452 C115.15882,19.4752406 111.993514,18.2752377 112.222597,17.1581746 C112.663141,14.969193 112.706094,13.9224714 110.382226,16.2983301 C110.202705,16.4789079 110.068339,16.657386 109.953798,16.8295649 C108.800675,17.7513519 107.459219,18.4127708 105.819296,18.4778628 C103.911742,18.5524037 103.24542,17.1434764 104.137521,15.7502973 C104.656261,14.9429462 103.989939,14.5607931 103.331326,15.2505585 C102.096702,16.5408503 94.3078917,20.7413853 92.9840582,17.4353407 C92.9411052,17.3503011 92.8651114,17.3041067 92.7604823,17.2988574 C86.6380276,17.6243175 80.4924445,17.8741868 74.3479626,17.9445282 C74.6420255,17.6264172 74.8468783,17.302007 74.9559128,16.9817963 C75.0759609,16.7970189 75.1365357,16.6164411 75.1387384,16.4442622 C75.1442452,14.3665669 72.4415102,12.7770618 68.7045992,11.5686599 C66.167068,10.6783691 62.988546,9.89936462 59.3815953,9.2967385 C64.4874956,8.54713041 69.6616801,8.08938653 74.7708845,7.68623596 C75.5043896,7.63059278 76.3656523,5.90565427 75.0065753,5.93505067 C73.9602843,5.95709796 63.3090414,6.85578778 54.3087358,8.60382346 C52.0531525,8.35605384 49.6885348,8.17652585 47.2556328,8.07993769 C46.7600212,8.04214232 46.250092,8.01169606 45.7456696,7.98019992 C45.5826684,4.89462823 45.5187896,2.28464823 45.6476486,0.672045946 C45.461519,-0.984650932 42.0792455,0.749736421 42.1519352,2.33924154 C42.1772664,2.89147383 43.0913944,3.49514981 43.1255365,4.00958674 C43.2081385,5.43111245 43.3105648,6.7014567 43.4229035,7.86156446 C37.978886,7.64424111 32.1317711,7.80592129 26.5456782,8.28676233 C9.48562744,9.41957344 -2.13701402,13.0080335 0.330030123,18.1576521 C0.473206792,18.4663143 0.690174514,18.7550289 0.937980287,19.0363944 C6.38530187,25.2736796 35.1109471,25.4028138 45.2786934,24.6637044 C45.2643757,25.1844406 45.2423485,25.727224 45.2060037,26.3036033 L44.9273598,28.3823485 C45.0595229,28.9398301 47.36687,29.2652902 47.2303015,28.7193572 C47.1399901,27.4122674 47.0364623,25.9928414 46.9263264,24.5251214 C61.0479514,23.2043833 69.1154061,21.2652711 72.7344717,19.1739275 C75.9988998,19.0153969 79.2633278,18.8127718 82.4803974,18.704635 C84.5586619,18.6353435 87.4497292,18.5146083 89.5312977,18.4148706 C91.0082201,18.3434793 91.9179427,18.6164458 92.7869149,19.6442698 C93.7737326,20.8033277 95.367399,20.1125124 96.4423254,19.8867901 C98.6692733,19.4195974 100.555901,18.7602782 102.201332,17.5823226 C101.975553,18.7319317 102.274021,19.8573937 103.876499,20.1555571 C106.046176,20.5555581 108.055055,19.6610678 109.7126,18.4064716 C110.228036,19.6390205 112.447274,20.3781298 114.592722,20.1944024 C118.816433,19.8290472 120.377059,18.2741878 120.914522,15.8489852 C121.097348,15.0174871 121.566527,12.2090814 114.998022,11.038475 M44.4956271,15.6474099 C44.1013406,15.4542336 43.7246758,15.2474089 43.375545,15.0111879 C42.3843219,14.3403201 43.2764227,13.5812632 44.0793134,13.1004221 C44.2180847,14.0127603 44.3590586,14.8526573 44.4956271,15.6474099 M43.5385462,8.97022853 C43.645378,9.96235689 43.7577166,10.8820441 43.8766634,11.7219412 C41.684959,12.8830988 39.6650666,14.5891396 41.5307687,16.3098786 C41.8710886,16.6258899 42.2874023,16.8831084 42.7488718,17.1046312 C21.4849337,20.6258995 14.0353414,16.8789089 12.8855226,14.4369083 C11.6982577,11.9340152 20.2690333,9.74608341 43.5385462,8.97022853 M4.05813032,17.432191 C3.84226395,17.1518754 3.70129,16.8894076 3.64842477,16.6563362 C3.02065014,13.8857259 10.39535,11.7607864 10.5814796,11.7450383 C7.81816992,12.7539646 7.02519144,13.8804765 7.22894286,15.0500331 C7.43049155,16.2384874 13.273201,23.7387678 44.4713972,17.7219555 C44.5958508,17.7566013 44.719203,17.7838979 44.8436566,17.8153941 C45.1145909,19.6085742 45.2985178,21.3650089 45.2963151,23.5602897 C17.9297468,25.1539943 6.66284434,20.3560826 4.05813032,17.432191 M45.7963321,8.91983471 L47.3426401,8.91983471 C48.8140557,8.93348304 50.342742,8.99752519 51.8758337,9.1067118 C50.1180648,9.49621404 48.4704317,9.91931217 47.035361,10.3781059 C46.7468049,10.4715445 46.3503157,10.6122272 45.9097721,10.7865058 C45.8690218,10.1523836 45.8282715,9.52771018 45.7963321,8.91983471 M47.9814283,23.3303679 L46.8415218,23.4542527 C46.7115614,21.7272144 46.5716888,19.9424333 46.4340189,18.1524027 C46.8503326,18.2269436 47.2589368,18.2962351 47.6234867,18.3655266 C52.0355308,19.1739275 56.6645426,19.1802267 61.1492765,19.3555552 C62.4819208,19.405949 63.8233761,19.4164478 65.1736422,19.4080488 C59.6503269,21.535088 51.5905818,23.1980841 47.9814283,23.3303679 M68.3785969,17.9445282 C64.979803,17.9077827 61.5876173,17.808045 58.1976344,17.6096193 C54.689806,17.4038445 50.0123343,17.5098815 46.2996532,16.3550231 C46.1939227,14.9408465 46.0925977,13.542418 46.0000835,12.1765354 C47.0089283,11.8069807 47.9891378,11.6043556 49.3096673,11.2673469 C51.8725297,10.6164267 54.4827505,10.0967404 57.1138971,9.65684435 C64.3553325,10.6762694 70.6319774,12.6720747 70.8544519,15.2316608 C70.9348511,16.1282509 69.9645538,17.0521376 68.3785969,17.9445282" id="Fill-3"></path>
                </g>
            </g>
        </g>
    </g>
</svg>