<?xml version="1.0" encoding="UTF-8" standalone="no"?>
<svg width="20px" height="26px" viewBox="0 0 20 26" version="1.1" xmlns="http://www.w3.org/2000/svg" xmlns:xlink="http://www.w3.org/1999/xlink">
    <!-- Generator: Sketch 47.1 (45422) - http://www.bohemiancoding.com/sketch -->
    <title>pinterest-logo</title>
    <desc>Created with Sketch.</desc>
    <defs></defs>
    <g id="Page-1" stroke="none" stroke-width="1" fill="none" fill-rule="evenodd">
        <g id="1.0-Main-—-Klodt" transform="translate(-50.000000, -1807.000000)" fill-rule="nonzero" fill="#3D3D3D">
            <g id="Group-13" transform="translate(50.000000, 1757.000000)">
                <g id="Group-9" transform="translate(0.000000, 51.000000)">
                    <g id="Group-8">
                        <g id="Group-5">
                            <path d="M5.89953004,10.4729598 C5.7531377,9.95941232 5.66556365,9.39083134 5.66556365,8.78093282 C5.66556365,6.54163033 6.99333784,4.76766459 8.76178504,4.76766459 C10.2064335,4.76766459 11.076404,5.83941672 11.076404,7.30550935 C11.076404,8.06733202 10.9315319,8.64206587 10.3429519,10.5701385 C10.248018,10.881123 10.1826913,11.0990738 10.120011,11.3162216 C10.0212833,11.6582508 9.94152011,11.9573643 9.87562391,12.2375922 C9.62038713,13.3254918 10.3860646,14.2385705 11.5132917,14.2385705 C13.6296299,14.2385705 15.2799386,11.336549 15.2799386,7.51958748 C15.2799386,4.68181345 13.3761685,2.81681765 10.1800569,2.81681765 C6.57765304,2.81681765 4.05307428,5.45216315 4.05307428,8.81897458 C4.05307428,9.81233059 4.31460969,10.5530842 4.82412416,11.160437 C5.17659129,11.5803423 5.25102086,11.8655982 5.11884901,12.3639089 C5.092824,12.4641457 5.06178263,12.5878351 4.98458139,12.8975659 C4.90361222,13.2224135 4.8713809,13.3507644 4.84451175,13.4536934 C4.68004952,14.0871287 4.0899581,14.3745543 3.49648342,14.1304954 C1.5046125,13.3100258 0.430232558,11.1621131 0.430232558,8.48107426 C0.430232558,3.6837298 4.53026389,-0.5 10.5490443,-0.5 C15.7155511,-0.5 19.5697674,3.23307439 19.5697674,7.7776747 C19.5697674,13.4329039 16.3844821,17.5822411 11.8075942,17.5822411 C10.669908,17.5822411 9.52859115,17.1406082 8.76444212,16.4721075 C8.68232573,16.7992259 8.60112261,17.1220516 8.52373177,17.4288744 C8.28513001,18.3746687 8.12235379,19.0118905 8.05645751,19.2544204 C7.82171253,20.1076459 7.41491382,20.9960176 6.88262363,21.9012323 C6.60355238,22.3758219 6.30596213,22.827732 6.00258914,23.2514467 C5.81766258,23.5097297 5.66552056,23.7097275 5.54051073,23.8691304 C5.18185728,24.3371581 4.41003405,24.1647527 4.32876716,23.5541465 C4.29509062,23.3297999 4.25945443,23.0680485 4.22404823,22.7379857 C4.10479764,21.6263109 4.07255048,20.4961214 4.18041814,19.4257283 C4.22341782,18.9990336 4.2883224,18.5941011 4.37728579,18.2139609 C4.48074415,17.7719896 4.78354548,16.4778447 5.22362486,14.596837 C5.84685447,11.9329501 5.88472905,11.7710617 6.07025989,10.9780128 C6.01747043,10.8476568 5.95800153,10.678079 5.89953004,10.4729598 Z M6.02061074,21.3943459 C6.51196551,20.5587461 6.8839345,19.746436 7.09013277,18.996984 C7.15500153,18.7582982 7.3175151,18.1221046 7.54728149,17.2113352 C7.65975624,16.7654214 7.77255419,16.316565 7.88507516,15.8677009 C7.9525886,15.5983789 8.00501007,15.3888903 8.03490136,15.2692785 L8.3546947,13.9896061 L8.96353263,15.159711 C9.36282753,15.9271023 10.5903695,16.5822411 11.8075942,16.5822411 C15.7658523,16.5822411 18.5697674,12.9296988 18.5697674,7.7776747 C18.5697674,3.79263177 15.1702865,0.5 10.5490443,0.5 C5.08712235,0.5 1.43023256,4.23154192 1.43023256,8.48107426 C1.43023256,10.7950527 2.31401059,12.5619118 3.87708168,13.2057549 C3.90242526,13.1034695 3.93454222,12.975574 4.01425829,12.6557538 C4.09252725,12.3417393 4.12371532,12.2174654 4.15160439,12.1100763 C4.19737359,11.9375093 4.20936065,11.9834504 4.05810003,11.8032488 C3.39517494,11.0130271 3.05307428,10.0440864 3.05307428,8.81897458 C3.05307428,4.90925628 6.015534,1.81681765 10.1800569,1.81681765 C13.9238999,1.81681765 16.2799386,4.12487059 16.2799386,7.51958748 C16.2799386,11.8155644 14.3333587,15.2385705 11.5132917,15.2385705 C9.75464373,15.2385705 8.49642326,13.7381291 8.90211763,12.008932 C8.97229905,11.7104806 9.05621117,11.3958085 9.15923635,11.0388912 C9.22362451,10.8158269 9.29022721,10.5936191 9.38652362,10.278171 C9.93678092,8.47563622 10.076404,7.92172607 10.076404,7.30550935 C10.076404,6.35111152 9.60280421,5.76766459 8.76178504,5.76766459 C7.61889673,5.76766459 6.66556365,7.04136025 6.66556365,8.78093282 C6.66556365,9.29298644 6.73909804,9.77041394 6.86121977,10.1988196 C6.93293325,10.450392 7.00231534,10.624761 7.04309729,10.706967 L7.12299369,10.8680178 L7.08204066,11.043071 C6.86088819,11.9883845 6.86088819,11.9883845 6.19740596,14.8243244 C5.7572384,16.7057089 5.45443682,17.9998549 5.35097109,18.4418577 C5.27236601,18.7777369 5.21423677,19.1403988 5.1753788,19.5259944 C5.0755296,20.5168186 5.10581542,21.5812704 5.21811829,22.6292227 C5.49511941,22.2401233 5.7665629,21.8263807 6.02061074,21.3943459 Z" id="pinterest-logo"></path>
                        </g>
                    </g>
                </g>
            </g>
        </g>
    </g>
</svg>