<?xml version="1.0" encoding="UTF-8" standalone="no"?>
<svg width="22px" height="22px" viewBox="0 0 22 22" version="1.1" xmlns="http://www.w3.org/2000/svg" xmlns:xlink="http://www.w3.org/1999/xlink">
    <!-- Generator: Sketch 47.1 (45422) - http://www.bohemiancoding.com/sketch -->
    <title>instagram-logo</title>
    <desc>Created with Sketch.</desc>
    <defs></defs>
    <g id="Page-1" stroke="none" stroke-width="1" fill="none" fill-rule="evenodd">
        <g id="1.0-Main-—-Klodt" transform="translate(-295.000000, -1809.000000)" fill="#3D3D3D">
            <g id="Group-13" transform="translate(50.000000, 1757.000000)">
                <g id="Group-9" transform="translate(0.000000, 51.000000)">
                    <g id="Group-3" transform="translate(246.000000, 2.000000)">
                        <g id="instagram-logo">
                            <path d="M5.52976744,0.499702042 C2.79043508,0.499702042 0.569767442,2.72036968 0.569767442,5.45970204 L0.569767442,14.539702 C0.569767442,17.2790344 2.79043508,19.499702 5.52976744,19.499702 L14.5632558,19.499702 C17.3025882,19.499702 19.5232558,17.2790344 19.5232558,14.539702 L19.5232558,5.45970204 C19.5232558,2.72036968 17.3025882,0.499702042 14.5632558,0.499702042 L5.52976744,0.499702042 Z M5.52976744,-0.500297958 L14.5632558,-0.500297958 C17.8548729,-0.500297958 20.5232558,2.16808493 20.5232558,5.45970204 L20.5232558,14.539702 C20.5232558,17.8313192 17.8548729,20.499702 14.5632558,20.499702 L5.52976744,20.499702 C2.23815033,20.499702 -0.430232558,17.8313192 -0.430232558,14.539702 L-0.430232558,5.45970204 C-0.430232558,2.16808493 2.23815033,-0.500297958 5.52976744,-0.500297958 Z" id="Camera-Frame" fill-rule="nonzero"></path>
                            <path d="M10.0465116,15.5 C7.01510648,15.5 4.55813953,13.0373059 4.55813953,10 C4.55813953,6.96269414 7.01510648,4.5 10.0465116,4.5 C13.0779168,4.5 15.5348837,6.96269414 15.5348837,10 C15.5348837,13.0373059 13.0779168,15.5 10.0465116,15.5 Z M10.0465116,14.5 C12.5251101,14.5 14.5348837,12.4855416 14.5348837,10 C14.5348837,7.51445836 12.5251101,5.5 10.0465116,5.5 C7.56791311,5.5 5.55813953,7.51445836 5.55813953,10 C5.55813953,12.4855416 7.56791311,14.5 10.0465116,14.5 Z" id="Oval-1" fill-rule="nonzero"></path>
                            <ellipse id="Oval-2" cx="16.0325581" cy="4" rx="1" ry="1"></ellipse>
                        </g>
                    </g>
                </g>
            </g>
        </g>
    </g>
</svg>